<ttFont>
    <TTGlyph name=".notdef" xMin="0" yMin="0" xMax="500" yMax="700">
      <contour>
        <pt x="0" y="700" on="1"/>
        <pt x="500" y="700" on="1"/>
        <pt x="500" y="0" on="1"/>
        <pt x="0" y="0" on="1"/>
      </contour>
      <contour>
        <pt x="50" y="650" on="1"/>
        <pt x="50" y="50" on="1"/>
        <pt x="450" y="50" on="1"/>
        <pt x="450" y="650" on="1"/>
      </contour>
      <contour>
        <pt x="229" y="278" on="1"/>
        <pt x="229" y="307" on="0"/>
        <pt x="256" y="345" on="0"/>
        <pt x="283" y="367" on="1"/>
        <pt x="311" y="390" on="0"/>
        <pt x="339" y="431" on="0"/>
        <pt x="339" y="465" on="1"/>
        <pt x="339" y="496" on="0"/>
        <pt x="301" y="552" on="0"/>
        <pt x="250" y="552" on="1"/>
        <pt x="192" y="552" on="0"/>
        <pt x="152" y="485" on="0"/>
        <pt x="152" y="452" on="1"/>
        <pt x="152" y="424" on="1"/>
        <pt x="103" y="424" on="1"/>
        <pt x="99" y="438" on="0"/>
        <pt x="99" y="455" on="1"/>
        <pt x="99" y="478" on="0"/>
        <pt x="120" y="544" on="0"/>
        <pt x="187" y="602" on="0"/>
        <pt x="250" y="602" on="1"/>
        <pt x="313" y="602" on="0"/>
        <pt x="376" y="546" on="0"/>
        <pt x="393" y="486" on="0"/>
        <pt x="393" y="467" on="1"/>
        <pt x="393" y="422" on="0"/>
        <pt x="356" y="364" on="0"/>
        <pt x="326" y="338" on="1"/>
        <pt x="304" y="320" on="0"/>
        <pt x="282" y="290" on="0"/>
        <pt x="282" y="268" on="1"/>
        <pt x="282" y="215" on="1"/>
        <pt x="229" y="215" on="1"/>
      </contour>
      <contour>
        <pt x="225" y="169" on="1"/>
        <pt x="285" y="169" on="1"/>
        <pt x="285" y="99" on="1"/>
        <pt x="225" y="99" on="1"/>
      </contour>
    </TTGlyph>
    <TTGlyph name=".ttfautohint" xMin="0" yMin="0" xMax="0" yMax="0">
      <contour>
        <pt x="0" y="0" on="1"/>
      </contour>
    </TTGlyph>
    <TTGlyph name="A" xMin="16" yMin="0" xMax="384" yMax="688">
      <contour>
        <pt x="281" y="197" on="1"/>
        <pt x="118" y="197" on="1"/>
        <pt x="77" y="0" on="1"/>
        <pt x="16" y="0" on="1"/>
        <pt x="159" y="688" on="1"/>
        <pt x="241" y="688" on="1"/>
        <pt x="384" y="0" on="1"/>
        <pt x="322" y="0" on="1"/>
      </contour>
      <contour>
        <pt x="197" y="601" on="1"/>
        <pt x="126" y="253" on="1"/>
        <pt x="273" y="253" on="1"/>
        <pt x="202" y="601" on="1"/>
      </contour>
    </TTGlyph>
    <TTGlyph name="A.ss01" xMin="53" yMin="0" xMax="365" yMax="696">
      <contour>
        <pt x="304" y="253" on="1"/>
        <pt x="113" y="253" on="1"/>
        <pt x="113" y="0" on="1"/>
        <pt x="53" y="0" on="1"/>
        <pt x="53" y="392" on="1"/>
        <pt x="53" y="525" on="0"/>
        <pt x="71" y="644" on="0"/>
        <pt x="135" y="696" on="0"/>
        <pt x="209" y="696" on="1"/>
        <pt x="283" y="696" on="0"/>
        <pt x="347" y="644" on="0"/>
        <pt x="365" y="525" on="0"/>
        <pt x="365" y="392" on="1"/>
        <pt x="365" y="0" on="1"/>
        <pt x="304" y="0" on="1"/>
      </contour>
      <contour>
        <pt x="304" y="525" on="0"/>
        <pt x="293" y="607" on="0"/>
        <pt x="255" y="640" on="0"/>
        <pt x="209" y="640" on="1"/>
        <pt x="163" y="640" on="0"/>
        <pt x="124" y="607" on="0"/>
        <pt x="113" y="524" on="0"/>
        <pt x="113" y="427" on="1"/>
        <pt x="113" y="309" on="1"/>
        <pt x="304" y="309" on="1"/>
        <pt x="304" y="427" on="1"/>
      </contour>
    </TTGlyph>
    <TTGlyph name="AE" xMin="-3" yMin="0" xMax="509" yMax="688">
      <contour>
        <pt x="276" y="197" on="1"/>
        <pt x="113" y="197" on="1"/>
        <pt x="58" y="0" on="1"/>
        <pt x="-3" y="0" on="1"/>
        <pt x="187" y="688" on="1"/>
        <pt x="509" y="688" on="1"/>
        <pt x="509" y="632" on="1"/>
        <pt x="278" y="632" on="1"/>
        <pt x="315" y="376" on="1"/>
        <pt x="484" y="376" on="1"/>
        <pt x="484" y="320" on="1"/>
        <pt x="321" y="320" on="1"/>
        <pt x="360" y="56" on="1"/>
        <pt x="509" y="56" on="1"/>
        <pt x="509" y="0" on="1"/>
        <pt x="304" y="0" on="1"/>
      </contour>
      <contour>
        <pt x="219" y="601" on="1"/>
        <pt x="123" y="253" on="1"/>
        <pt x="271" y="253" on="1"/>
        <pt x="225" y="601" on="1"/>
      </contour>
    </TTGlyph>
    <TTGlyph name="AEacute" xMin="-3" yMin="0" xMax="509" yMax="888">
      <component glyphName=".ttfautohint" x="0" y="0" flags="0x0"/>
      <component glyphName="AE" x="0" y="0" flags="0x0"/>
      <component glyphName="acutecomb.case" x="340" y="0" flags="0x0"/>
    </TTGlyph>
    <TTGlyph name="Aacute" xMin="16" yMin="0" xMax="384" yMax="890">
      <component glyphName=".ttfautohint" x="16" y="0" flags="0x0"/>
      <component glyphName="A" x="0" y="0" flags="0x0"/>
      <component glyphName="acute" x="175" y="147" flags="0x4"/>
    </TTGlyph>
    <TTGlyph name="Aacute.ss01" xMin="53" yMin="0" xMax="365" yMax="890">
      <component glyphName=".ttfautohint" x="53" y="0" flags="0x0"/>
      <component glyphName="A.ss01" x="0" y="0" flags="0x0"/>
      <component glyphName="acute" x="183" y="147" flags="0x4"/>
    </TTGlyph>
    <TTGlyph name="Abreve" xMin="16" yMin="0" xMax="384" yMax="888">
      <component glyphName=".ttfautohint" x="16" y="0" flags="0x0"/>
      <component glyphName="A" x="0" y="0" flags="0x0"/>
      <component glyphName="uni0306.case" x="298" y="0" flags="0x0"/>
    </TTGlyph>
    <TTGlyph name="Abreve.ss01" xMin="53" yMin="0" xMax="365" yMax="888">
      <component glyphName=".ttfautohint" x="53" y="0" flags="0x0"/>
      <component glyphName="A.ss01" x="0" y="0" flags="0x0"/>
      <component glyphName="uni0306.case" x="307" y="0" flags="0x0"/>
    </TTGlyph>
    <TTGlyph name="Acircumflex" xMin="16" yMin="0" xMax="384" yMax="884">
      <component glyphName=".ttfautohint" x="16" y="0" flags="0x0"/>
      <component glyphName="A" x="0" y="0" flags="0x0"/>
      <component glyphName="circumflex" x="101" y="141" flags="0x4"/>
    </TTGlyph>
    <TTGlyph name="Acircumflex.ss01" xMin="53" yMin="0" xMax="365" yMax="885">
      <component glyphName=".ttfautohint" x="53" y="0" flags="0x0"/>
      <component glyphName="A.ss01" x="0" y="0" flags="0x0"/>
      <component glyphName="circumflex" x="113" y="142" flags="0x4"/>
    </TTGlyph>
    <TTGlyph name="Adieresis" xMin="16" yMin="0" xMax="384" yMax="843">
      <component glyphName=".ttfautohint" x="16" y="0" flags="0x0"/>
      <component glyphName="A" x="0" y="0" flags="0x0"/>
      <component glyphName="dieresis" x="67" y="113" flags="0x4"/>
    </TTGlyph>
    <TTGlyph name="Adieresis.ss01" xMin="53" yMin="0" xMax="365" yMax="842">
      <component glyphName=".ttfautohint" x="53" y="0" flags="0x0"/>
      <component glyphName="A.ss01" x="0" y="0" flags="0x0"/>
      <component glyphName="dieresis" x="80" y="112" flags="0x4"/>
    </TTGlyph>
    <TTGlyph name="Agrave" xMin="16" yMin="0" xMax="384" yMax="890">
      <component glyphName=".ttfautohint" x="16" y="0" flags="0x0"/>
      <component glyphName="A" x="0" y="0" flags="0x0"/>
      <component glyphName="grave" x="133" y="147" flags="0x4"/>
    </TTGlyph>
    <TTGlyph name="Agrave.ss01" xMin="53" yMin="0" xMax="365" yMax="890">
      <component glyphName=".ttfautohint" x="53" y="0" flags="0x0"/>
      <component glyphName="A.ss01" x="0" y="0" flags="0x0"/>
      <component glyphName="grave" x="146" y="147" flags="0x4"/>
    </TTGlyph>
    <TTGlyph name="Amacron" xMin="16" yMin="0" xMax="384" yMax="888">
      <component glyphName=".ttfautohint" x="16" y="0" flags="0x0"/>
      <component glyphName="A" x="0" y="0" flags="0x0"/>
      <component glyphName="uni0304.case" x="339" y="0" flags="0x0"/>
    </TTGlyph>
    <TTGlyph name="Amacron.ss01" xMin="53" yMin="0" xMax="365" yMax="888">
      <component glyphName=".ttfautohint" x="53" y="0" flags="0x0"/>
      <component glyphName="A.ss01" x="0" y="0" flags="0x0"/>
      <component glyphName="uni0304.case" x="348" y="0" flags="0x0"/>
    </TTGlyph>
    <TTGlyph name="Aogonek" xMin="16" yMin="-196" xMax="384" yMax="688">
      <contour>
        <pt x="312" y="-154" on="0"/>
        <pt x="356" y="-154" on="1"/>
        <pt x="372" y="-153" on="1"/>
        <pt x="372" y="-194" on="1"/>
        <pt x="362" y="-196" on="0"/>
        <pt x="343" y="-196" on="1"/>
        <pt x="302" y="-196" on="0"/>
        <pt x="263" y="-154" on="0"/>
        <pt x="263" y="-120" on="1"/>
        <pt x="263" y="-91" on="0"/>
        <pt x="295" y="-24" on="0"/>
        <pt x="321" y="3" on="1"/>
        <pt x="281" y="197" on="1"/>
        <pt x="118" y="197" on="1"/>
        <pt x="77" y="0" on="1"/>
        <pt x="16" y="0" on="1"/>
        <pt x="159" y="688" on="1"/>
        <pt x="241" y="688" on="1"/>
        <pt x="384" y="0" on="1"/>
        <pt x="367" y="0" on="1"/>
        <pt x="346" y="-20" on="0"/>
        <pt x="312" y="-84" on="0"/>
        <pt x="312" y="-110" on="1"/>
      </contour>
      <contour>
        <pt x="273" y="253" on="1"/>
        <pt x="202" y="601" on="1"/>
        <pt x="197" y="601" on="1"/>
        <pt x="126" y="253" on="1"/>
      </contour>
    </TTGlyph>
    <TTGlyph name="Aogonek.ss01" xMin="53" yMin="-196" xMax="365" yMax="696">
      <contour>
        <pt x="330" y="-20" on="0"/>
        <pt x="296" y="-84" on="0"/>
        <pt x="296" y="-110" on="1"/>
        <pt x="296" y="-154" on="0"/>
        <pt x="340" y="-154" on="1"/>
        <pt x="346" y="-154" on="1"/>
        <pt x="352" y="-154" on="0"/>
        <pt x="356" y="-153" on="1"/>
        <pt x="356" y="-194" on="1"/>
        <pt x="346" y="-196" on="0"/>
        <pt x="327" y="-196" on="1"/>
        <pt x="286" y="-196" on="0"/>
        <pt x="247" y="-154" on="0"/>
        <pt x="247" y="-120" on="1"/>
        <pt x="247" y="-91" on="0"/>
        <pt x="279" y="-26" on="0"/>
        <pt x="304" y="1" on="1"/>
        <pt x="304" y="253" on="1"/>
        <pt x="113" y="253" on="1"/>
        <pt x="113" y="0" on="1"/>
        <pt x="53" y="0" on="1"/>
        <pt x="53" y="392" on="1"/>
        <pt x="53" y="525" on="0"/>
        <pt x="71" y="644" on="0"/>
        <pt x="135" y="696" on="0"/>
        <pt x="209" y="696" on="1"/>
        <pt x="283" y="696" on="0"/>
        <pt x="347" y="644" on="0"/>
        <pt x="365" y="525" on="0"/>
        <pt x="365" y="392" on="1"/>
        <pt x="365" y="0" on="1"/>
        <pt x="351" y="0" on="1"/>
      </contour>
      <contour>
        <pt x="304" y="309" on="1"/>
        <pt x="304" y="427" on="1"/>
        <pt x="304" y="525" on="0"/>
        <pt x="293" y="607" on="0"/>
        <pt x="255" y="640" on="0"/>
        <pt x="209" y="640" on="1"/>
        <pt x="163" y="640" on="0"/>
        <pt x="124" y="607" on="0"/>
        <pt x="113" y="524" on="0"/>
        <pt x="113" y="427" on="1"/>
        <pt x="113" y="309" on="1"/>
      </contour>
    </TTGlyph>
    <TTGlyph name="Aring" xMin="16" yMin="0" xMax="384" yMax="860">
      <contour>
        <pt x="384" y="0" on="1"/>
        <pt x="322" y="0" on="1"/>
        <pt x="281" y="197" on="1"/>
        <pt x="118" y="197" on="1"/>
        <pt x="77" y="0" on="1"/>
        <pt x="16" y="0" on="1"/>
        <pt x="158" y="684" on="1"/>
        <pt x="127" y="690" on="0"/>
        <pt x="110" y="726" on="0"/>
        <pt x="110" y="769" on="1"/>
        <pt x="110" y="806" on="0"/>
        <pt x="121" y="842" on="0"/>
        <pt x="159" y="860" on="0"/>
        <pt x="200" y="860" on="1"/>
        <pt x="241" y="860" on="0"/>
        <pt x="279" y="842" on="0"/>
        <pt x="290" y="806" on="0"/>
        <pt x="290" y="769" on="1"/>
        <pt x="290" y="727" on="0"/>
        <pt x="272" y="690" on="0"/>
        <pt x="243" y="685" on="1"/>
      </contour>
      <contour>
        <pt x="179" y="822" on="0"/>
        <pt x="161" y="813" on="0"/>
        <pt x="156" y="792" on="0"/>
        <pt x="156" y="769" on="1"/>
        <pt x="156" y="746" on="0"/>
        <pt x="161" y="725" on="0"/>
        <pt x="179" y="716" on="0"/>
        <pt x="200" y="716" on="1"/>
        <pt x="230" y="716" on="0"/>
        <pt x="245" y="736" on="0"/>
        <pt x="245" y="769" on="1"/>
        <pt x="245" y="802" on="0"/>
        <pt x="230" y="822" on="0"/>
        <pt x="200" y="822" on="1"/>
      </contour>
      <contour>
        <pt x="273" y="253" on="1"/>
        <pt x="202" y="601" on="1"/>
        <pt x="197" y="601" on="1"/>
        <pt x="126" y="253" on="1"/>
      </contour>
    </TTGlyph>
    <TTGlyph name="Aring.ss01" xMin="53" yMin="0" xMax="365" yMax="922">
      <component glyphName=".ttfautohint" x="53" y="0" flags="0x0"/>
      <component glyphName="A.ss01" x="0" y="0" flags="0x0"/>
      <component glyphName="ring" x="123" y="122" flags="0x4"/>
    </TTGlyph>
    <TTGlyph name="Aringacute" xMin="16" yMin="0" xMax="384" yMax="1060">
      <component glyphName=".ttfautohint" x="16" y="0" flags="0x0"/>
      <component glyphName="Aring" x="0" y="0" flags="0x0"/>
      <component glyphName="acutecomb.case" x="271" y="172" flags="0x4"/>
    </TTGlyph>
    <TTGlyph name="Aringacute.ss01" xMin="53" yMin="0" xMax="365" yMax="1085">
      <component glyphName=".ttfautohint" x="53" y="0" flags="0x0"/>
      <component glyphName="A.ss01" x="0" y="0" flags="0x0"/>
      <component glyphName="uni030A.case" x="298" y="0" flags="0x0"/>
      <component glyphName="acutecomb.case" x="282" y="197" flags="0x4"/>
    </TTGlyph>
    <TTGlyph name="Atilde" xMin="16" yMin="0" xMax="384" yMax="864">
      <component glyphName=".ttfautohint" x="16" y="0" flags="0x0"/>
      <component glyphName="A" x="0" y="0" flags="0x0"/>
      <component glyphName="tilde" x="82" y="121" flags="0x4"/>
    </TTGlyph>
    <TTGlyph name="Atilde.ss01" xMin="53" yMin="0" xMax="365" yMax="865">
      <component glyphName=".ttfautohint" x="53" y="0" flags="0x0"/>
      <component glyphName="A.ss01" x="0" y="0" flags="0x0"/>
      <component glyphName="tilde" x="94" y="122" flags="0x4"/>
    </TTGlyph>
    <TTGlyph name="B" xMin="57" yMin="0" xMax="360" yMax="688">
      <contour>
        <pt x="57" y="688" on="1"/>
        <pt x="211" y="688" on="1"/>
        <pt x="289" y="688" on="0"/>
        <pt x="355" y="600" on="0"/>
        <pt x="355" y="516" on="1"/>
        <pt x="355" y="445" on="0"/>
        <pt x="311" y="366" on="0"/>
        <pt x="263" y="354" on="1"/>
        <pt x="263" y="350" on="1"/>
        <pt x="319" y="338" on="0"/>
        <pt x="360" y="253" on="0"/>
        <pt x="360" y="181" on="1"/>
        <pt x="360" y="97" on="0"/>
        <pt x="295" y="0" on="0"/>
        <pt x="207" y="0" on="1"/>
        <pt x="57" y="0" on="1"/>
      </contour>
      <contour>
        <pt x="295" y="376" on="0"/>
        <pt x="295" y="504" on="1"/>
        <pt x="295" y="576" on="0"/>
        <pt x="256" y="632" on="0"/>
        <pt x="201" y="632" on="1"/>
        <pt x="118" y="632" on="1"/>
        <pt x="118" y="376" on="1"/>
        <pt x="201" y="376" on="1"/>
      </contour>
      <contour>
        <pt x="258" y="56" on="0"/>
        <pt x="299" y="116" on="0"/>
        <pt x="299" y="189" on="1"/>
        <pt x="299" y="261" on="0"/>
        <pt x="254" y="321" on="0"/>
        <pt x="202" y="321" on="1"/>
        <pt x="118" y="321" on="1"/>
        <pt x="118" y="56" on="1"/>
        <pt x="202" y="56" on="1"/>
      </contour>
    </TTGlyph>
    <TTGlyph name="C" xMin="44" yMin="-8" xMax="290" yMax="696">
      <contour>
        <pt x="273" y="-1" on="0"/>
        <pt x="226" y="-8" on="0"/>
        <pt x="206" y="-8" on="1"/>
        <pt x="133" y="-8" on="0"/>
        <pt x="67" y="44" on="0"/>
        <pt x="44" y="187" on="0"/>
        <pt x="44" y="344" on="1"/>
        <pt x="44" y="499" on="0"/>
        <pt x="67" y="642" on="0"/>
        <pt x="134" y="696" on="0"/>
        <pt x="206" y="696" on="1"/>
        <pt x="228" y="696" on="0"/>
        <pt x="275" y="689" on="0"/>
        <pt x="288" y="683" on="1"/>
        <pt x="288" y="631" on="1"/>
        <pt x="250" y="640" on="0"/>
        <pt x="216" y="640" on="1"/>
        <pt x="162" y="640" on="0"/>
        <pt x="118" y="602" on="0"/>
        <pt x="105" y="486" on="0"/>
        <pt x="105" y="344" on="1"/>
        <pt x="105" y="202" on="0"/>
        <pt x="118" y="86" on="0"/>
        <pt x="162" y="48" on="0"/>
        <pt x="216" y="48" on="1"/>
        <pt x="256" y="48" on="0"/>
        <pt x="290" y="57" on="1"/>
        <pt x="290" y="4" on="1"/>
      </contour>
    </TTGlyph>
    <TTGlyph name="Cacute" xMin="44" yMin="-8" xMax="290" yMax="888">
      <component glyphName=".ttfautohint" x="44" y="0" flags="0x0"/>
      <component glyphName="C" x="0" y="0" flags="0x0"/>
      <component glyphName="acutecomb.case" x="228" y="0" flags="0x0"/>
    </TTGlyph>
    <TTGlyph name="Cacute.loclPLK" xMin="44" yMin="-8" xMax="290" yMax="888">
      <component glyphName=".ttfautohint" x="44" y="0" flags="0x0"/>
      <component glyphName="C" x="0" y="0" flags="0x0"/>
      <component glyphName="acute.case.loclPLK" x="136" y="0" flags="0x0"/>
    </TTGlyph>
    <TTGlyph name="Ccaron" xMin="44" yMin="-8" xMax="290" yMax="888">
      <component glyphName=".ttfautohint" x="44" y="0" flags="0x0"/>
      <component glyphName="C" x="0" y="0" flags="0x0"/>
      <component glyphName="uni030C.case" x="256" y="0" flags="0x0"/>
    </TTGlyph>
    <TTGlyph name="Ccedilla" xMin="44" yMin="-189" xMax="290" yMax="696">
      <contour>
        <pt x="256" y="48" on="0"/>
        <pt x="290" y="57" on="1"/>
        <pt x="290" y="4" on="1"/>
        <pt x="273" y="-1" on="0"/>
        <pt x="226" y="-8" on="0"/>
        <pt x="206" y="-8" on="1"/>
        <pt x="184" y="-8" on="0"/>
        <pt x="175" y="-7" on="1"/>
        <pt x="135" y="-189" on="1"/>
        <pt x="79" y="-189" on="1"/>
        <pt x="79" y="-184" on="1"/>
        <pt x="135" y="0" on="1"/>
        <pt x="96" y="12" on="0"/>
        <pt x="57" y="82" on="0"/>
        <pt x="44" y="217" on="0"/>
        <pt x="44" y="344" on="1"/>
        <pt x="44" y="499" on="0"/>
        <pt x="67" y="642" on="0"/>
        <pt x="134" y="696" on="0"/>
        <pt x="206" y="696" on="1"/>
        <pt x="228" y="696" on="0"/>
        <pt x="275" y="689" on="0"/>
        <pt x="288" y="683" on="1"/>
        <pt x="288" y="631" on="1"/>
        <pt x="250" y="640" on="0"/>
        <pt x="216" y="640" on="1"/>
        <pt x="162" y="640" on="0"/>
        <pt x="118" y="602" on="0"/>
        <pt x="105" y="486" on="0"/>
        <pt x="105" y="344" on="1"/>
        <pt x="105" y="202" on="0"/>
        <pt x="118" y="86" on="0"/>
        <pt x="162" y="48" on="0"/>
        <pt x="216" y="48" on="1"/>
      </contour>
    </TTGlyph>
    <TTGlyph name="Ccircumflex" xMin="44" yMin="-8" xMax="290" yMax="888">
      <component glyphName=".ttfautohint" x="44" y="0" flags="0x0"/>
      <component glyphName="C" x="0" y="0" flags="0x0"/>
      <component glyphName="uni0302.case" x="256" y="0" flags="0x0"/>
    </TTGlyph>
    <TTGlyph name="Cdotaccent" xMin="44" yMin="-8" xMax="290" yMax="875">
      <component glyphName=".ttfautohint" x="44" y="0" flags="0x0"/>
      <component glyphName="C" x="0" y="0" flags="0x0"/>
      <component glyphName="uni0307.case" x="201" y="0" flags="0x0"/>
    </TTGlyph>
    <TTGlyph name="D" xMin="57" yMin="0" xMax="359" yMax="688">
      <contour>
        <pt x="57" y="688" on="1"/>
        <pt x="193" y="688" on="1"/>
        <pt x="271" y="688" on="0"/>
        <pt x="338" y="636" on="0"/>
        <pt x="359" y="500" on="0"/>
        <pt x="359" y="344" on="1"/>
        <pt x="359" y="188" on="0"/>
        <pt x="338" y="52" on="0"/>
        <pt x="271" y="0" on="0"/>
        <pt x="193" y="0" on="1"/>
        <pt x="57" y="0" on="1"/>
      </contour>
      <contour>
        <pt x="194" y="56" on="1"/>
        <pt x="243" y="56" on="0"/>
        <pt x="283" y="87" on="0"/>
        <pt x="298" y="202" on="0"/>
        <pt x="298" y="344" on="1"/>
        <pt x="298" y="486" on="0"/>
        <pt x="283" y="601" on="0"/>
        <pt x="243" y="632" on="0"/>
        <pt x="194" y="632" on="1"/>
        <pt x="118" y="632" on="1"/>
        <pt x="118" y="56" on="1"/>
      </contour>
    </TTGlyph>
    <TTGlyph name="Dcaron" xMin="57" yMin="0" xMax="359" yMax="888">
      <component glyphName=".ttfautohint" x="57" y="0" flags="0x0"/>
      <component glyphName="D" x="0" y="0" flags="0x0"/>
      <component glyphName="uni030C.case" x="301" y="0" flags="0x0"/>
    </TTGlyph>
    <TTGlyph name="Dcroat" xMin="8" yMin="0" xMax="359" yMax="688">
      <component glyphName=".ttfautohint" x="8" y="0" flags="0x0"/>
      <component glyphName="Eth" x="0" y="0" flags="0x0"/>
    </TTGlyph>
    <TTGlyph name="E" xMin="57" yMin="0" xMax="314" yMax="688">
      <contour>
        <pt x="57" y="688" on="1"/>
        <pt x="314" y="688" on="1"/>
        <pt x="314" y="632" on="1"/>
        <pt x="119" y="632" on="1"/>
        <pt x="119" y="376" on="1"/>
        <pt x="289" y="376" on="1"/>
        <pt x="289" y="320" on="1"/>
        <pt x="119" y="320" on="1"/>
        <pt x="119" y="56" on="1"/>
        <pt x="314" y="56" on="1"/>
        <pt x="314" y="0" on="1"/>
        <pt x="57" y="0" on="1"/>
      </contour>
    </TTGlyph>
    <TTGlyph name="Eacute" xMin="57" yMin="0" xMax="314" yMax="890">
      <component glyphName=".ttfautohint" x="57" y="0" flags="0x0"/>
      <component glyphName="E" x="0" y="0" flags="0x0"/>
      <component glyphName="acute" x="168" y="147" flags="0x4"/>
    </TTGlyph>
    <TTGlyph name="Ebreve" xMin="57" yMin="0" xMax="314" yMax="888">
      <component glyphName=".ttfautohint" x="57" y="0" flags="0x0"/>
      <component glyphName="E" x="0" y="0" flags="0x0"/>
      <component glyphName="uni0306.case" x="283" y="0" flags="0x0"/>
    </TTGlyph>
    <TTGlyph name="Ecaron" xMin="57" yMin="0" xMax="314" yMax="888">
      <component glyphName=".ttfautohint" x="57" y="0" flags="0x0"/>
      <component glyphName="E" x="0" y="0" flags="0x0"/>
      <component glyphName="uni030C.case" x="284" y="0" flags="0x0"/>
    </TTGlyph>
    <TTGlyph name="Ecircumflex" xMin="57" yMin="0" xMax="314" yMax="884">
      <component glyphName=".ttfautohint" x="57" y="0" flags="0x0"/>
      <component glyphName="E" x="0" y="0" flags="0x0"/>
      <component glyphName="circumflex" x="87" y="141" flags="0x4"/>
    </TTGlyph>
    <TTGlyph name="Edieresis" xMin="57" yMin="0" xMax="314" yMax="843">
      <component glyphName=".ttfautohint" x="57" y="0" flags="0x0"/>
      <component glyphName="E" x="0" y="0" flags="0x0"/>
      <component glyphName="dieresis" x="53" y="113" flags="0x4"/>
    </TTGlyph>
    <TTGlyph name="Edotaccent" xMin="57" yMin="0" xMax="314" yMax="875">
      <component glyphName=".ttfautohint" x="57" y="0" flags="0x0"/>
      <component glyphName="E" x="0" y="0" flags="0x0"/>
      <component glyphName="uni0307.case" x="229" y="0" flags="0x0"/>
    </TTGlyph>
    <TTGlyph name="Egrave" xMin="57" yMin="0" xMax="314" yMax="890">
      <component glyphName=".ttfautohint" x="57" y="0" flags="0x0"/>
      <component glyphName="E" x="0" y="0" flags="0x0"/>
      <component glyphName="grave" x="126" y="147" flags="0x4"/>
    </TTGlyph>
    <TTGlyph name="Emacron" xMin="57" yMin="0" xMax="314" yMax="888">
      <component glyphName=".ttfautohint" x="57" y="0" flags="0x0"/>
      <component glyphName="E" x="0" y="0" flags="0x0"/>
      <component glyphName="uni0304.case" x="324" y="0" flags="0x0"/>
    </TTGlyph>
    <TTGlyph name="Eng" xMin="57" yMin="-192" xMax="370" yMax="688">
      <contour>
        <pt x="370" y="688" on="1"/>
        <pt x="370" y="-75" on="1"/>
        <pt x="370" y="-129" on="0"/>
        <pt x="347" y="-178" on="0"/>
        <pt x="301" y="-192" on="0"/>
        <pt x="255" y="-192" on="1"/>
        <pt x="255" y="-145" on="1"/>
        <pt x="282" y="-145" on="0"/>
        <pt x="306" y="-136" on="0"/>
        <pt x="312" y="-114" on="0"/>
        <pt x="312" y="-90" on="1"/>
        <pt x="312" y="11" on="1"/>
        <pt x="120" y="532" on="1"/>
        <pt x="116" y="532" on="1"/>
        <pt x="116" y="0" on="1"/>
        <pt x="57" y="0" on="1"/>
        <pt x="57" y="688" on="1"/>
        <pt x="121" y="688" on="1"/>
        <pt x="308" y="171" on="1"/>
        <pt x="312" y="171" on="1"/>
        <pt x="312" y="688" on="1"/>
      </contour>
    </TTGlyph>
    <TTGlyph name="Eogonek" xMin="57" yMin="-196" xMax="314" yMax="688">
      <contour>
        <pt x="239" y="-196" on="0"/>
        <pt x="199" y="-154" on="0"/>
        <pt x="199" y="-123" on="1"/>
        <pt x="199" y="-91" on="0"/>
        <pt x="236" y="-26" on="0"/>
        <pt x="266" y="0" on="1"/>
        <pt x="57" y="0" on="1"/>
        <pt x="57" y="688" on="1"/>
        <pt x="314" y="688" on="1"/>
        <pt x="314" y="632" on="1"/>
        <pt x="119" y="632" on="1"/>
        <pt x="119" y="376" on="1"/>
        <pt x="289" y="376" on="1"/>
        <pt x="289" y="320" on="1"/>
        <pt x="119" y="320" on="1"/>
        <pt x="119" y="56" on="1"/>
        <pt x="314" y="56" on="1"/>
        <pt x="314" y="0" on="1"/>
        <pt x="290" y="-18" on="0"/>
        <pt x="249" y="-83" on="0"/>
        <pt x="249" y="-112" on="1"/>
        <pt x="249" y="-154" on="0"/>
        <pt x="292" y="-154" on="1"/>
        <pt x="298" y="-154" on="1"/>
        <pt x="304" y="-154" on="0"/>
        <pt x="308" y="-153" on="1"/>
        <pt x="308" y="-194" on="1"/>
        <pt x="298" y="-196" on="0"/>
        <pt x="280" y="-196" on="1"/>
      </contour>
    </TTGlyph>
    <TTGlyph name="Eth" xMin="8" yMin="0" xMax="359" yMax="688">
      <contour>
        <pt x="57" y="320" on="1"/>
        <pt x="8" y="320" on="1"/>
        <pt x="8" y="378" on="1"/>
        <pt x="57" y="378" on="1"/>
        <pt x="57" y="688" on="1"/>
        <pt x="193" y="688" on="1"/>
        <pt x="271" y="688" on="0"/>
        <pt x="338" y="636" on="0"/>
        <pt x="359" y="500" on="0"/>
        <pt x="359" y="344" on="1"/>
        <pt x="359" y="188" on="0"/>
        <pt x="338" y="52" on="0"/>
        <pt x="271" y="0" on="0"/>
        <pt x="193" y="0" on="1"/>
        <pt x="57" y="0" on="1"/>
      </contour>
      <contour>
        <pt x="243" y="56" on="0"/>
        <pt x="283" y="87" on="0"/>
        <pt x="298" y="202" on="0"/>
        <pt x="298" y="344" on="1"/>
        <pt x="298" y="486" on="0"/>
        <pt x="283" y="601" on="0"/>
        <pt x="243" y="632" on="0"/>
        <pt x="194" y="632" on="1"/>
        <pt x="118" y="632" on="1"/>
        <pt x="118" y="378" on="1"/>
        <pt x="215" y="378" on="1"/>
        <pt x="215" y="320" on="1"/>
        <pt x="118" y="320" on="1"/>
        <pt x="118" y="56" on="1"/>
        <pt x="194" y="56" on="1"/>
      </contour>
    </TTGlyph>
    <TTGlyph name="Euro" xMin="34" yMin="-8" xMax="324" yMax="696">
      <contour>
        <pt x="175" y="-8" on="0"/>
        <pt x="110" y="32" on="0"/>
        <pt x="81" y="139" on="0"/>
        <pt x="78" y="248" on="1"/>
        <pt x="34" y="248" on="1"/>
        <pt x="34" y="291" on="1"/>
        <pt x="77" y="291" on="1"/>
        <pt x="77" y="400" on="1"/>
        <pt x="34" y="400" on="1"/>
        <pt x="34" y="443" on="1"/>
        <pt x="78" y="443" on="1"/>
        <pt x="82" y="550" on="0"/>
        <pt x="111" y="656" on="0"/>
        <pt x="176" y="696" on="0"/>
        <pt x="240" y="696" on="1"/>
        <pt x="262" y="696" on="0"/>
        <pt x="309" y="689" on="0"/>
        <pt x="322" y="683" on="1"/>
        <pt x="322" y="631" on="1"/>
        <pt x="284" y="640" on="0"/>
        <pt x="250" y="640" on="1"/>
        <pt x="203" y="640" on="0"/>
        <pt x="159" y="613" on="0"/>
        <pt x="140" y="532" on="0"/>
        <pt x="138" y="443" on="1"/>
        <pt x="289" y="443" on="1"/>
        <pt x="289" y="400" on="1"/>
        <pt x="138" y="400" on="1"/>
        <pt x="138" y="291" on="1"/>
        <pt x="289" y="291" on="1"/>
        <pt x="289" y="248" on="1"/>
        <pt x="138" y="248" on="1"/>
        <pt x="140" y="158" on="0"/>
        <pt x="159" y="76" on="0"/>
        <pt x="203" y="48" on="0"/>
        <pt x="250" y="48" on="1"/>
        <pt x="267" y="48" on="0"/>
        <pt x="310" y="53" on="0"/>
        <pt x="324" y="57" on="1"/>
        <pt x="324" y="4" on="1"/>
        <pt x="308" y="-1" on="0"/>
        <pt x="260" y="-8" on="0"/>
        <pt x="240" y="-8" on="1"/>
      </contour>
    </TTGlyph>
    <TTGlyph name="F" xMin="57" yMin="0" xMax="302" yMax="688">
      <contour>
        <pt x="57" y="688" on="1"/>
        <pt x="302" y="688" on="1"/>
        <pt x="302" y="632" on="1"/>
        <pt x="119" y="632" on="1"/>
        <pt x="119" y="362" on="1"/>
        <pt x="282" y="362" on="1"/>
        <pt x="282" y="306" on="1"/>
        <pt x="119" y="306" on="1"/>
        <pt x="119" y="0" on="1"/>
        <pt x="57" y="0" on="1"/>
      </contour>
    </TTGlyph>
    <TTGlyph name="G" xMin="44" yMin="-8" xMax="347" yMax="696">
      <contour>
        <pt x="205" y="307" on="1"/>
        <pt x="205" y="362" on="1"/>
        <pt x="347" y="362" on="1"/>
        <pt x="347" y="10" on="1"/>
        <pt x="319" y="2" on="0"/>
        <pt x="245" y="-8" on="0"/>
        <pt x="215" y="-8" on="1"/>
        <pt x="143" y="-8" on="0"/>
        <pt x="72" y="45" on="0"/>
        <pt x="44" y="191" on="0"/>
        <pt x="44" y="344" on="1"/>
        <pt x="44" y="497" on="0"/>
        <pt x="71" y="642" on="0"/>
        <pt x="143" y="696" on="0"/>
        <pt x="219" y="696" on="1"/>
        <pt x="250" y="696" on="0"/>
        <pt x="321" y="686" on="0"/>
        <pt x="346" y="678" on="1"/>
        <pt x="346" y="625" on="1"/>
        <pt x="319" y="631" on="0"/>
        <pt x="258" y="640" on="0"/>
        <pt x="241" y="640" on="1"/>
        <pt x="177" y="640" on="0"/>
        <pt x="125" y="609" on="0"/>
        <pt x="104" y="489" on="0"/>
        <pt x="104" y="344" on="1"/>
        <pt x="104" y="208" on="0"/>
        <pt x="118" y="90" on="0"/>
        <pt x="164" y="47" on="0"/>
        <pt x="216" y="47" on="1"/>
        <pt x="236" y="47" on="0"/>
        <pt x="278" y="53" on="0"/>
        <pt x="291" y="57" on="1"/>
        <pt x="291" y="307" on="1"/>
      </contour>
    </TTGlyph>
    <TTGlyph name="G.ss01" xMin="44" yMin="-8" xMax="362" yMax="696">
      <contour>
        <pt x="139" y="-8" on="0"/>
        <pt x="69" y="45" on="0"/>
        <pt x="44" y="188" on="0"/>
        <pt x="44" y="344" on="1"/>
        <pt x="44" y="500" on="0"/>
        <pt x="72" y="645" on="0"/>
        <pt x="146" y="696" on="0"/>
        <pt x="224" y="696" on="1"/>
        <pt x="253" y="696" on="0"/>
        <pt x="325" y="686" on="0"/>
        <pt x="350" y="678" on="1"/>
        <pt x="350" y="625" on="1"/>
        <pt x="281" y="640" on="0"/>
        <pt x="241" y="640" on="1"/>
        <pt x="176" y="640" on="0"/>
        <pt x="124" y="607" on="0"/>
        <pt x="105" y="489" on="0"/>
        <pt x="105" y="344" on="1"/>
        <pt x="105" y="204" on="0"/>
        <pt x="119" y="87" on="0"/>
        <pt x="161" y="48" on="0"/>
        <pt x="212" y="48" on="1"/>
        <pt x="258" y="48" on="0"/>
        <pt x="294" y="77" on="0"/>
        <pt x="304" y="168" on="0"/>
        <pt x="304" y="286" on="1"/>
        <pt x="304" y="314" on="1"/>
        <pt x="212" y="314" on="1"/>
        <pt x="212" y="369" on="1"/>
        <pt x="362" y="369" on="1"/>
        <pt x="362" y="289" on="1"/>
        <pt x="362" y="154" on="0"/>
        <pt x="346" y="41" on="0"/>
        <pt x="286" y="-8" on="0"/>
        <pt x="214" y="-8" on="1"/>
      </contour>
    </TTGlyph>
    <TTGlyph name="G_tilde.loclGUA" xMin="44" yMin="-8" xMax="347" yMax="888">
      <component glyphName=".ttfautohint" x="44" y="0" flags="0x0"/>
      <component glyphName="G" x="0" y="0" flags="0x0"/>
      <component glyphName="tildecomb.case" x="313" y="0" flags="0x0"/>
    </TTGlyph>
    <TTGlyph name="Gbreve" xMin="44" yMin="-8" xMax="347" yMax="888">
      <component glyphName=".ttfautohint" x="44" y="0" flags="0x0"/>
      <component glyphName="G" x="0" y="0" flags="0x0"/>
      <component glyphName="uni0306.case" x="292" y="0" flags="0x0"/>
    </TTGlyph>
    <TTGlyph name="Gbreve.ss01" xMin="44" yMin="-8" xMax="362" yMax="888">
      <component glyphName=".ttfautohint" x="44" y="0" flags="0x0"/>
      <component glyphName="G.ss01" x="0" y="0" flags="0x0"/>
      <component glyphName="uni0306.case" x="299" y="0" flags="0x0"/>
    </TTGlyph>
    <TTGlyph name="Gcaron" xMin="44" yMin="-8" xMax="347" yMax="888">
      <component glyphName=".ttfautohint" x="44" y="0" flags="0x0"/>
      <component glyphName="G" x="0" y="0" flags="0x0"/>
      <component glyphName="uni030C.case" x="294" y="0" flags="0x0"/>
    </TTGlyph>
    <TTGlyph name="Gcaron.ss01" xMin="44" yMin="-8" xMax="362" yMax="888">
      <component glyphName=".ttfautohint" x="44" y="0" flags="0x0"/>
      <component glyphName="G.ss01" x="0" y="0" flags="0x0"/>
      <component glyphName="uni030C.case" x="301" y="0" flags="0x0"/>
    </TTGlyph>
    <TTGlyph name="Gcircumflex" xMin="44" yMin="-8" xMax="347" yMax="888">
      <component glyphName=".ttfautohint" x="44" y="0" flags="0x0"/>
      <component glyphName="G" x="0" y="0" flags="0x0"/>
      <component glyphName="uni0302.case" x="294" y="0" flags="0x0"/>
    </TTGlyph>
    <TTGlyph name="Gcircumflex.ss01" xMin="44" yMin="-8" xMax="362" yMax="888">
      <component glyphName=".ttfautohint" x="44" y="0" flags="0x0"/>
      <component glyphName="G.ss01" x="0" y="0" flags="0x0"/>
      <component glyphName="uni0302.case" x="301" y="0" flags="0x0"/>
    </TTGlyph>
    <TTGlyph name="Gcommaaccent" xMin="44" yMin="-239" xMax="347" yMax="696">
      <component glyphName=".ttfautohint" x="44" y="0" flags="0x0"/>
      <component glyphName="G" x="0" y="0" flags="0x0"/>
      <component glyphName="uni0326" x="275" y="0" flags="0x0"/>
    </TTGlyph>
    <TTGlyph name="Gcommaaccent.ss01" xMin="44" yMin="-239" xMax="362" yMax="696">
      <component glyphName=".ttfautohint" x="44" y="0" flags="0x0"/>
      <component glyphName="G.ss01" x="0" y="0" flags="0x0"/>
      <component glyphName="uni0326" x="282" y="0" flags="0x0"/>
    </TTGlyph>
    <TTGlyph name="Gdotaccent" xMin="44" yMin="-8" xMax="347" yMax="875">
      <component glyphName=".ttfautohint" x="44" y="0" flags="0x0"/>
      <component glyphName="G" x="0" y="0" flags="0x0"/>
      <component glyphName="uni0307.case" x="239" y="0" flags="0x0"/>
    </TTGlyph>
    <TTGlyph name="Gdotaccent.ss01" xMin="44" yMin="-8" xMax="362" yMax="875">
      <component glyphName=".ttfautohint" x="44" y="0" flags="0x0"/>
      <component glyphName="G.ss01" x="0" y="0" flags="0x0"/>
      <component glyphName="uni0307.case" x="246" y="0" flags="0x0"/>
    </TTGlyph>
    <TTGlyph name="Gtilde.loclGUA.ss01" xMin="44" yMin="-8" xMax="362" yMax="888">
      <component glyphName=".ttfautohint" x="44" y="0" flags="0x0"/>
      <component glyphName="G.ss01" x="0" y="0" flags="0x0"/>
      <component glyphName="tildecomb.case" x="320" y="0" flags="0x0"/>
    </TTGlyph>
    <TTGlyph name="H" xMin="57" yMin="0" xMax="369" yMax="688">
      <contour>
        <pt x="308" y="319" on="1"/>
        <pt x="118" y="319" on="1"/>
        <pt x="118" y="0" on="1"/>
        <pt x="57" y="0" on="1"/>
        <pt x="57" y="688" on="1"/>
        <pt x="118" y="688" on="1"/>
        <pt x="118" y="377" on="1"/>
        <pt x="308" y="377" on="1"/>
        <pt x="308" y="688" on="1"/>
        <pt x="369" y="688" on="1"/>
        <pt x="369" y="0" on="1"/>
        <pt x="308" y="0" on="1"/>
      </contour>
    </TTGlyph>
    <TTGlyph name="Hbar" xMin="57" yMin="0" xMax="369" yMax="688">
      <contour>
        <pt x="369" y="688" on="1"/>
        <pt x="369" y="0" on="1"/>
        <pt x="308" y="0" on="1"/>
        <pt x="308" y="295" on="1"/>
        <pt x="118" y="295" on="1"/>
        <pt x="118" y="0" on="1"/>
        <pt x="57" y="0" on="1"/>
        <pt x="57" y="688" on="1"/>
        <pt x="118" y="688" on="1"/>
        <pt x="118" y="548" on="1"/>
        <pt x="308" y="548" on="1"/>
        <pt x="308" y="688" on="1"/>
      </contour>
      <contour>
        <pt x="308" y="353" on="1"/>
        <pt x="308" y="490" on="1"/>
        <pt x="118" y="490" on="1"/>
        <pt x="118" y="353" on="1"/>
      </contour>
    </TTGlyph>
    <TTGlyph name="Hcircumflex" xMin="57" yMin="0" xMax="369" yMax="888">
      <component glyphName=".ttfautohint" x="57" y="0" flags="0x0"/>
      <component glyphName="H" x="0" y="0" flags="0x0"/>
      <component glyphName="uni0302.case" x="312" y="0" flags="0x0"/>
    </TTGlyph>
    <TTGlyph name="I" xMin="61" yMin="0" xMax="122" yMax="688">
      <contour>
        <pt x="61" y="688" on="1"/>
        <pt x="122" y="688" on="1"/>
        <pt x="122" y="0" on="1"/>
        <pt x="61" y="0" on="1"/>
      </contour>
    </TTGlyph>
    <TTGlyph name="IJ" xMin="61" yMin="0" xMax="324" yMax="688">
      <component glyphName=".ttfautohint" x="61" y="0" flags="0x0"/>
      <component glyphName="I" x="0" y="0" flags="0x0"/>
      <component glyphName="J" x="183" y="0" flags="0x0"/>
    </TTGlyph>
    <TTGlyph name="Iacute" xMin="61" yMin="0" xMax="154" yMax="890">
      <component glyphName=".ttfautohint" x="61" y="0" flags="0x0"/>
      <component glyphName="I" x="0" y="0" flags="0x0"/>
      <component glyphName="acute" x="62" y="147" flags="0x4"/>
    </TTGlyph>
    <TTGlyph name="Iacute_J.loclNLD" xMin="61" yMin="0" xMax="365" yMax="888">
      <component glyphName=".ttfautohint" x="61" y="0" flags="0x0"/>
      <component glyphName="I" x="0" y="0" flags="0x0"/>
      <component glyphName="acutecomb.case" x="163" y="0" flags="0x0"/>
      <component glyphName="J" x="183" y="0" flags="0x0"/>
      <component glyphName="acutecomb.case" x="365" y="0" flags="0x0"/>
    </TTGlyph>
    <TTGlyph name="Ibreve" xMin="-7" yMin="0" xMax="190" yMax="888">
      <component glyphName=".ttfautohint" x="0" y="0" flags="0x0"/>
      <component glyphName="I" x="0" y="0" flags="0x0"/>
      <component glyphName="uni0306.case" x="189" y="0" flags="0x0"/>
    </TTGlyph>
    <TTGlyph name="Icircumflex" xMin="-7" yMin="0" xMax="191" yMax="884">
      <component glyphName=".ttfautohint" x="0" y="0" flags="0x0"/>
      <component glyphName="I" x="0" y="0" flags="0x0"/>
      <component glyphName="circumflex" x="-7" y="141" flags="0x4"/>
    </TTGlyph>
    <TTGlyph name="Idieresis" xMin="-21" yMin="0" xMax="205" yMax="843">
      <component glyphName=".ttfautohint" x="0" y="0" flags="0x0"/>
      <component glyphName="I" x="0" y="0" flags="0x0"/>
      <component glyphName="dieresis" x="-41" y="113" flags="0x4"/>
    </TTGlyph>
    <TTGlyph name="Idotaccent" xMin="61" yMin="0" xMax="122" yMax="875">
      <component glyphName=".ttfautohint" x="61" y="0" flags="0x0"/>
      <component glyphName="I" x="0" y="0" flags="0x0"/>
      <component glyphName="uni0307.case" x="136" y="0" flags="0x0"/>
    </TTGlyph>
    <TTGlyph name="Igrave" xMin="30" yMin="0" xMax="122" yMax="890">
      <component glyphName=".ttfautohint" x="30" y="0" flags="0x0"/>
      <component glyphName="I" x="0" y="0" flags="0x0"/>
      <component glyphName="grave" x="30" y="147" flags="0x4"/>
    </TTGlyph>
    <TTGlyph name="Imacron" xMin="8" yMin="0" xMax="174" yMax="888">
      <component glyphName=".ttfautohint" x="8" y="0" flags="0x0"/>
      <component glyphName="I" x="0" y="0" flags="0x0"/>
      <component glyphName="uni0304.case" x="230" y="0" flags="0x0"/>
    </TTGlyph>
    <TTGlyph name="Iogonek" xMin="15" yMin="-196" xMax="123" yMax="688">
      <contour>
        <pt x="53" y="-196" on="0"/>
        <pt x="15" y="-154" on="0"/>
        <pt x="15" y="-120" on="1"/>
        <pt x="15" y="-91" on="0"/>
        <pt x="48" y="-26" on="0"/>
        <pt x="74" y="0" on="1"/>
        <pt x="61" y="0" on="1"/>
        <pt x="61" y="688" on="1"/>
        <pt x="122" y="688" on="1"/>
        <pt x="122" y="0" on="1"/>
        <pt x="102" y="-18" on="0"/>
        <pt x="64" y="-84" on="0"/>
        <pt x="64" y="-110" on="1"/>
        <pt x="64" y="-154" on="0"/>
        <pt x="108" y="-154" on="1"/>
        <pt x="123" y="-153" on="1"/>
        <pt x="123" y="-194" on="1"/>
        <pt x="114" y="-196" on="0"/>
        <pt x="95" y="-196" on="1"/>
      </contour>
    </TTGlyph>
    <TTGlyph name="Itilde" xMin="-27" yMin="0" xMax="210" yMax="888">
      <component glyphName=".ttfautohint" x="0" y="0" flags="0x0"/>
      <component glyphName="I" x="0" y="0" flags="0x0"/>
      <component glyphName="tildecomb.case" x="210" y="0" flags="0x0"/>
    </TTGlyph>
    <TTGlyph name="J" xMin="8" yMin="0" xMax="141" yMax="688">
      <contour>
        <pt x="46" y="56" on="0"/>
        <pt x="73" y="74" on="0"/>
        <pt x="80" y="137" on="0"/>
        <pt x="80" y="228" on="1"/>
        <pt x="80" y="688" on="1"/>
        <pt x="141" y="688" on="1"/>
        <pt x="141" y="246" on="1"/>
        <pt x="141" y="122" on="0"/>
        <pt x="126" y="29" on="0"/>
        <pt x="76" y="1" on="0"/>
        <pt x="8" y="0" on="1"/>
        <pt x="8" y="54" on="1"/>
      </contour>
    </TTGlyph>
    <TTGlyph name="Jcircumflex" xMin="8" yMin="0" xMax="210" yMax="888">
      <component glyphName=".ttfautohint" x="8" y="0" flags="0x0"/>
      <component glyphName="J" x="0" y="0" flags="0x0"/>
      <component glyphName="uni0302.case" x="210" y="0" flags="0x0"/>
    </TTGlyph>
    <TTGlyph name="K" xMin="57" yMin="0" xMax="374" yMax="688">
      <contour>
        <pt x="186" y="320" on="1"/>
        <pt x="118" y="320" on="1"/>
        <pt x="118" y="0" on="1"/>
        <pt x="57" y="0" on="1"/>
        <pt x="57" y="688" on="1"/>
        <pt x="118" y="688" on="1"/>
        <pt x="118" y="378" on="1"/>
        <pt x="186" y="378" on="1"/>
        <pt x="309" y="688" on="1"/>
        <pt x="372" y="688" on="1"/>
        <pt x="236" y="351" on="1"/>
        <pt x="374" y="0" on="1"/>
        <pt x="310" y="0" on="1"/>
      </contour>
    </TTGlyph>
    <TTGlyph name="Kcommaaccent" xMin="57" yMin="-239" xMax="374" yMax="688">
      <component glyphName=".ttfautohint" x="57" y="0" flags="0x0"/>
      <component glyphName="K" x="0" y="0" flags="0x0"/>
      <component glyphName="uni0326" x="273" y="0" flags="0x0"/>
    </TTGlyph>
    <TTGlyph name="L" xMin="57" yMin="0" xMax="293" yMax="688">
      <contour>
        <pt x="57" y="688" on="1"/>
        <pt x="119" y="688" on="1"/>
        <pt x="119" y="57" on="1"/>
        <pt x="293" y="57" on="1"/>
        <pt x="293" y="0" on="1"/>
        <pt x="57" y="0" on="1"/>
      </contour>
    </TTGlyph>
    <TTGlyph name="Lacute" xMin="57" yMin="0" xMax="293" yMax="888">
      <component glyphName=".ttfautohint" x="57" y="0" flags="0x0"/>
      <component glyphName="L" x="0" y="0" flags="0x0"/>
      <component glyphName="acutecomb.case" x="160" y="0" flags="0x0"/>
    </TTGlyph>
    <TTGlyph name="Lcaron" xMin="57" yMin="0" xMax="293" yMax="688">
      <component glyphName=".ttfautohint" x="57" y="0" flags="0x0"/>
      <component glyphName="L" x="0" y="0" flags="0x0"/>
      <component glyphName="caron.loclCSY" x="160" y="0" flags="0x0"/>
    </TTGlyph>
    <TTGlyph name="Lcommaaccent" xMin="57" yMin="-239" xMax="293" yMax="688">
      <component glyphName=".ttfautohint" x="57" y="0" flags="0x0"/>
      <component glyphName="L" x="0" y="0" flags="0x0"/>
      <component glyphName="uni0326" x="237" y="0" flags="0x0"/>
    </TTGlyph>
    <TTGlyph name="Ldot" xMin="57" yMin="0" xMax="293" yMax="688">
      <component glyphName=".ttfautohint" x="57" y="0" flags="0x0"/>
      <component glyphName="L" x="0" y="0" flags="0x0"/>
      <component glyphName="periodcentered" x="172" y="66" flags="0x4"/>
    </TTGlyph>
    <TTGlyph name="Lslash" xMin="15" yMin="0" xMax="293" yMax="688">
      <contour>
        <pt x="293" y="57" on="1"/>
        <pt x="293" y="0" on="1"/>
        <pt x="57" y="0" on="1"/>
        <pt x="57" y="281" on="1"/>
        <pt x="15" y="265" on="1"/>
        <pt x="15" y="320" on="1"/>
        <pt x="57" y="335" on="1"/>
        <pt x="57" y="688" on="1"/>
        <pt x="119" y="688" on="1"/>
        <pt x="119" y="358" on="1"/>
        <pt x="236" y="401" on="1"/>
        <pt x="236" y="347" on="1"/>
        <pt x="119" y="304" on="1"/>
        <pt x="119" y="57" on="1"/>
      </contour>
    </TTGlyph>
    <TTGlyph name="M" xMin="57" yMin="0" xMax="497" yMax="688">
      <contour>
        <pt x="437" y="577" on="1"/>
        <pt x="432" y="577" on="1"/>
        <pt x="308" y="0" on="1"/>
        <pt x="243" y="0" on="1"/>
        <pt x="121" y="577" on="1"/>
        <pt x="116" y="577" on="1"/>
        <pt x="116" y="0" on="1"/>
        <pt x="57" y="0" on="1"/>
        <pt x="57" y="688" on="1"/>
        <pt x="149" y="688" on="1"/>
        <pt x="275" y="104" on="1"/>
        <pt x="280" y="104" on="1"/>
        <pt x="407" y="688" on="1"/>
        <pt x="497" y="688" on="1"/>
        <pt x="497" y="0" on="1"/>
        <pt x="437" y="0" on="1"/>
      </contour>
    </TTGlyph>
    <TTGlyph name="N" xMin="57" yMin="0" xMax="370" yMax="688">
      <contour>
        <pt x="120" y="532" on="1"/>
        <pt x="116" y="532" on="1"/>
        <pt x="116" y="0" on="1"/>
        <pt x="57" y="0" on="1"/>
        <pt x="57" y="688" on="1"/>
        <pt x="121" y="688" on="1"/>
        <pt x="308" y="165" on="1"/>
        <pt x="312" y="165" on="1"/>
        <pt x="312" y="688" on="1"/>
        <pt x="370" y="688" on="1"/>
        <pt x="370" y="0" on="1"/>
        <pt x="309" y="0" on="1"/>
      </contour>
    </TTGlyph>
    <TTGlyph name="Nacute" xMin="57" yMin="0" xMax="370" yMax="888">
      <component glyphName=".ttfautohint" x="57" y="0" flags="0x0"/>
      <component glyphName="N" x="0" y="0" flags="0x0"/>
      <component glyphName="acutecomb.case" x="285" y="0" flags="0x0"/>
    </TTGlyph>
    <TTGlyph name="Nacute.loclPLK" xMin="57" yMin="0" xMax="370" yMax="888">
      <component glyphName=".ttfautohint" x="57" y="0" flags="0x0"/>
      <component glyphName="N" x="0" y="0" flags="0x0"/>
      <component glyphName="acute.case.loclPLK" x="193" y="0" flags="0x0"/>
    </TTGlyph>
    <TTGlyph name="Ncaron" xMin="57" yMin="0" xMax="370" yMax="888">
      <component glyphName=".ttfautohint" x="57" y="0" flags="0x0"/>
      <component glyphName="N" x="0" y="0" flags="0x0"/>
      <component glyphName="uni030C.case" x="313" y="0" flags="0x0"/>
    </TTGlyph>
    <TTGlyph name="Ncommaaccent" xMin="57" yMin="-239" xMax="370" yMax="688">
      <component glyphName=".ttfautohint" x="57" y="0" flags="0x0"/>
      <component glyphName="N" x="0" y="0" flags="0x0"/>
      <component glyphName="uni0326" x="294" y="0" flags="0x0"/>
    </TTGlyph>
    <TTGlyph name="Ntilde" xMin="57" yMin="0" xMax="370" yMax="864">
      <component glyphName=".ttfautohint" x="57" y="0" flags="0x0"/>
      <component glyphName="N" x="0" y="0" flags="0x0"/>
      <component glyphName="tilde" x="96" y="121" flags="0x4"/>
    </TTGlyph>
    <TTGlyph name="O" xMin="44" yMin="-8" xMax="375" yMax="696">
      <contour>
        <pt x="132" y="-8" on="0"/>
        <pt x="64" y="45" on="0"/>
        <pt x="44" y="184" on="0"/>
        <pt x="44" y="344" on="1"/>
        <pt x="44" y="504" on="0"/>
        <pt x="64" y="643" on="0"/>
        <pt x="132" y="696" on="0"/>
        <pt x="209" y="696" on="1"/>
        <pt x="287" y="696" on="0"/>
        <pt x="354" y="643" on="0"/>
        <pt x="375" y="504" on="0"/>
        <pt x="375" y="344" on="1"/>
        <pt x="375" y="184" on="0"/>
        <pt x="354" y="45" on="0"/>
        <pt x="287" y="-8" on="0"/>
        <pt x="209" y="-8" on="1"/>
      </contour>
      <contour>
        <pt x="259" y="48" on="0"/>
        <pt x="299" y="80" on="0"/>
        <pt x="314" y="198" on="0"/>
        <pt x="314" y="344" on="1"/>
        <pt x="314" y="490" on="0"/>
        <pt x="299" y="608" on="0"/>
        <pt x="259" y="640" on="0"/>
        <pt x="209" y="640" on="1"/>
        <pt x="160" y="640" on="0"/>
        <pt x="120" y="608" on="0"/>
        <pt x="105" y="489" on="0"/>
        <pt x="105" y="344" on="1"/>
        <pt x="105" y="199" on="0"/>
        <pt x="120" y="80" on="0"/>
        <pt x="160" y="48" on="0"/>
        <pt x="209" y="48" on="1"/>
      </contour>
    </TTGlyph>
    <TTGlyph name="OE" xMin="44" yMin="0" xMax="564" yMax="688">
      <contour>
        <pt x="132" y="0" on="0"/>
        <pt x="64" y="52" on="0"/>
        <pt x="44" y="188" on="0"/>
        <pt x="44" y="344" on="1"/>
        <pt x="44" y="500" on="0"/>
        <pt x="64" y="636" on="0"/>
        <pt x="132" y="688" on="0"/>
        <pt x="209" y="688" on="1"/>
        <pt x="564" y="688" on="1"/>
        <pt x="564" y="632" on="1"/>
        <pt x="382" y="632" on="1"/>
        <pt x="356" y="632" on="0"/>
        <pt x="330" y="636" on="1"/>
        <pt x="355" y="611" on="0"/>
        <pt x="373" y="494" on="0"/>
        <pt x="375" y="376" on="1"/>
        <pt x="539" y="376" on="1"/>
        <pt x="539" y="320" on="1"/>
        <pt x="375" y="320" on="1"/>
        <pt x="374" y="200" on="0"/>
        <pt x="356" y="78" on="0"/>
        <pt x="330" y="53" on="1"/>
        <pt x="366" y="56" on="0"/>
        <pt x="382" y="56" on="1"/>
        <pt x="564" y="56" on="1"/>
        <pt x="564" y="0" on="1"/>
        <pt x="209" y="0" on="1"/>
      </contour>
      <contour>
        <pt x="259" y="56" on="0"/>
        <pt x="299" y="87" on="0"/>
        <pt x="314" y="203" on="0"/>
        <pt x="314" y="344" on="1"/>
        <pt x="314" y="486" on="0"/>
        <pt x="299" y="601" on="0"/>
        <pt x="259" y="632" on="0"/>
        <pt x="209" y="632" on="1"/>
        <pt x="160" y="632" on="0"/>
        <pt x="120" y="601" on="0"/>
        <pt x="105" y="485" on="0"/>
        <pt x="105" y="344" on="1"/>
        <pt x="105" y="203" on="0"/>
        <pt x="120" y="87" on="0"/>
        <pt x="160" y="56" on="0"/>
        <pt x="209" y="56" on="1"/>
      </contour>
    </TTGlyph>
    <TTGlyph name="Oacute" xMin="44" yMin="-8" xMax="375" yMax="890">
      <component glyphName=".ttfautohint" x="44" y="0" flags="0x0"/>
      <component glyphName="O" x="0" y="0" flags="0x0"/>
      <component glyphName="acute" x="185" y="147" flags="0x4"/>
    </TTGlyph>
    <TTGlyph name="Oacute.loclPLK" xMin="44" yMin="-8" xMax="375" yMax="888">
      <component glyphName=".ttfautohint" x="44" y="0" flags="0x0"/>
      <component glyphName="O" x="0" y="0" flags="0x0"/>
      <component glyphName="acute.case.loclPLK" x="188" y="0" flags="0x0"/>
    </TTGlyph>
    <TTGlyph name="Obreve" xMin="44" yMin="-8" xMax="375" yMax="888">
      <component glyphName=".ttfautohint" x="44" y="0" flags="0x0"/>
      <component glyphName="O" x="0" y="0" flags="0x0"/>
      <component glyphName="uni0306.case" x="307" y="0" flags="0x0"/>
    </TTGlyph>
    <TTGlyph name="Ocircumflex" xMin="44" yMin="-8" xMax="375" yMax="884">
      <component glyphName=".ttfautohint" x="44" y="0" flags="0x0"/>
      <component glyphName="O" x="0" y="0" flags="0x0"/>
      <component glyphName="circumflex" x="110" y="141" flags="0x4"/>
    </TTGlyph>
    <TTGlyph name="Odieresis" xMin="44" yMin="-8" xMax="375" yMax="843">
      <component glyphName=".ttfautohint" x="44" y="0" flags="0x0"/>
      <component glyphName="O" x="0" y="0" flags="0x0"/>
      <component glyphName="dieresis" x="76" y="113" flags="0x4"/>
    </TTGlyph>
    <TTGlyph name="Ograve" xMin="44" yMin="-8" xMax="375" yMax="890">
      <component glyphName=".ttfautohint" x="44" y="0" flags="0x0"/>
      <component glyphName="O" x="0" y="0" flags="0x0"/>
      <component glyphName="grave" x="142" y="147" flags="0x4"/>
    </TTGlyph>
    <TTGlyph name="Ohorn" xMin="44" yMin="-8" xMax="401" yMax="783">
      <contour>
        <pt x="401" y="783" on="1"/>
        <pt x="401" y="754" on="1"/>
        <pt x="401" y="699" on="0"/>
        <pt x="375" y="657" on="0"/>
        <pt x="336" y="653" on="1"/>
        <pt x="360" y="620" on="0"/>
        <pt x="375" y="484" on="0"/>
        <pt x="375" y="344" on="1"/>
        <pt x="375" y="184" on="0"/>
        <pt x="354" y="45" on="0"/>
        <pt x="287" y="-8" on="0"/>
        <pt x="209" y="-8" on="1"/>
        <pt x="132" y="-8" on="0"/>
        <pt x="64" y="45" on="0"/>
        <pt x="44" y="184" on="0"/>
        <pt x="44" y="344" on="1"/>
        <pt x="44" y="504" on="0"/>
        <pt x="64" y="643" on="0"/>
        <pt x="132" y="696" on="0"/>
        <pt x="209" y="696" on="1"/>
        <pt x="257" y="696" on="0"/>
        <pt x="284" y="688" on="1"/>
        <pt x="314" y="688" on="1"/>
        <pt x="342" y="688" on="0"/>
        <pt x="357" y="712" on="0"/>
        <pt x="357" y="746" on="1"/>
        <pt x="357" y="783" on="1"/>
      </contour>
      <contour>
        <pt x="259" y="48" on="0"/>
        <pt x="299" y="80" on="0"/>
        <pt x="314" y="198" on="0"/>
        <pt x="314" y="344" on="1"/>
        <pt x="314" y="490" on="0"/>
        <pt x="299" y="608" on="0"/>
        <pt x="259" y="640" on="0"/>
        <pt x="209" y="640" on="1"/>
        <pt x="160" y="640" on="0"/>
        <pt x="120" y="608" on="0"/>
        <pt x="105" y="489" on="0"/>
        <pt x="105" y="344" on="1"/>
        <pt x="105" y="199" on="0"/>
        <pt x="120" y="80" on="0"/>
        <pt x="160" y="48" on="0"/>
        <pt x="209" y="48" on="1"/>
      </contour>
    </TTGlyph>
    <TTGlyph name="Ohungarumlaut" xMin="44" yMin="-8" xMax="375" yMax="874">
      <component glyphName=".ttfautohint" x="44" y="0" flags="0x0"/>
      <component glyphName="O" x="0" y="0" flags="0x0"/>
      <component glyphName="uni030B.case" x="348" y="0" flags="0x0"/>
    </TTGlyph>
    <TTGlyph name="Omacron" xMin="44" yMin="-8" xMax="375" yMax="888">
      <component glyphName=".ttfautohint" x="44" y="0" flags="0x0"/>
      <component glyphName="O" x="0" y="0" flags="0x0"/>
      <component glyphName="uni0304.case" x="348" y="0" flags="0x0"/>
    </TTGlyph>
    <TTGlyph name="Oslash" xMin="44" yMin="-55" xMax="375" yMax="743">
      <contour>
        <pt x="341" y="646" on="1"/>
        <pt x="362" y="612" on="0"/>
        <pt x="375" y="479" on="0"/>
        <pt x="375" y="344" on="1"/>
        <pt x="375" y="184" on="0"/>
        <pt x="354" y="45" on="0"/>
        <pt x="287" y="-8" on="0"/>
        <pt x="209" y="-8" on="1"/>
        <pt x="151" y="-8" on="0"/>
        <pt x="119" y="6" on="1"/>
        <pt x="98" y="-55" on="1"/>
        <pt x="44" y="-55" on="1"/>
        <pt x="77" y="42" on="1"/>
        <pt x="57" y="76" on="0"/>
        <pt x="44" y="210" on="0"/>
        <pt x="44" y="344" on="1"/>
        <pt x="44" y="504" on="0"/>
        <pt x="64" y="643" on="0"/>
        <pt x="132" y="696" on="0"/>
        <pt x="209" y="696" on="1"/>
        <pt x="268" y="696" on="0"/>
        <pt x="299" y="682" on="1"/>
        <pt x="320" y="743" on="1"/>
        <pt x="375" y="743" on="1"/>
      </contour>
      <contour>
        <pt x="105" y="276" on="0"/>
        <pt x="107" y="167" on="0"/>
        <pt x="110" y="137" on="1"/>
        <pt x="280" y="628" on="1"/>
        <pt x="270" y="636" on="0"/>
        <pt x="238" y="640" on="0"/>
        <pt x="209" y="640" on="1"/>
        <pt x="160" y="640" on="0"/>
        <pt x="120" y="608" on="0"/>
        <pt x="105" y="489" on="0"/>
        <pt x="105" y="344" on="1"/>
      </contour>
      <contour>
        <pt x="314" y="497" on="0"/>
        <pt x="309" y="552" on="1"/>
        <pt x="138" y="60" on="1"/>
        <pt x="149" y="52" on="0"/>
        <pt x="181" y="48" on="0"/>
        <pt x="209" y="48" on="1"/>
        <pt x="259" y="48" on="0"/>
        <pt x="299" y="80" on="0"/>
        <pt x="314" y="198" on="0"/>
        <pt x="314" y="344" on="1"/>
      </contour>
    </TTGlyph>
    <TTGlyph name="Oslashacute" xMin="44" yMin="-55" xMax="375" yMax="888">
      <component glyphName=".ttfautohint" x="44" y="0" flags="0x0"/>
      <component glyphName="Oslash" x="0" y="0" flags="0x0"/>
      <component glyphName="acutecomb.case" x="269" y="0" flags="0x0"/>
    </TTGlyph>
    <TTGlyph name="Otilde" xMin="44" yMin="-8" xMax="375" yMax="864">
      <component glyphName=".ttfautohint" x="44" y="0" flags="0x0"/>
      <component glyphName="O" x="0" y="0" flags="0x0"/>
      <component glyphName="tilde" x="91" y="121" flags="0x4"/>
    </TTGlyph>
    <TTGlyph name="P" xMin="57" yMin="0" xMax="355" yMax="688">
      <contour>
        <pt x="57" y="688" on="1"/>
        <pt x="214" y="688" on="1"/>
        <pt x="277" y="688" on="0"/>
        <pt x="338" y="634" on="0"/>
        <pt x="355" y="546" on="0"/>
        <pt x="355" y="474" on="1"/>
        <pt x="355" y="404" on="0"/>
        <pt x="337" y="314" on="0"/>
        <pt x="276" y="259" on="0"/>
        <pt x="214" y="259" on="1"/>
        <pt x="118" y="259" on="1"/>
        <pt x="118" y="0" on="1"/>
        <pt x="57" y="0" on="1"/>
      </contour>
      <contour>
        <pt x="208" y="315" on="1"/>
        <pt x="246" y="315" on="0"/>
        <pt x="283" y="349" on="0"/>
        <pt x="294" y="414" on="0"/>
        <pt x="294" y="474" on="1"/>
        <pt x="294" y="534" on="0"/>
        <pt x="283" y="598" on="0"/>
        <pt x="247" y="632" on="0"/>
        <pt x="208" y="632" on="1"/>
        <pt x="118" y="632" on="1"/>
        <pt x="118" y="315" on="1"/>
      </contour>
    </TTGlyph>
    <TTGlyph name="Q" xMin="44" yMin="-115" xMax="392" yMax="696">
      <contour>
        <pt x="392" y="-112" on="1"/>
        <pt x="392" y="-115" on="1"/>
        <pt x="329" y="-115" on="1"/>
        <pt x="274" y="-2" on="1"/>
        <pt x="247" y="-8" on="0"/>
        <pt x="209" y="-8" on="1"/>
        <pt x="132" y="-8" on="0"/>
        <pt x="64" y="45" on="0"/>
        <pt x="44" y="184" on="0"/>
        <pt x="44" y="344" on="1"/>
        <pt x="44" y="504" on="0"/>
        <pt x="64" y="643" on="0"/>
        <pt x="132" y="696" on="0"/>
        <pt x="209" y="696" on="1"/>
        <pt x="287" y="696" on="0"/>
        <pt x="354" y="643" on="0"/>
        <pt x="375" y="504" on="0"/>
        <pt x="375" y="344" on="1"/>
        <pt x="375" y="191" on="0"/>
        <pt x="356" y="53" on="0"/>
        <pt x="325" y="23" on="1"/>
      </contour>
      <contour>
        <pt x="238" y="48" on="0"/>
        <pt x="249" y="50" on="1"/>
        <pt x="167" y="218" on="1"/>
        <pt x="229" y="218" on="1"/>
        <pt x="295" y="85" on="1"/>
        <pt x="306" y="112" on="0"/>
        <pt x="314" y="229" on="0"/>
        <pt x="314" y="344" on="1"/>
        <pt x="314" y="490" on="0"/>
        <pt x="299" y="608" on="0"/>
        <pt x="259" y="640" on="0"/>
        <pt x="209" y="640" on="1"/>
        <pt x="160" y="640" on="0"/>
        <pt x="120" y="608" on="0"/>
        <pt x="105" y="489" on="0"/>
        <pt x="105" y="344" on="1"/>
        <pt x="105" y="199" on="0"/>
        <pt x="120" y="80" on="0"/>
        <pt x="160" y="48" on="0"/>
        <pt x="209" y="48" on="1"/>
      </contour>
    </TTGlyph>
    <TTGlyph name="R" xMin="57" yMin="0" xMax="370" yMax="688">
      <contour>
        <pt x="307" y="0" on="1"/>
        <pt x="233" y="280" on="1"/>
        <pt x="227" y="279" on="0"/>
        <pt x="214" y="279" on="1"/>
        <pt x="118" y="279" on="1"/>
        <pt x="118" y="0" on="1"/>
        <pt x="57" y="0" on="1"/>
        <pt x="57" y="688" on="1"/>
        <pt x="218" y="688" on="1"/>
        <pt x="281" y="688" on="0"/>
        <pt x="342" y="637" on="0"/>
        <pt x="359" y="553" on="0"/>
        <pt x="359" y="484" on="1"/>
        <pt x="359" y="405" on="0"/>
        <pt x="333" y="313" on="0"/>
        <pt x="289" y="294" on="1"/>
        <pt x="370" y="0" on="1"/>
      </contour>
      <contour>
        <pt x="250" y="334" on="0"/>
        <pt x="287" y="366" on="0"/>
        <pt x="298" y="427" on="0"/>
        <pt x="298" y="483" on="1"/>
        <pt x="298" y="540" on="0"/>
        <pt x="287" y="600" on="0"/>
        <pt x="251" y="632" on="0"/>
        <pt x="212" y="632" on="1"/>
        <pt x="118" y="632" on="1"/>
        <pt x="118" y="334" on="1"/>
        <pt x="212" y="334" on="1"/>
      </contour>
    </TTGlyph>
    <TTGlyph name="R.ss01" xMin="57" yMin="0" xMax="362" yMax="688">
      <contour>
        <pt x="362" y="0" on="1"/>
        <pt x="302" y="0" on="1"/>
        <pt x="294" y="154" on="1"/>
        <pt x="292" y="200" on="0"/>
        <pt x="282" y="251" on="0"/>
        <pt x="246" y="284" on="0"/>
        <pt x="209" y="284" on="1"/>
        <pt x="118" y="284" on="1"/>
        <pt x="118" y="0" on="1"/>
        <pt x="57" y="0" on="1"/>
        <pt x="57" y="688" on="1"/>
        <pt x="220" y="688" on="1"/>
        <pt x="299" y="688" on="0"/>
        <pt x="359" y="599" on="0"/>
        <pt x="359" y="502" on="1"/>
        <pt x="359" y="413" on="0"/>
        <pt x="321" y="333" on="0"/>
        <pt x="279" y="320" on="1"/>
        <pt x="279" y="316" on="1"/>
        <pt x="305" y="307" on="0"/>
        <pt x="335" y="280" on="0"/>
        <pt x="352" y="223" on="0"/>
        <pt x="353" y="172" on="1"/>
      </contour>
      <contour>
        <pt x="265" y="339" on="0"/>
        <pt x="298" y="408" on="0"/>
        <pt x="298" y="485" on="1"/>
        <pt x="298" y="540" on="0"/>
        <pt x="288" y="600" on="0"/>
        <pt x="252" y="632" on="0"/>
        <pt x="213" y="632" on="1"/>
        <pt x="118" y="632" on="1"/>
        <pt x="118" y="339" on="1"/>
        <pt x="213" y="339" on="1"/>
      </contour>
    </TTGlyph>
    <TTGlyph name="Racute" xMin="57" yMin="0" xMax="370" yMax="888">
      <component glyphName=".ttfautohint" x="57" y="0" flags="0x0"/>
      <component glyphName="R" x="0" y="0" flags="0x0"/>
      <component glyphName="acutecomb.case" x="273" y="0" flags="0x0"/>
    </TTGlyph>
    <TTGlyph name="Racute.ss01" xMin="57" yMin="0" xMax="362" yMax="888">
      <component glyphName=".ttfautohint" x="57" y="0" flags="0x0"/>
      <component glyphName="R.ss01" x="0" y="0" flags="0x0"/>
      <component glyphName="acutecomb.case" x="273" y="0" flags="0x0"/>
    </TTGlyph>
    <TTGlyph name="Rcaron" xMin="57" yMin="0" xMax="370" yMax="888">
      <component glyphName=".ttfautohint" x="57" y="0" flags="0x0"/>
      <component glyphName="R" x="0" y="0" flags="0x0"/>
      <component glyphName="uni030C.case" x="301" y="0" flags="0x0"/>
    </TTGlyph>
    <TTGlyph name="Rcaron.ss01" xMin="57" yMin="0" xMax="362" yMax="888">
      <component glyphName=".ttfautohint" x="57" y="0" flags="0x0"/>
      <component glyphName="R.ss01" x="0" y="0" flags="0x0"/>
      <component glyphName="uni030C.case" x="301" y="0" flags="0x0"/>
    </TTGlyph>
    <TTGlyph name="Rcommaaccent" xMin="57" yMin="-239" xMax="370" yMax="688">
      <component glyphName=".ttfautohint" x="57" y="0" flags="0x0"/>
      <component glyphName="R" x="0" y="0" flags="0x0"/>
      <component glyphName="uni0326" x="282" y="0" flags="0x0"/>
    </TTGlyph>
    <TTGlyph name="Rcommaaccent.ss01" xMin="57" yMin="-239" xMax="362" yMax="688">
      <component glyphName=".ttfautohint" x="57" y="0" flags="0x0"/>
      <component glyphName="R.ss01" x="0" y="0" flags="0x0"/>
      <component glyphName="uni0326" x="282" y="0" flags="0x0"/>
    </TTGlyph>
    <TTGlyph name="S" xMin="31" yMin="-8" xMax="323" yMax="696">
      <contour>
        <pt x="143" y="-8" on="0"/>
        <pt x="68" y="0" on="0"/>
        <pt x="42" y="6" on="1"/>
        <pt x="42" y="59" on="1"/>
        <pt x="108" y="48" on="0"/>
        <pt x="156" y="48" on="1"/>
        <pt x="188" y="48" on="0"/>
        <pt x="226" y="59" on="0"/>
        <pt x="240" y="73" on="1"/>
        <pt x="253" y="86" on="0"/>
        <pt x="262" y="140" on="0"/>
        <pt x="262" y="186" on="1"/>
        <pt x="262" y="248" on="0"/>
        <pt x="255" y="295" on="0"/>
        <pt x="229" y="314" on="0"/>
        <pt x="194" y="321" on="1"/>
        <pt x="97" y="341" on="1"/>
        <pt x="67" y="347" on="0"/>
        <pt x="39" y="388" on="0"/>
        <pt x="31" y="451" on="0"/>
        <pt x="31" y="508" on="1"/>
        <pt x="31" y="608" on="0"/>
        <pt x="100" y="696" on="0"/>
        <pt x="184" y="696" on="1"/>
        <pt x="222" y="696" on="0"/>
        <pt x="289" y="687" on="0"/>
        <pt x="302" y="682" on="1"/>
        <pt x="302" y="629" on="1"/>
        <pt x="286" y="634" on="0"/>
        <pt x="228" y="640" on="0"/>
        <pt x="200" y="640" on="1"/>
        <pt x="162" y="640" on="0"/>
        <pt x="119" y="623" on="0"/>
        <pt x="109" y="606" on="1"/>
        <pt x="99" y="589" on="0"/>
        <pt x="92" y="544" on="0"/>
        <pt x="92" y="508" on="1"/>
        <pt x="92" y="459" on="0"/>
        <pt x="99" y="415" on="0"/>
        <pt x="119" y="397" on="0"/>
        <pt x="142" y="393" on="1"/>
        <pt x="227" y="375" on="1"/>
        <pt x="263" y="367" on="0"/>
        <pt x="304" y="340" on="0"/>
        <pt x="315" y="307" on="1"/>
        <pt x="320" y="293" on="0"/>
        <pt x="323" y="243" on="0"/>
        <pt x="323" y="196" on="1"/>
        <pt x="323" y="121" on="0"/>
        <pt x="300" y="35" on="0"/>
        <pt x="236" y="-8" on="0"/>
        <pt x="174" y="-8" on="1"/>
      </contour>
    </TTGlyph>
    <TTGlyph name="Sacute" xMin="31" yMin="-8" xMax="323" yMax="888">
      <component glyphName=".ttfautohint" x="31" y="0" flags="0x0"/>
      <component glyphName="S" x="0" y="0" flags="0x0"/>
      <component glyphName="acutecomb.case" x="248" y="0" flags="0x0"/>
    </TTGlyph>
    <TTGlyph name="Sacute.loclPLK" xMin="31" yMin="-8" xMax="323" yMax="888">
      <component glyphName=".ttfautohint" x="31" y="0" flags="0x0"/>
      <component glyphName="S" x="0" y="0" flags="0x0"/>
      <component glyphName="acute.case.loclPLK" x="156" y="0" flags="0x0"/>
    </TTGlyph>
    <TTGlyph name="Scaron" xMin="31" yMin="-8" xMax="323" yMax="884">
      <component glyphName=".ttfautohint" x="31" y="0" flags="0x0"/>
      <component glyphName="S" x="0" y="0" flags="0x0"/>
      <component glyphName="caron" x="80" y="141" flags="0x4"/>
    </TTGlyph>
    <TTGlyph name="Scedilla" xMin="31" yMin="-189" xMax="323" yMax="696">
      <contour>
        <pt x="323" y="126" on="0"/>
        <pt x="303" y="42" on="0"/>
        <pt x="247" y="-4" on="0"/>
        <pt x="195" y="-7" on="1"/>
        <pt x="155" y="-189" on="1"/>
        <pt x="99" y="-189" on="1"/>
        <pt x="99" y="-184" on="1"/>
        <pt x="152" y="-8" on="1"/>
        <pt x="86" y="-5" on="0"/>
        <pt x="42" y="6" on="1"/>
        <pt x="42" y="59" on="1"/>
        <pt x="108" y="48" on="0"/>
        <pt x="156" y="48" on="1"/>
        <pt x="188" y="48" on="0"/>
        <pt x="226" y="59" on="0"/>
        <pt x="240" y="73" on="1"/>
        <pt x="253" y="86" on="0"/>
        <pt x="262" y="140" on="0"/>
        <pt x="262" y="186" on="1"/>
        <pt x="262" y="248" on="0"/>
        <pt x="255" y="295" on="0"/>
        <pt x="229" y="314" on="0"/>
        <pt x="194" y="321" on="1"/>
        <pt x="97" y="341" on="1"/>
        <pt x="67" y="347" on="0"/>
        <pt x="39" y="388" on="0"/>
        <pt x="31" y="451" on="0"/>
        <pt x="31" y="508" on="1"/>
        <pt x="31" y="608" on="0"/>
        <pt x="100" y="696" on="0"/>
        <pt x="184" y="696" on="1"/>
        <pt x="222" y="696" on="0"/>
        <pt x="289" y="687" on="0"/>
        <pt x="302" y="682" on="1"/>
        <pt x="302" y="629" on="1"/>
        <pt x="286" y="634" on="0"/>
        <pt x="228" y="640" on="0"/>
        <pt x="200" y="640" on="1"/>
        <pt x="162" y="640" on="0"/>
        <pt x="119" y="623" on="0"/>
        <pt x="109" y="606" on="1"/>
        <pt x="99" y="589" on="0"/>
        <pt x="92" y="544" on="0"/>
        <pt x="92" y="508" on="1"/>
        <pt x="92" y="459" on="0"/>
        <pt x="99" y="415" on="0"/>
        <pt x="119" y="397" on="0"/>
        <pt x="142" y="393" on="1"/>
        <pt x="227" y="375" on="1"/>
        <pt x="263" y="367" on="0"/>
        <pt x="304" y="340" on="0"/>
        <pt x="315" y="307" on="1"/>
        <pt x="320" y="293" on="0"/>
        <pt x="323" y="243" on="0"/>
        <pt x="323" y="196" on="1"/>
      </contour>
    </TTGlyph>
    <TTGlyph name="Scircumflex" xMin="31" yMin="-8" xMax="323" yMax="888">
      <component glyphName=".ttfautohint" x="31" y="0" flags="0x0"/>
      <component glyphName="S" x="0" y="0" flags="0x0"/>
      <component glyphName="uni0302.case" x="276" y="0" flags="0x0"/>
    </TTGlyph>
    <TTGlyph name="Scommaaccent" xMin="31" yMin="-239" xMax="323" yMax="696">
      <component glyphName=".ttfautohint" x="31" y="0" flags="0x0"/>
      <component glyphName="S" x="0" y="0" flags="0x0"/>
      <component glyphName="uni0326" x="257" y="0" flags="0x0"/>
    </TTGlyph>
    <TTGlyph name="T" xMin="12" yMin="0" xMax="319" yMax="688">
      <contour>
        <pt x="135" y="631" on="1"/>
        <pt x="12" y="631" on="1"/>
        <pt x="12" y="688" on="1"/>
        <pt x="319" y="688" on="1"/>
        <pt x="319" y="631" on="1"/>
        <pt x="196" y="631" on="1"/>
        <pt x="196" y="0" on="1"/>
        <pt x="135" y="0" on="1"/>
      </contour>
    </TTGlyph>
    <TTGlyph name="Tbar" xMin="12" yMin="0" xMax="319" yMax="688">
      <contour>
        <pt x="196" y="631" on="1"/>
        <pt x="196" y="375" on="1"/>
        <pt x="288" y="375" on="1"/>
        <pt x="288" y="324" on="1"/>
        <pt x="196" y="324" on="1"/>
        <pt x="196" y="0" on="1"/>
        <pt x="135" y="0" on="1"/>
        <pt x="135" y="324" on="1"/>
        <pt x="43" y="324" on="1"/>
        <pt x="43" y="375" on="1"/>
        <pt x="135" y="375" on="1"/>
        <pt x="135" y="631" on="1"/>
        <pt x="12" y="631" on="1"/>
        <pt x="12" y="688" on="1"/>
        <pt x="319" y="688" on="1"/>
        <pt x="319" y="631" on="1"/>
      </contour>
    </TTGlyph>
    <TTGlyph name="Tcaron" xMin="12" yMin="0" xMax="319" yMax="888">
      <component glyphName=".ttfautohint" x="12" y="0" flags="0x0"/>
      <component glyphName="T" x="0" y="0" flags="0x0"/>
      <component glyphName="uni030C.case" x="264" y="0" flags="0x0"/>
    </TTGlyph>
    <TTGlyph name="Thorn" xMin="57" yMin="0" xMax="355" yMax="688">
      <contour>
        <pt x="57" y="688" on="1"/>
        <pt x="118" y="688" on="1"/>
        <pt x="118" y="565" on="1"/>
        <pt x="214" y="565" on="1"/>
        <pt x="277" y="565" on="0"/>
        <pt x="338" y="511" on="0"/>
        <pt x="355" y="423" on="0"/>
        <pt x="355" y="351" on="1"/>
        <pt x="355" y="281" on="0"/>
        <pt x="337" y="191" on="0"/>
        <pt x="276" y="136" on="0"/>
        <pt x="214" y="136" on="1"/>
        <pt x="118" y="136" on="1"/>
        <pt x="118" y="0" on="1"/>
        <pt x="57" y="0" on="1"/>
      </contour>
      <contour>
        <pt x="208" y="192" on="1"/>
        <pt x="246" y="192" on="0"/>
        <pt x="283" y="226" on="0"/>
        <pt x="294" y="291" on="0"/>
        <pt x="294" y="351" on="1"/>
        <pt x="294" y="411" on="0"/>
        <pt x="283" y="475" on="0"/>
        <pt x="247" y="509" on="0"/>
        <pt x="208" y="509" on="1"/>
        <pt x="118" y="509" on="1"/>
        <pt x="118" y="192" on="1"/>
      </contour>
    </TTGlyph>
    <TTGlyph name="U" xMin="53" yMin="-8" xMax="365" yMax="688">
      <contour>
        <pt x="365" y="688" on="1"/>
        <pt x="365" y="296" on="1"/>
        <pt x="365" y="163" on="0"/>
        <pt x="347" y="44" on="0"/>
        <pt x="283" y="-8" on="0"/>
        <pt x="209" y="-8" on="1"/>
        <pt x="135" y="-8" on="0"/>
        <pt x="71" y="44" on="0"/>
        <pt x="53" y="163" on="0"/>
        <pt x="53" y="296" on="1"/>
        <pt x="53" y="688" on="1"/>
        <pt x="113" y="688" on="1"/>
        <pt x="113" y="261" on="1"/>
        <pt x="113" y="164" on="0"/>
        <pt x="124" y="81" on="0"/>
        <pt x="163" y="48" on="0"/>
        <pt x="209" y="48" on="1"/>
        <pt x="255" y="48" on="0"/>
        <pt x="293" y="81" on="0"/>
        <pt x="304" y="163" on="0"/>
        <pt x="304" y="261" on="1"/>
        <pt x="304" y="688" on="1"/>
      </contour>
    </TTGlyph>
    <TTGlyph name="Uacute" xMin="53" yMin="-8" xMax="365" yMax="890">
      <component glyphName=".ttfautohint" x="53" y="0" flags="0x0"/>
      <component glyphName="U" x="0" y="0" flags="0x0"/>
      <component glyphName="acute" x="188" y="147" flags="0x4"/>
    </TTGlyph>
    <TTGlyph name="Ubreve" xMin="53" yMin="-8" xMax="365" yMax="888">
      <component glyphName=".ttfautohint" x="53" y="0" flags="0x0"/>
      <component glyphName="U" x="0" y="0" flags="0x0"/>
      <component glyphName="uni0306.case" x="307" y="0" flags="0x0"/>
    </TTGlyph>
    <TTGlyph name="Ucircumflex" xMin="53" yMin="-8" xMax="365" yMax="884">
      <component glyphName=".ttfautohint" x="53" y="0" flags="0x0"/>
      <component glyphName="U" x="0" y="0" flags="0x0"/>
      <component glyphName="circumflex" x="109" y="141" flags="0x4"/>
    </TTGlyph>
    <TTGlyph name="Udieresis" xMin="53" yMin="-8" xMax="365" yMax="843">
      <component glyphName=".ttfautohint" x="53" y="0" flags="0x0"/>
      <component glyphName="U" x="0" y="0" flags="0x0"/>
      <component glyphName="dieresis" x="76" y="113" flags="0x4"/>
    </TTGlyph>
    <TTGlyph name="Ugrave" xMin="53" yMin="-8" xMax="365" yMax="890">
      <component glyphName=".ttfautohint" x="53" y="0" flags="0x0"/>
      <component glyphName="U" x="0" y="0" flags="0x0"/>
      <component glyphName="grave" x="145" y="147" flags="0x4"/>
    </TTGlyph>
    <TTGlyph name="Uhorn" xMin="53" yMin="-8" xMax="438" yMax="783">
      <contour>
        <pt x="438" y="783" on="1"/>
        <pt x="438" y="754" on="1"/>
        <pt x="438" y="715" on="0"/>
        <pt x="427" y="673" on="0"/>
        <pt x="396" y="654" on="0"/>
        <pt x="365" y="652" on="1"/>
        <pt x="365" y="296" on="1"/>
        <pt x="365" y="163" on="0"/>
        <pt x="347" y="44" on="0"/>
        <pt x="283" y="-8" on="0"/>
        <pt x="209" y="-8" on="1"/>
        <pt x="135" y="-8" on="0"/>
        <pt x="71" y="44" on="0"/>
        <pt x="53" y="163" on="0"/>
        <pt x="53" y="296" on="1"/>
        <pt x="53" y="688" on="1"/>
        <pt x="113" y="688" on="1"/>
        <pt x="113" y="261" on="1"/>
        <pt x="113" y="164" on="0"/>
        <pt x="124" y="81" on="0"/>
        <pt x="163" y="48" on="0"/>
        <pt x="209" y="48" on="1"/>
        <pt x="255" y="48" on="0"/>
        <pt x="293" y="81" on="0"/>
        <pt x="304" y="163" on="0"/>
        <pt x="304" y="261" on="1"/>
        <pt x="304" y="688" on="1"/>
        <pt x="351" y="688" on="1"/>
        <pt x="379" y="688" on="0"/>
        <pt x="394" y="712" on="0"/>
        <pt x="394" y="746" on="1"/>
        <pt x="394" y="783" on="1"/>
      </contour>
    </TTGlyph>
    <TTGlyph name="Uhungarumlaut" xMin="53" yMin="-8" xMax="365" yMax="874">
      <component glyphName=".ttfautohint" x="53" y="0" flags="0x0"/>
      <component glyphName="U" x="0" y="0" flags="0x0"/>
      <component glyphName="uni030B.case" x="348" y="0" flags="0x0"/>
    </TTGlyph>
    <TTGlyph name="Umacron" xMin="53" yMin="-8" xMax="365" yMax="888">
      <component glyphName=".ttfautohint" x="53" y="0" flags="0x0"/>
      <component glyphName="U" x="0" y="0" flags="0x0"/>
      <component glyphName="uni0304.case" x="348" y="0" flags="0x0"/>
    </TTGlyph>
    <TTGlyph name="Uogonek" xMin="53" yMin="-196" xMax="365" yMax="688">
      <contour>
        <pt x="365" y="688" on="1"/>
        <pt x="365" y="296" on="1"/>
        <pt x="365" y="204" on="0"/>
        <pt x="358" y="100" on="0"/>
        <pt x="335" y="32" on="0"/>
        <pt x="311" y="15" on="1"/>
        <pt x="281" y="-6" on="0"/>
        <pt x="242" y="-75" on="0"/>
        <pt x="242" y="-110" on="1"/>
        <pt x="242" y="-154" on="0"/>
        <pt x="286" y="-154" on="1"/>
        <pt x="291" y="-154" on="1"/>
        <pt x="297" y="-154" on="0"/>
        <pt x="301" y="-153" on="1"/>
        <pt x="301" y="-194" on="1"/>
        <pt x="292" y="-196" on="0"/>
        <pt x="273" y="-196" on="1"/>
        <pt x="231" y="-196" on="0"/>
        <pt x="193" y="-154" on="0"/>
        <pt x="193" y="-120" on="1"/>
        <pt x="193" y="-94" on="0"/>
        <pt x="220" y="-34" on="0"/>
        <pt x="243" y="-7" on="1"/>
        <pt x="209" y="-8" on="1"/>
        <pt x="135" y="-8" on="0"/>
        <pt x="71" y="44" on="0"/>
        <pt x="53" y="163" on="0"/>
        <pt x="53" y="296" on="1"/>
        <pt x="53" y="688" on="1"/>
        <pt x="113" y="688" on="1"/>
        <pt x="113" y="261" on="1"/>
        <pt x="113" y="164" on="0"/>
        <pt x="124" y="81" on="0"/>
        <pt x="163" y="48" on="0"/>
        <pt x="209" y="48" on="1"/>
        <pt x="255" y="48" on="0"/>
        <pt x="293" y="81" on="0"/>
        <pt x="304" y="163" on="0"/>
        <pt x="304" y="261" on="1"/>
        <pt x="304" y="688" on="1"/>
      </contour>
    </TTGlyph>
    <TTGlyph name="Uring" xMin="53" yMin="-8" xMax="365" yMax="915">
      <component glyphName=".ttfautohint" x="53" y="0" flags="0x0"/>
      <component glyphName="U" x="0" y="0" flags="0x0"/>
      <component glyphName="uni030A.case" x="298" y="0" flags="0x0"/>
    </TTGlyph>
    <TTGlyph name="Utilde" xMin="53" yMin="-8" xMax="365" yMax="888">
      <component glyphName=".ttfautohint" x="53" y="0" flags="0x0"/>
      <component glyphName="U" x="0" y="0" flags="0x0"/>
      <component glyphName="tildecomb.case" x="327" y="0" flags="0x0"/>
    </TTGlyph>
    <TTGlyph name="V" xMin="6" yMin="0" xMax="360" yMax="688">
      <contour>
        <pt x="6" y="688" on="1"/>
        <pt x="68" y="688" on="1"/>
        <pt x="181" y="88" on="1"/>
        <pt x="188" y="88" on="1"/>
        <pt x="300" y="688" on="1"/>
        <pt x="360" y="688" on="1"/>
        <pt x="224" y="0" on="1"/>
        <pt x="142" y="0" on="1"/>
      </contour>
    </TTGlyph>
    <TTGlyph name="W" xMin="9" yMin="0" xMax="551" yMax="688">
      <contour>
        <pt x="282" y="577" on="1"/>
        <pt x="277" y="577" on="1"/>
        <pt x="187" y="0" on="1"/>
        <pt x="108" y="0" on="1"/>
        <pt x="9" y="688" on="1"/>
        <pt x="71" y="688" on="1"/>
        <pt x="148" y="94" on="1"/>
        <pt x="154" y="94" on="1"/>
        <pt x="244" y="688" on="1"/>
        <pt x="318" y="688" on="1"/>
        <pt x="409" y="94" on="1"/>
        <pt x="415" y="94" on="1"/>
        <pt x="491" y="688" on="1"/>
        <pt x="551" y="688" on="1"/>
        <pt x="452" y="0" on="1"/>
        <pt x="373" y="0" on="1"/>
      </contour>
    </TTGlyph>
    <TTGlyph name="Wacute" xMin="9" yMin="0" xMax="551" yMax="888">
      <component glyphName=".ttfautohint" x="9" y="0" flags="0x0"/>
      <component glyphName="W" x="0" y="0" flags="0x0"/>
      <component glyphName="acutecomb.case" x="352" y="0" flags="0x0"/>
    </TTGlyph>
    <TTGlyph name="Wcircumflex" xMin="9" yMin="0" xMax="551" yMax="888">
      <component glyphName=".ttfautohint" x="9" y="0" flags="0x0"/>
      <component glyphName="W" x="0" y="0" flags="0x0"/>
      <component glyphName="uni0302.case" x="380" y="0" flags="0x0"/>
    </TTGlyph>
    <TTGlyph name="Wdieresis" xMin="9" yMin="0" xMax="551" yMax="875">
      <component glyphName=".ttfautohint" x="9" y="0" flags="0x0"/>
      <component glyphName="W" x="0" y="0" flags="0x0"/>
      <component glyphName="uni0308.case" x="413" y="0" flags="0x0"/>
    </TTGlyph>
    <TTGlyph name="Wgrave" xMin="9" yMin="0" xMax="551" yMax="888">
      <component glyphName=".ttfautohint" x="9" y="0" flags="0x0"/>
      <component glyphName="W" x="0" y="0" flags="0x0"/>
      <component glyphName="gravecomb.case" x="304" y="0" flags="0x0"/>
    </TTGlyph>
    <TTGlyph name="X" xMin="13" yMin="0" xMax="376" yMax="688">
      <contour>
        <pt x="196" y="294" on="1"/>
        <pt x="191" y="294" on="1"/>
        <pt x="75" y="0" on="1"/>
        <pt x="13" y="0" on="1"/>
        <pt x="152" y="346" on="1"/>
        <pt x="15" y="688" on="1"/>
        <pt x="79" y="688" on="1"/>
        <pt x="193" y="399" on="1"/>
        <pt x="198" y="399" on="1"/>
        <pt x="312" y="688" on="1"/>
        <pt x="374" y="688" on="1"/>
        <pt x="237" y="348" on="1"/>
        <pt x="376" y="0" on="1"/>
        <pt x="312" y="0" on="1"/>
      </contour>
    </TTGlyph>
    <TTGlyph name="Y" xMin="-1" yMin="0" xMax="345" yMax="688">
      <contour>
        <pt x="141" y="271" on="1"/>
        <pt x="-1" y="688" on="1"/>
        <pt x="62" y="688" on="1"/>
        <pt x="171" y="347" on="1"/>
        <pt x="177" y="347" on="1"/>
        <pt x="285" y="688" on="1"/>
        <pt x="345" y="688" on="1"/>
        <pt x="202" y="271" on="1"/>
        <pt x="202" y="0" on="1"/>
        <pt x="141" y="0" on="1"/>
      </contour>
    </TTGlyph>
    <TTGlyph name="Y.loclGUA" xMin="16" yMin="0" xMax="329" yMax="688">
      <contour>
        <pt x="329" y="688" on="1"/>
        <pt x="329" y="505" on="1"/>
        <pt x="329" y="381" on="0"/>
        <pt x="314" y="263" on="0"/>
        <pt x="261" y="206" on="0"/>
        <pt x="202" y="201" on="1"/>
        <pt x="202" y="0" on="1"/>
        <pt x="141" y="0" on="1"/>
        <pt x="141" y="201" on="1"/>
        <pt x="83" y="206" on="0"/>
        <pt x="31" y="264" on="0"/>
        <pt x="16" y="381" on="0"/>
        <pt x="16" y="505" on="1"/>
        <pt x="16" y="688" on="1"/>
        <pt x="77" y="688" on="1"/>
        <pt x="77" y="470" on="1"/>
        <pt x="77" y="372" on="0"/>
        <pt x="88" y="289" on="0"/>
        <pt x="126" y="256" on="0"/>
        <pt x="172" y="256" on="1"/>
        <pt x="218" y="256" on="0"/>
        <pt x="257" y="289" on="0"/>
        <pt x="268" y="373" on="0"/>
        <pt x="268" y="470" on="1"/>
        <pt x="268" y="688" on="1"/>
      </contour>
    </TTGlyph>
    <TTGlyph name="Yacute" xMin="-1" yMin="0" xMax="345" yMax="890">
      <component glyphName=".ttfautohint" x="0" y="0" flags="0x0"/>
      <component glyphName="Y" x="0" y="0" flags="0x0"/>
      <component glyphName="acute" x="153" y="147" flags="0x4"/>
    </TTGlyph>
    <TTGlyph name="Yacute.loclGUA" xMin="16" yMin="0" xMax="329" yMax="888">
      <component glyphName=".ttfautohint" x="16" y="0" flags="0x0"/>
      <component glyphName="Y.loclGUA" x="0" y="0" flags="0x0"/>
      <component glyphName="acutecomb.case" x="243" y="0" flags="0x0"/>
    </TTGlyph>
    <TTGlyph name="Ycircumflex" xMin="-1" yMin="0" xMax="345" yMax="888">
      <component glyphName=".ttfautohint" x="0" y="0" flags="0x0"/>
      <component glyphName="Y" x="0" y="0" flags="0x0"/>
      <component glyphName="uni0302.case" x="272" y="0" flags="0x0"/>
    </TTGlyph>
    <TTGlyph name="Ycircumflex.loclGUA" xMin="16" yMin="0" xMax="329" yMax="888">
      <component glyphName=".ttfautohint" x="16" y="0" flags="0x0"/>
      <component glyphName="Y.loclGUA" x="0" y="0" flags="0x0"/>
      <component glyphName="uni0302.case" x="271" y="0" flags="0x0"/>
    </TTGlyph>
    <TTGlyph name="Ydieresis" xMin="-1" yMin="0" xMax="345" yMax="843">
      <component glyphName=".ttfautohint" x="0" y="0" flags="0x0"/>
      <component glyphName="Y" x="0" y="0" flags="0x0"/>
      <component glyphName="dieresis" x="41" y="113" flags="0x4"/>
    </TTGlyph>
    <TTGlyph name="Ydieresis.loclGUA" xMin="16" yMin="0" xMax="329" yMax="875">
      <component glyphName=".ttfautohint" x="16" y="0" flags="0x0"/>
      <component glyphName="Y.loclGUA" x="0" y="0" flags="0x0"/>
      <component glyphName="uni0308.case" x="305" y="0" flags="0x0"/>
    </TTGlyph>
    <TTGlyph name="Ygrave" xMin="-1" yMin="0" xMax="345" yMax="888">
      <component glyphName=".ttfautohint" x="0" y="0" flags="0x0"/>
      <component glyphName="Y" x="0" y="0" flags="0x0"/>
      <component glyphName="gravecomb.case" x="195" y="0" flags="0x0"/>
    </TTGlyph>
    <TTGlyph name="Ygrave.loclGUA" xMin="16" yMin="0" xMax="329" yMax="888">
      <component glyphName=".ttfautohint" x="16" y="0" flags="0x0"/>
      <component glyphName="Y.loclGUA" x="0" y="0" flags="0x0"/>
      <component glyphName="gravecomb.case" x="195" y="0" flags="0x0"/>
    </TTGlyph>
    <TTGlyph name="Z" xMin="21" yMin="0" xMax="313" yMax="688">
      <contour>
        <pt x="21" y="53" on="1"/>
        <pt x="245" y="632" on="1"/>
        <pt x="27" y="632" on="1"/>
        <pt x="27" y="688" on="1"/>
        <pt x="310" y="688" on="1"/>
        <pt x="310" y="636" on="1"/>
        <pt x="86" y="56" on="1"/>
        <pt x="313" y="56" on="1"/>
        <pt x="313" y="0" on="1"/>
        <pt x="21" y="0" on="1"/>
      </contour>
    </TTGlyph>
    <TTGlyph name="Zacute" xMin="21" yMin="0" xMax="313" yMax="888">
      <component glyphName=".ttfautohint" x="21" y="0" flags="0x0"/>
      <component glyphName="Z" x="0" y="0" flags="0x0"/>
      <component glyphName="acutecomb.case" x="238" y="0" flags="0x0"/>
    </TTGlyph>
    <TTGlyph name="Zacute.loclPLK" xMin="21" yMin="0" xMax="313" yMax="888">
      <component glyphName=".ttfautohint" x="21" y="0" flags="0x0"/>
      <component glyphName="Z" x="0" y="0" flags="0x0"/>
      <component glyphName="acute.case.loclPLK" x="146" y="0" flags="0x0"/>
    </TTGlyph>
    <TTGlyph name="Zcaron" xMin="21" yMin="0" xMax="313" yMax="885">
      <component glyphName=".ttfautohint" x="21" y="0" flags="0x0"/>
      <component glyphName="Z" x="0" y="0" flags="0x0"/>
      <component glyphName="caron" x="74" y="142" flags="0x4"/>
    </TTGlyph>
    <TTGlyph name="Zdotaccent" xMin="21" yMin="0" xMax="313" yMax="875">
      <component glyphName=".ttfautohint" x="21" y="0" flags="0x0"/>
      <component glyphName="Z" x="0" y="0" flags="0x0"/>
      <component glyphName="uni0307.case" x="211" y="0" flags="0x0"/>
    </TTGlyph>
    <TTGlyph name="a" xMin="26" yMin="-8" xMax="308" yMax="518">
      <contour>
        <pt x="100" y="-8" on="0"/>
        <pt x="50" y="18" on="0"/>
        <pt x="26" y="82" on="0"/>
        <pt x="26" y="141" on="1"/>
        <pt x="26" y="198" on="0"/>
        <pt x="46" y="261" on="0"/>
        <pt x="95" y="288" on="0"/>
        <pt x="139" y="288" on="1"/>
        <pt x="172" y="288" on="0"/>
        <pt x="250" y="283" on="1"/>
        <pt x="250" y="325" on="1"/>
        <pt x="250" y="391" on="0"/>
        <pt x="236" y="448" on="0"/>
        <pt x="197" y="467" on="0"/>
        <pt x="151" y="467" on="1"/>
        <pt x="124" y="467" on="0"/>
        <pt x="61" y="460" on="0"/>
        <pt x="47" y="456" on="1"/>
        <pt x="47" y="506" on="1"/>
        <pt x="107" y="518" on="0"/>
        <pt x="167" y="518" on="1"/>
        <pt x="224" y="518" on="0"/>
        <pt x="284" y="485" on="0"/>
        <pt x="308" y="404" on="0"/>
        <pt x="308" y="326" on="1"/>
        <pt x="308" y="0" on="1"/>
        <pt x="257" y="0" on="1"/>
        <pt x="253" y="71" on="1"/>
        <pt x="248" y="71" on="1"/>
        <pt x="239" y="25" on="0"/>
        <pt x="182" y="-8" on="0"/>
        <pt x="144" y="-8" on="1"/>
      </contour>
      <contour>
        <pt x="189" y="45" on="0"/>
        <pt x="230" y="63" on="0"/>
        <pt x="239" y="95" on="1"/>
        <pt x="250" y="137" on="0"/>
        <pt x="250" y="205" on="1"/>
        <pt x="250" y="243" on="1"/>
        <pt x="153" y="243" on="1"/>
        <pt x="123" y="243" on="0"/>
        <pt x="94" y="228" on="0"/>
        <pt x="82" y="187" on="0"/>
        <pt x="82" y="143" on="1"/>
        <pt x="82" y="102" on="0"/>
        <pt x="94" y="61" on="0"/>
        <pt x="125" y="45" on="0"/>
        <pt x="156" y="45" on="1"/>
      </contour>
    </TTGlyph>
    <TTGlyph name="aacute" xMin="26" yMin="-8" xMax="308" yMax="743">
      <component glyphName=".ttfautohint" x="26" y="0" flags="0x0"/>
      <component glyphName="a" x="0" y="0" flags="0x0"/>
      <component glyphName="acute" x="153" y="0" flags="0x0"/>
    </TTGlyph>
    <TTGlyph name="abreve" xMin="26" yMin="-8" xMax="308" yMax="743">
      <component glyphName=".ttfautohint" x="26" y="0" flags="0x0"/>
      <component glyphName="a" x="0" y="0" flags="0x0"/>
      <component glyphName="uni0306" x="276" y="0" flags="0x0"/>
    </TTGlyph>
    <TTGlyph name="acircumflex" xMin="26" yMin="-8" xMax="308" yMax="743">
      <component glyphName=".ttfautohint" x="26" y="0" flags="0x0"/>
      <component glyphName="a" x="0" y="0" flags="0x0"/>
      <component glyphName="circumflex" x="81" y="0" flags="0x0"/>
    </TTGlyph>
    <TTGlyph name="acute" xMin="0" yMin="603" xMax="92" yMax="743">
      <contour>
        <pt x="0" y="608" on="1"/>
        <pt x="32" y="743" on="1"/>
        <pt x="92" y="743" on="1"/>
        <pt x="92" y="738" on="1"/>
        <pt x="43" y="603" on="1"/>
        <pt x="0" y="603" on="1"/>
      </contour>
    </TTGlyph>
    <TTGlyph name="acute.case.loclPLK" xMin="0" yMin="748" xMax="73" yMax="888">
      <contour>
        <pt x="0" y="753" on="1"/>
        <pt x="12" y="888" on="1"/>
        <pt x="73" y="888" on="1"/>
        <pt x="73" y="883" on="1"/>
        <pt x="43" y="748" on="1"/>
        <pt x="0" y="748" on="1"/>
      </contour>
    </TTGlyph>
    <TTGlyph name="acute.loclPLK" xMin="0" yMin="603" xMax="73" yMax="743">
      <contour>
        <pt x="0" y="608" on="1"/>
        <pt x="12" y="743" on="1"/>
        <pt x="73" y="743" on="1"/>
        <pt x="73" y="738" on="1"/>
        <pt x="43" y="603" on="1"/>
        <pt x="0" y="603" on="1"/>
      </contour>
    </TTGlyph>
    <TTGlyph name="acutecomb" xMin="-92" yMin="603" xMax="0" yMax="743">
      <contour>
        <pt x="-92" y="608" on="1"/>
        <pt x="-60" y="743" on="1"/>
        <pt x="0" y="743" on="1"/>
        <pt x="0" y="738" on="1"/>
        <pt x="-49" y="603" on="1"/>
        <pt x="-92" y="603" on="1"/>
      </contour>
    </TTGlyph>
    <TTGlyph name="acutecomb.case" xMin="-92" yMin="748" xMax="0" yMax="888">
      <contour>
        <pt x="-92" y="753" on="1"/>
        <pt x="-60" y="888" on="1"/>
        <pt x="0" y="888" on="1"/>
        <pt x="0" y="883" on="1"/>
        <pt x="-49" y="748" on="1"/>
        <pt x="-92" y="748" on="1"/>
      </contour>
    </TTGlyph>
    <TTGlyph name="adieresis" xMin="26" yMin="-8" xMax="308" yMax="731">
      <component glyphName=".ttfautohint" x="26" y="0" flags="0x0"/>
      <component glyphName="a" x="0" y="0" flags="0x0"/>
      <component glyphName="dieresis" x="47" y="1" flags="0x4"/>
    </TTGlyph>
    <TTGlyph name="ae" xMin="26" yMin="-8" xMax="534" yMax="518">
      <contour>
        <pt x="534" y="240" on="1"/>
        <pt x="308" y="240" on="1"/>
        <pt x="308" y="152" on="0"/>
        <pt x="321" y="74" on="0"/>
        <pt x="364" y="43" on="0"/>
        <pt x="412" y="43" on="1"/>
        <pt x="436" y="43" on="0"/>
        <pt x="501" y="49" on="0"/>
        <pt x="523" y="54" on="1"/>
        <pt x="523" y="5" on="1"/>
        <pt x="502" y="0" on="0"/>
        <pt x="433" y="-8" on="0"/>
        <pt x="402" y="-8" on="1"/>
        <pt x="348" y="-8" on="0"/>
        <pt x="289" y="27" on="0"/>
        <pt x="274" y="70" on="1"/>
        <pt x="258" y="23" on="0"/>
        <pt x="195" y="-8" on="0"/>
        <pt x="150" y="-8" on="1"/>
        <pt x="104" y="-8" on="0"/>
        <pt x="51" y="18" on="0"/>
        <pt x="26" y="82" on="0"/>
        <pt x="26" y="141" on="1"/>
        <pt x="26" y="197" on="0"/>
        <pt x="46" y="258" on="0"/>
        <pt x="95" y="285" on="0"/>
        <pt x="139" y="285" on="1"/>
        <pt x="214" y="285" on="0"/>
        <pt x="250" y="284" on="1"/>
        <pt x="250" y="325" on="1"/>
        <pt x="250" y="391" on="0"/>
        <pt x="236" y="448" on="0"/>
        <pt x="197" y="467" on="0"/>
        <pt x="151" y="467" on="1"/>
        <pt x="106" y="467" on="0"/>
        <pt x="47" y="456" on="1"/>
        <pt x="47" y="506" on="1"/>
        <pt x="105" y="518" on="0"/>
        <pt x="167" y="518" on="1"/>
        <pt x="214" y="518" on="0"/>
        <pt x="267" y="492" on="0"/>
        <pt x="281" y="460" on="1"/>
        <pt x="295" y="491" on="0"/>
        <pt x="351" y="518" on="0"/>
        <pt x="399" y="518" on="1"/>
        <pt x="463" y="518" on="0"/>
        <pt x="519" y="472" on="0"/>
        <pt x="534" y="371" on="0"/>
        <pt x="534" y="259" on="1"/>
      </contour>
      <contour>
        <pt x="356" y="467" on="0"/>
        <pt x="320" y="442" on="0"/>
        <pt x="308" y="370" on="0"/>
        <pt x="308" y="285" on="1"/>
        <pt x="478" y="285" on="1"/>
        <pt x="478" y="299" on="1"/>
        <pt x="478" y="376" on="0"/>
        <pt x="465" y="446" on="0"/>
        <pt x="433" y="467" on="0"/>
        <pt x="398" y="467" on="1"/>
      </contour>
      <contour>
        <pt x="250" y="240" on="1"/>
        <pt x="153" y="240" on="1"/>
        <pt x="123" y="240" on="0"/>
        <pt x="95" y="226" on="0"/>
        <pt x="83" y="186" on="0"/>
        <pt x="83" y="143" on="1"/>
        <pt x="83" y="101" on="0"/>
        <pt x="95" y="60" on="0"/>
        <pt x="125" y="43" on="0"/>
        <pt x="156" y="43" on="1"/>
        <pt x="189" y="43" on="0"/>
        <pt x="231" y="63" on="0"/>
        <pt x="240" y="97" on="1"/>
        <pt x="250" y="137" on="0"/>
        <pt x="250" y="204" on="1"/>
      </contour>
    </TTGlyph>
    <TTGlyph name="aeacute" xMin="26" yMin="-8" xMax="534" yMax="743">
      <component glyphName=".ttfautohint" x="26" y="0" flags="0x0"/>
      <component glyphName="ae" x="0" y="0" flags="0x0"/>
      <component glyphName="acutecomb" x="355" y="0" flags="0x0"/>
    </TTGlyph>
    <TTGlyph name="agrave" xMin="26" yMin="-8" xMax="308" yMax="743">
      <component glyphName=".ttfautohint" x="26" y="0" flags="0x0"/>
      <component glyphName="a" x="0" y="0" flags="0x0"/>
      <component glyphName="grave" x="110" y="0" flags="0x0"/>
    </TTGlyph>
    <TTGlyph name="amacron" xMin="26" yMin="-8" xMax="308" yMax="743">
      <component glyphName=".ttfautohint" x="26" y="0" flags="0x0"/>
      <component glyphName="a" x="0" y="0" flags="0x0"/>
      <component glyphName="uni0304" x="318" y="0" flags="0x0"/>
    </TTGlyph>
    <TTGlyph name="ampersand" xMin="41" yMin="-8" xMax="416" yMax="696">
      <contour>
        <pt x="416" y="375" on="1"/>
        <pt x="416" y="322" on="1"/>
        <pt x="347" y="322" on="1"/>
        <pt x="347" y="8" on="1"/>
        <pt x="320" y="1" on="0"/>
        <pt x="245" y="-8" on="0"/>
        <pt x="215" y="-8" on="1"/>
        <pt x="145" y="-8" on="0"/>
        <pt x="69" y="33" on="0"/>
        <pt x="41" y="114" on="0"/>
        <pt x="41" y="183" on="1"/>
        <pt x="41" y="263" on="0"/>
        <pt x="80" y="334" on="0"/>
        <pt x="122" y="349" on="1"/>
        <pt x="122" y="353" on="1"/>
        <pt x="83" y="367" on="0"/>
        <pt x="45" y="443" on="0"/>
        <pt x="45" y="516" on="1"/>
        <pt x="45" y="579" on="0"/>
        <pt x="76" y="657" on="0"/>
        <pt x="151" y="696" on="0"/>
        <pt x="217" y="696" on="1"/>
        <pt x="245" y="696" on="0"/>
        <pt x="318" y="687" on="0"/>
        <pt x="345" y="680" on="1"/>
        <pt x="345" y="631" on="1"/>
        <pt x="320" y="637" on="0"/>
        <pt x="259" y="644" on="0"/>
        <pt x="237" y="644" on="1"/>
        <pt x="178" y="644" on="0"/>
        <pt x="122" y="619" on="0"/>
        <pt x="104" y="563" on="0"/>
        <pt x="104" y="508" on="1"/>
        <pt x="104" y="447" on="0"/>
        <pt x="134" y="375" on="0"/>
        <pt x="185" y="375" on="1"/>
        <pt x="235" y="375" on="1"/>
        <pt x="235" y="322" on="1"/>
        <pt x="185" y="322" on="1"/>
        <pt x="148" y="322" on="0"/>
        <pt x="111" y="291" on="0"/>
        <pt x="99" y="233" on="0"/>
        <pt x="99" y="182" on="1"/>
        <pt x="99" y="123" on="0"/>
        <pt x="124" y="64" on="0"/>
        <pt x="175" y="44" on="0"/>
        <pt x="222" y="44" on="1"/>
        <pt x="263" y="44" on="0"/>
        <pt x="289" y="50" on="1"/>
        <pt x="289" y="375" on="1"/>
      </contour>
    </TTGlyph>
    <TTGlyph name="aogonek" xMin="26" yMin="-196" xMax="311" yMax="518">
      <contour>
        <pt x="302" y="-154" on="1"/>
        <pt x="307" y="-154" on="0"/>
        <pt x="311" y="-153" on="1"/>
        <pt x="311" y="-194" on="1"/>
        <pt x="302" y="-196" on="0"/>
        <pt x="283" y="-196" on="1"/>
        <pt x="242" y="-196" on="0"/>
        <pt x="203" y="-154" on="0"/>
        <pt x="203" y="-122" on="1"/>
        <pt x="203" y="-91" on="0"/>
        <pt x="235" y="-27" on="0"/>
        <pt x="262" y="0" on="1"/>
        <pt x="257" y="0" on="1"/>
        <pt x="253" y="71" on="1"/>
        <pt x="248" y="71" on="1"/>
        <pt x="239" y="25" on="0"/>
        <pt x="182" y="-8" on="0"/>
        <pt x="144" y="-8" on="1"/>
        <pt x="100" y="-8" on="0"/>
        <pt x="50" y="18" on="0"/>
        <pt x="26" y="82" on="0"/>
        <pt x="26" y="141" on="1"/>
        <pt x="26" y="198" on="0"/>
        <pt x="46" y="261" on="0"/>
        <pt x="95" y="288" on="0"/>
        <pt x="139" y="288" on="1"/>
        <pt x="172" y="288" on="0"/>
        <pt x="250" y="283" on="1"/>
        <pt x="250" y="325" on="1"/>
        <pt x="250" y="391" on="0"/>
        <pt x="236" y="448" on="0"/>
        <pt x="197" y="467" on="0"/>
        <pt x="151" y="467" on="1"/>
        <pt x="125" y="467" on="0"/>
        <pt x="62" y="460" on="0"/>
        <pt x="47" y="456" on="1"/>
        <pt x="47" y="506" on="1"/>
        <pt x="107" y="518" on="0"/>
        <pt x="167" y="518" on="1"/>
        <pt x="224" y="518" on="0"/>
        <pt x="284" y="485" on="0"/>
        <pt x="308" y="404" on="0"/>
        <pt x="308" y="326" on="1"/>
        <pt x="308" y="0" on="1"/>
        <pt x="288" y="-18" on="0"/>
        <pt x="252" y="-83" on="0"/>
        <pt x="252" y="-112" on="1"/>
        <pt x="252" y="-154" on="0"/>
        <pt x="296" y="-154" on="1"/>
      </contour>
      <contour>
        <pt x="250" y="243" on="1"/>
        <pt x="153" y="243" on="1"/>
        <pt x="123" y="243" on="0"/>
        <pt x="94" y="228" on="0"/>
        <pt x="82" y="187" on="0"/>
        <pt x="82" y="143" on="1"/>
        <pt x="82" y="102" on="0"/>
        <pt x="94" y="61" on="0"/>
        <pt x="125" y="45" on="0"/>
        <pt x="156" y="45" on="1"/>
        <pt x="189" y="45" on="0"/>
        <pt x="230" y="63" on="0"/>
        <pt x="239" y="95" on="1"/>
        <pt x="250" y="137" on="0"/>
        <pt x="250" y="205" on="1"/>
      </contour>
    </TTGlyph>
    <TTGlyph name="approxequal" xMin="58" yMin="112" xMax="355" yMax="394">
      <contour>
        <pt x="58" y="319" on="0"/>
        <pt x="67" y="362" on="0"/>
        <pt x="96" y="383" on="0"/>
        <pt x="125" y="383" on="1"/>
        <pt x="145" y="383" on="0"/>
        <pt x="184" y="371" on="0"/>
        <pt x="216" y="358" on="1"/>
        <pt x="223" y="355" on="0"/>
        <pt x="267" y="339" on="0"/>
        <pt x="284" y="339" on="1"/>
        <pt x="303" y="339" on="0"/>
        <pt x="315" y="363" on="0"/>
        <pt x="315" y="394" on="1"/>
        <pt x="355" y="394" on="1"/>
        <pt x="355" y="354" on="0"/>
        <pt x="345" y="311" on="0"/>
        <pt x="316" y="290" on="0"/>
        <pt x="287" y="290" on="1"/>
        <pt x="255" y="290" on="0"/>
        <pt x="197" y="315" on="1"/>
        <pt x="192" y="317" on="0"/>
        <pt x="163" y="329" on="0"/>
        <pt x="138" y="335" on="0"/>
        <pt x="128" y="335" on="1"/>
        <pt x="109" y="335" on="0"/>
        <pt x="97" y="311" on="0"/>
        <pt x="97" y="279" on="1"/>
        <pt x="58" y="279" on="1"/>
      </contour>
      <contour>
        <pt x="58" y="152" on="0"/>
        <pt x="67" y="195" on="0"/>
        <pt x="96" y="216" on="0"/>
        <pt x="125" y="216" on="1"/>
        <pt x="142" y="216" on="0"/>
        <pt x="176" y="206" on="0"/>
        <pt x="209" y="194" on="0"/>
        <pt x="216" y="191" on="1"/>
        <pt x="225" y="188" on="0"/>
        <pt x="268" y="171" on="0"/>
        <pt x="284" y="171" on="1"/>
        <pt x="303" y="171" on="0"/>
        <pt x="315" y="196" on="0"/>
        <pt x="315" y="227" on="1"/>
        <pt x="355" y="227" on="1"/>
        <pt x="355" y="187" on="0"/>
        <pt x="345" y="144" on="0"/>
        <pt x="316" y="123" on="0"/>
        <pt x="287" y="123" on="1"/>
        <pt x="255" y="123" on="0"/>
        <pt x="197" y="148" on="1"/>
        <pt x="172" y="158" on="0"/>
        <pt x="142" y="167" on="0"/>
        <pt x="128" y="167" on="1"/>
        <pt x="109" y="167" on="0"/>
        <pt x="97" y="143" on="0"/>
        <pt x="97" y="112" on="1"/>
        <pt x="58" y="112" on="1"/>
      </contour>
    </TTGlyph>
    <TTGlyph name="aring" xMin="26" yMin="-8" xMax="308" yMax="795">
      <component glyphName=".ttfautohint" x="26" y="0" flags="0x0"/>
      <component glyphName="a" x="0" y="0" flags="0x0"/>
      <component glyphName="ring" x="89" y="-5" flags="0x4"/>
    </TTGlyph>
    <TTGlyph name="aringacute" xMin="26" yMin="-8" xMax="308" yMax="973">
      <component glyphName=".ttfautohint" x="26" y="0" flags="0x0"/>
      <component glyphName="a" x="0" y="0" flags="0x0"/>
      <component glyphName="uni030A" x="268" y="0" flags="0x0"/>
      <component glyphName="acutecomb" x="249" y="230" flags="0x4"/>
    </TTGlyph>
    <TTGlyph name="arrowboth" xMin="55" yMin="186" xMax="828" yMax="423">
      <contour>
        <pt x="55" y="304" on="1"/>
        <pt x="316" y="423" on="1"/>
        <pt x="276" y="331" on="1"/>
        <pt x="606" y="331" on="1"/>
        <pt x="567" y="423" on="1"/>
        <pt x="828" y="304" on="1"/>
        <pt x="567" y="186" on="1"/>
        <pt x="606" y="278" on="1"/>
        <pt x="276" y="278" on="1"/>
        <pt x="316" y="186" on="1"/>
      </contour>
    </TTGlyph>
    <TTGlyph name="arrowdown" xMin="79" yMin="-85" xMax="316" yMax="688">
      <contour>
        <pt x="79" y="176" on="1"/>
        <pt x="172" y="136" on="1"/>
        <pt x="172" y="688" on="1"/>
        <pt x="225" y="688" on="1"/>
        <pt x="225" y="136" on="1"/>
        <pt x="316" y="176" on="1"/>
        <pt x="198" y="-85" on="1"/>
      </contour>
    </TTGlyph>
    <TTGlyph name="arrowdown.ss01" xMin="30" yMin="171" xMax="315" yMax="456">
      <contour>
        <pt x="30" y="456" on="1"/>
        <pt x="315" y="456" on="1"/>
        <pt x="173" y="171" on="1"/>
      </contour>
    </TTGlyph>
    <TTGlyph name="arrowleft" xMin="55" yMin="186" xMax="828" yMax="423">
      <contour>
        <pt x="307" y="186" on="1"/>
        <pt x="55" y="304" on="1"/>
        <pt x="307" y="423" on="1"/>
        <pt x="268" y="331" on="1"/>
        <pt x="828" y="331" on="1"/>
        <pt x="828" y="278" on="1"/>
        <pt x="268" y="278" on="1"/>
      </contour>
    </TTGlyph>
    <TTGlyph name="arrowleft.ss01" xMin="30" yMin="201" xMax="315" yMax="486">
      <contour>
        <pt x="30" y="343" on="1"/>
        <pt x="315" y="486" on="1"/>
        <pt x="315" y="201" on="1"/>
      </contour>
    </TTGlyph>
    <TTGlyph name="arrowright" xMin="55" yMin="186" xMax="828" yMax="423">
      <contour>
        <pt x="606" y="278" on="1"/>
        <pt x="55" y="278" on="1"/>
        <pt x="55" y="331" on="1"/>
        <pt x="606" y="331" on="1"/>
        <pt x="567" y="423" on="1"/>
        <pt x="828" y="304" on="1"/>
        <pt x="567" y="186" on="1"/>
      </contour>
    </TTGlyph>
    <TTGlyph name="arrowright.ss01" xMin="48" yMin="201" xMax="333" yMax="486">
      <contour>
        <pt x="48" y="486" on="1"/>
        <pt x="333" y="343" on="1"/>
        <pt x="48" y="201" on="1"/>
      </contour>
    </TTGlyph>
    <TTGlyph name="arrowup" xMin="79" yMin="-81" xMax="316" yMax="691">
      <contour>
        <pt x="172" y="469" on="1"/>
        <pt x="79" y="430" on="1"/>
        <pt x="198" y="691" on="1"/>
        <pt x="316" y="430" on="1"/>
        <pt x="225" y="469" on="1"/>
        <pt x="225" y="-81" on="1"/>
        <pt x="172" y="-81" on="1"/>
      </contour>
    </TTGlyph>
    <TTGlyph name="arrowup.ss01" xMin="30" yMin="231" xMax="315" yMax="516">
      <contour>
        <pt x="173" y="516" on="1"/>
        <pt x="315" y="231" on="1"/>
        <pt x="30" y="231" on="1"/>
      </contour>
    </TTGlyph>
    <TTGlyph name="arrowupdn" xMin="79" yMin="-85" xMax="316" yMax="696">
      <contour>
        <pt x="79" y="176" on="1"/>
        <pt x="172" y="136" on="1"/>
        <pt x="172" y="474" on="1"/>
        <pt x="79" y="435" on="1"/>
        <pt x="198" y="696" on="1"/>
        <pt x="316" y="435" on="1"/>
        <pt x="225" y="474" on="1"/>
        <pt x="225" y="136" on="1"/>
        <pt x="316" y="176" on="1"/>
        <pt x="198" y="-85" on="1"/>
      </contour>
    </TTGlyph>
    <TTGlyph name="arrowupdnbse" xMin="55" yMin="-175" xMax="340" yMax="696">
      <contour>
        <pt x="79" y="176" on="1"/>
        <pt x="172" y="136" on="1"/>
        <pt x="172" y="474" on="1"/>
        <pt x="79" y="435" on="1"/>
        <pt x="198" y="696" on="1"/>
        <pt x="316" y="435" on="1"/>
        <pt x="225" y="474" on="1"/>
        <pt x="225" y="136" on="1"/>
        <pt x="316" y="176" on="1"/>
        <pt x="198" y="-85" on="1"/>
      </contour>
      <contour>
        <pt x="55" y="-127" on="1"/>
        <pt x="340" y="-127" on="1"/>
        <pt x="340" y="-175" on="1"/>
        <pt x="55" y="-175" on="1"/>
      </contour>
    </TTGlyph>
    <TTGlyph name="asciicircum" xMin="46" yMin="492" xMax="344" yMax="750">
      <contour>
        <pt x="195" y="702" on="1"/>
        <pt x="103" y="492" on="1"/>
        <pt x="46" y="492" on="1"/>
        <pt x="164" y="750" on="1"/>
        <pt x="226" y="750" on="1"/>
        <pt x="344" y="492" on="1"/>
        <pt x="288" y="492" on="1"/>
      </contour>
    </TTGlyph>
    <TTGlyph name="asciitilde" xMin="58" yMin="245" xMax="355" yMax="360">
      <contour>
        <pt x="355" y="320" on="0"/>
        <pt x="345" y="277" on="0"/>
        <pt x="316" y="256" on="0"/>
        <pt x="287" y="256" on="1"/>
        <pt x="267" y="256" on="0"/>
        <pt x="227" y="268" on="0"/>
        <pt x="197" y="280" on="1"/>
        <pt x="190" y="283" on="0"/>
        <pt x="162" y="295" on="0"/>
        <pt x="138" y="301" on="0"/>
        <pt x="128" y="301" on="1"/>
        <pt x="109" y="301" on="0"/>
        <pt x="97" y="277" on="0"/>
        <pt x="97" y="245" on="1"/>
        <pt x="58" y="245" on="1"/>
        <pt x="58" y="285" on="0"/>
        <pt x="67" y="328" on="0"/>
        <pt x="96" y="349" on="0"/>
        <pt x="125" y="349" on="1"/>
        <pt x="142" y="349" on="0"/>
        <pt x="177" y="339" on="0"/>
        <pt x="210" y="327" on="0"/>
        <pt x="217" y="324" on="1"/>
        <pt x="234" y="317" on="0"/>
        <pt x="270" y="305" on="0"/>
        <pt x="284" y="305" on="1"/>
        <pt x="303" y="305" on="0"/>
        <pt x="315" y="329" on="0"/>
        <pt x="315" y="360" on="1"/>
        <pt x="355" y="360" on="1"/>
      </contour>
    </TTGlyph>
    <TTGlyph name="asterisk" xMin="46" yMin="378" xMax="340" yMax="688">
      <contour>
        <pt x="217" y="378" on="1"/>
        <pt x="169" y="378" on="1"/>
        <pt x="176" y="504" on="1"/>
        <pt x="70" y="434" on="1"/>
        <pt x="47" y="476" on="1"/>
        <pt x="159" y="532" on="1"/>
        <pt x="46" y="590" on="1"/>
        <pt x="70" y="631" on="1"/>
        <pt x="176" y="562" on="1"/>
        <pt x="169" y="688" on="1"/>
        <pt x="217" y="688" on="1"/>
        <pt x="209" y="562" on="1"/>
        <pt x="316" y="632" on="1"/>
        <pt x="339" y="590" on="1"/>
        <pt x="226" y="533" on="1"/>
        <pt x="340" y="476" on="1"/>
        <pt x="316" y="435" on="1"/>
        <pt x="209" y="504" on="1"/>
      </contour>
    </TTGlyph>
    <TTGlyph name="asterisk.ss02" xMin="35" yMin="-14" xMax="782" yMax="705">
      <contour>
        <pt x="269" y="262" on="1"/>
        <pt x="35" y="436" on="1"/>
        <pt x="322" y="436" on="1"/>
        <pt x="409" y="705" on="1"/>
        <pt x="494" y="436" on="1"/>
        <pt x="782" y="436" on="1"/>
        <pt x="550" y="262" on="1"/>
        <pt x="640" y="-14" on="1"/>
        <pt x="409" y="156" on="1"/>
        <pt x="178" y="-14" on="1"/>
      </contour>
    </TTGlyph>
    <TTGlyph name="at" xMin="52" yMin="-108" xMax="510" yMax="696">
      <contour>
        <pt x="165" y="-108" on="0"/>
        <pt x="74" y="-54" on="0"/>
        <pt x="52" y="96" on="0"/>
        <pt x="52" y="294" on="1"/>
        <pt x="52" y="492" on="0"/>
        <pt x="74" y="642" on="0"/>
        <pt x="165" y="696" on="0"/>
        <pt x="281" y="696" on="1"/>
        <pt x="397" y="696" on="0"/>
        <pt x="488" y="641" on="0"/>
        <pt x="510" y="492" on="0"/>
        <pt x="510" y="294" on="1"/>
        <pt x="510" y="190" on="0"/>
        <pt x="495" y="98" on="0"/>
        <pt x="464" y="75" on="0"/>
        <pt x="429" y="75" on="1"/>
        <pt x="345" y="75" on="1"/>
        <pt x="341" y="134" on="1"/>
        <pt x="336" y="134" on="1"/>
        <pt x="324" y="68" on="0"/>
        <pt x="261" y="68" on="1"/>
        <pt x="211" y="68" on="0"/>
        <pt x="170" y="122" on="0"/>
        <pt x="170" y="195" on="1"/>
        <pt x="170" y="267" on="0"/>
        <pt x="208" y="323" on="0"/>
        <pt x="258" y="323" on="1"/>
        <pt x="279" y="323" on="0"/>
        <pt x="337" y="319" on="1"/>
        <pt x="337" y="353" on="1"/>
        <pt x="337" y="408" on="0"/>
        <pt x="328" y="455" on="0"/>
        <pt x="301" y="471" on="0"/>
        <pt x="269" y="471" on="1"/>
        <pt x="229" y="471" on="0"/>
        <pt x="189" y="461" on="1"/>
        <pt x="189" y="508" on="1"/>
        <pt x="229" y="518" on="0"/>
        <pt x="283" y="518" on="1"/>
        <pt x="328" y="518" on="0"/>
        <pt x="373" y="489" on="0"/>
        <pt x="390" y="420" on="0"/>
        <pt x="390" y="354" on="1"/>
        <pt x="390" y="112" on="1"/>
        <pt x="435" y="112" on="1"/>
        <pt x="450" y="112" on="0"/>
        <pt x="463" y="130" on="0"/>
        <pt x="470" y="207" on="0"/>
        <pt x="470" y="294" on="1"/>
        <pt x="470" y="456" on="0"/>
        <pt x="460" y="587" on="0"/>
        <pt x="419" y="647" on="0"/>
        <pt x="369" y="654" on="1"/>
        <pt x="335" y="659" on="0"/>
        <pt x="280" y="659" on="1"/>
        <pt x="234" y="659" on="0"/>
        <pt x="206" y="657" on="1"/>
        <pt x="149" y="652" on="0"/>
        <pt x="103" y="596" on="0"/>
        <pt x="92" y="463" on="0"/>
        <pt x="92" y="294" on="1"/>
        <pt x="92" y="130" on="0"/>
        <pt x="104" y="-4" on="0"/>
        <pt x="153" y="-62" on="0"/>
        <pt x="212" y="-68" on="1"/>
        <pt x="244" y="-70" on="0"/>
        <pt x="281" y="-70" on="1"/>
        <pt x="363" y="-70" on="0"/>
        <pt x="390" y="-67" on="1"/>
        <pt x="390" y="-106" on="1"/>
        <pt x="371" y="-108" on="0"/>
        <pt x="281" y="-108" on="1"/>
      </contour>
      <contour>
        <pt x="296" y="117" on="0"/>
        <pt x="325" y="140" on="0"/>
        <pt x="337" y="196" on="0"/>
        <pt x="337" y="250" on="1"/>
        <pt x="337" y="281" on="1"/>
        <pt x="269" y="281" on="1"/>
        <pt x="249" y="281" on="0"/>
        <pt x="229" y="269" on="0"/>
        <pt x="221" y="234" on="0"/>
        <pt x="221" y="197" on="1"/>
        <pt x="221" y="163" on="0"/>
        <pt x="229" y="130" on="0"/>
        <pt x="249" y="117" on="0"/>
        <pt x="270" y="117" on="1"/>
      </contour>
    </TTGlyph>
    <TTGlyph name="atilde" xMin="26" yMin="-8" xMax="308" yMax="743">
      <component glyphName=".ttfautohint" x="26" y="0" flags="0x0"/>
      <component glyphName="a" x="0" y="0" flags="0x0"/>
      <component glyphName="tilde" x="61" y="0" flags="0x0"/>
    </TTGlyph>
    <TTGlyph name="b" xMin="53" yMin="-8" xMax="343" yMax="743">
      <contour>
        <pt x="176" y="-8" on="0"/>
        <pt x="123" y="25" on="0"/>
        <pt x="113" y="71" on="1"/>
        <pt x="108" y="71" on="1"/>
        <pt x="104" y="0" on="1"/>
        <pt x="53" y="0" on="1"/>
        <pt x="53" y="743" on="1"/>
        <pt x="111" y="743" on="1"/>
        <pt x="111" y="447" on="1"/>
        <pt x="116" y="447" on="1"/>
        <pt x="126" y="484" on="0"/>
        <pt x="174" y="518" on="0"/>
        <pt x="216" y="518" on="1"/>
        <pt x="270" y="518" on="0"/>
        <pt x="323" y="474" on="0"/>
        <pt x="343" y="365" on="0"/>
        <pt x="343" y="255" on="1"/>
        <pt x="343" y="145" on="0"/>
        <pt x="322" y="35" on="0"/>
        <pt x="269" y="-8" on="0"/>
        <pt x="215" y="-8" on="1"/>
      </contour>
      <contour>
        <pt x="238" y="44" on="0"/>
        <pt x="273" y="72" on="0"/>
        <pt x="285" y="157" on="0"/>
        <pt x="285" y="255" on="1"/>
        <pt x="285" y="353" on="0"/>
        <pt x="273" y="438" on="0"/>
        <pt x="238" y="465" on="0"/>
        <pt x="198" y="465" on="1"/>
        <pt x="165" y="465" on="0"/>
        <pt x="127" y="434" on="0"/>
        <pt x="120" y="400" on="1"/>
        <pt x="114" y="374" on="0"/>
        <pt x="111" y="309" on="0"/>
        <pt x="111" y="255" on="1"/>
        <pt x="111" y="199" on="0"/>
        <pt x="114" y="138" on="0"/>
        <pt x="119" y="112" on="1"/>
        <pt x="126" y="76" on="0"/>
        <pt x="164" y="44" on="0"/>
        <pt x="198" y="44" on="1"/>
      </contour>
    </TTGlyph>
    <TTGlyph name="backslash" xMin="28" yMin="-55" xMax="222" yMax="743">
      <contour>
        <pt x="28" y="743" on="1"/>
        <pt x="83" y="743" on="1"/>
        <pt x="222" y="-55" on="1"/>
        <pt x="168" y="-55" on="1"/>
      </contour>
    </TTGlyph>
    <TTGlyph name="bar" xMin="71" yMin="-161" xMax="127" yMax="743">
      <contour>
        <pt x="71" y="743" on="1"/>
        <pt x="127" y="743" on="1"/>
        <pt x="127" y="-161" on="1"/>
        <pt x="71" y="-161" on="1"/>
      </contour>
    </TTGlyph>
    <TTGlyph name="bar.ss02" xMin="-1" yMin="0" xMax="499" yMax="696">
      <contour>
        <pt x="-1" y="696" on="1"/>
        <pt x="499" y="696" on="1"/>
        <pt x="499" y="0" on="1"/>
        <pt x="-1" y="0" on="1"/>
      </contour>
    </TTGlyph>
    <TTGlyph name="braceleft" xMin="20" yMin="-150" xMax="213" yMax="743">
      <contour>
        <pt x="131" y="-127" on="0"/>
        <pt x="86" y="-23" on="0"/>
        <pt x="86" y="34" on="1"/>
        <pt x="86" y="153" on="1"/>
        <pt x="86" y="206" on="0"/>
        <pt x="56" y="277" on="0"/>
        <pt x="20" y="279" on="1"/>
        <pt x="20" y="314" on="1"/>
        <pt x="55" y="316" on="0"/>
        <pt x="86" y="387" on="0"/>
        <pt x="86" y="440" on="1"/>
        <pt x="86" y="559" on="1"/>
        <pt x="86" y="616" on="0"/>
        <pt x="131" y="720" on="0"/>
        <pt x="166" y="743" on="1"/>
        <pt x="213" y="743" on="1"/>
        <pt x="180" y="711" on="0"/>
        <pt x="144" y="619" on="0"/>
        <pt x="144" y="564" on="1"/>
        <pt x="144" y="447" on="1"/>
        <pt x="144" y="323" on="0"/>
        <pt x="79" y="299" on="1"/>
        <pt x="79" y="294" on="1"/>
        <pt x="144" y="270" on="0"/>
        <pt x="144" y="147" on="1"/>
        <pt x="144" y="29" on="1"/>
        <pt x="144" y="-26" on="0"/>
        <pt x="180" y="-118" on="0"/>
        <pt x="213" y="-150" on="1"/>
        <pt x="166" y="-150" on="1"/>
      </contour>
    </TTGlyph>
    <TTGlyph name="braceright" xMin="14" yMin="-150" xMax="207" yMax="743">
      <contour>
        <pt x="47" y="-118" on="0"/>
        <pt x="82" y="-26" on="0"/>
        <pt x="82" y="29" on="1"/>
        <pt x="82" y="147" on="1"/>
        <pt x="82" y="270" on="0"/>
        <pt x="148" y="294" on="1"/>
        <pt x="148" y="299" on="1"/>
        <pt x="82" y="323" on="0"/>
        <pt x="82" y="447" on="1"/>
        <pt x="82" y="564" on="1"/>
        <pt x="82" y="620" on="0"/>
        <pt x="47" y="712" on="0"/>
        <pt x="14" y="743" on="1"/>
        <pt x="60" y="743" on="1"/>
        <pt x="95" y="720" on="0"/>
        <pt x="141" y="616" on="0"/>
        <pt x="141" y="559" on="1"/>
        <pt x="141" y="440" on="1"/>
        <pt x="141" y="387" on="0"/>
        <pt x="172" y="316" on="0"/>
        <pt x="207" y="314" on="1"/>
        <pt x="207" y="279" on="1"/>
        <pt x="171" y="277" on="0"/>
        <pt x="141" y="206" on="0"/>
        <pt x="141" y="153" on="1"/>
        <pt x="141" y="34" on="1"/>
        <pt x="141" y="-23" on="0"/>
        <pt x="95" y="-127" on="0"/>
        <pt x="60" y="-150" on="1"/>
        <pt x="14" y="-150" on="1"/>
      </contour>
    </TTGlyph>
    <TTGlyph name="bracketleft" xMin="58" yMin="-150" xMax="185" yMax="743">
      <contour>
        <pt x="58" y="743" on="1"/>
        <pt x="185" y="743" on="1"/>
        <pt x="185" y="698" on="1"/>
        <pt x="116" y="694" on="1"/>
        <pt x="116" y="-101" on="1"/>
        <pt x="185" y="-105" on="1"/>
        <pt x="185" y="-150" on="1"/>
        <pt x="58" y="-150" on="1"/>
      </contour>
    </TTGlyph>
    <TTGlyph name="bracketleft.ss02" xMin="45" yMin="0" xMax="397" yMax="696">
      <contour>
        <pt x="45" y="0" on="1"/>
        <pt x="45" y="348" on="1"/>
        <pt x="45" y="449" on="0"/>
        <pt x="135" y="608" on="0"/>
        <pt x="295" y="696" on="0"/>
        <pt x="397" y="696" on="1"/>
        <pt x="397" y="0" on="1"/>
      </contour>
    </TTGlyph>
    <TTGlyph name="bracketright" xMin="22" yMin="-150" xMax="149" yMax="743">
      <contour>
        <pt x="22" y="-105" on="1"/>
        <pt x="91" y="-101" on="1"/>
        <pt x="91" y="694" on="1"/>
        <pt x="22" y="698" on="1"/>
        <pt x="22" y="743" on="1"/>
        <pt x="149" y="743" on="1"/>
        <pt x="149" y="-150" on="1"/>
        <pt x="22" y="-150" on="1"/>
      </contour>
    </TTGlyph>
    <TTGlyph name="bracketright.ss02" xMin="0" yMin="0" xMax="352" yMax="696">
      <contour>
        <pt x="0" y="696" on="1"/>
        <pt x="102" y="696" on="0"/>
        <pt x="262" y="608" on="0"/>
        <pt x="352" y="449" on="0"/>
        <pt x="352" y="348" on="1"/>
        <pt x="352" y="0" on="1"/>
        <pt x="0" y="0" on="1"/>
      </contour>
    </TTGlyph>
    <TTGlyph name="breve" xMin="0" yMin="605" xMax="197" yMax="743">
      <contour>
        <pt x="197" y="694" on="0"/>
        <pt x="186" y="639" on="0"/>
        <pt x="143" y="605" on="0"/>
        <pt x="98" y="605" on="1"/>
        <pt x="53" y="605" on="0"/>
        <pt x="11" y="639" on="0"/>
        <pt x="0" y="694" on="0"/>
        <pt x="0" y="743" on="1"/>
        <pt x="44" y="743" on="1"/>
        <pt x="44" y="704" on="0"/>
        <pt x="50" y="666" on="0"/>
        <pt x="73" y="644" on="0"/>
        <pt x="98" y="644" on="1"/>
        <pt x="123" y="644" on="0"/>
        <pt x="146" y="666" on="0"/>
        <pt x="152" y="704" on="0"/>
        <pt x="152" y="743" on="1"/>
        <pt x="197" y="743" on="1"/>
      </contour>
    </TTGlyph>
    <TTGlyph name="brokenbar" xMin="71" yMin="-161" xMax="127" yMax="743">
      <contour>
        <pt x="71" y="743" on="1"/>
        <pt x="127" y="743" on="1"/>
        <pt x="127" y="390" on="1"/>
        <pt x="71" y="390" on="1"/>
      </contour>
      <contour>
        <pt x="71" y="192" on="1"/>
        <pt x="127" y="192" on="1"/>
        <pt x="127" y="-161" on="1"/>
        <pt x="71" y="-161" on="1"/>
      </contour>
    </TTGlyph>
    <TTGlyph name="bullet" xMin="48" yMin="264" xMax="207" yMax="423">
      <contour>
        <pt x="207" y="305" on="0"/>
        <pt x="198" y="275" on="0"/>
        <pt x="165" y="264" on="0"/>
        <pt x="126" y="264" on="1"/>
        <pt x="88" y="264" on="0"/>
        <pt x="57" y="275" on="0"/>
        <pt x="48" y="306" on="0"/>
        <pt x="48" y="342" on="1"/>
        <pt x="48" y="381" on="0"/>
        <pt x="57" y="412" on="0"/>
        <pt x="88" y="423" on="0"/>
        <pt x="126" y="423" on="1"/>
        <pt x="166" y="423" on="0"/>
        <pt x="198" y="412" on="0"/>
        <pt x="207" y="381" on="0"/>
        <pt x="207" y="342" on="1"/>
      </contour>
    </TTGlyph>
    <TTGlyph name="bullet.ss02" xMin="40" yMin="-8" xMax="743" yMax="696">
      <contour>
        <pt x="343" y="421" on="0"/>
        <pt x="279" y="480" on="0"/>
        <pt x="279" y="533" on="1"/>
        <pt x="279" y="575" on="0"/>
        <pt x="318" y="650" on="0"/>
        <pt x="373" y="696" on="0"/>
        <pt x="392" y="696" on="1"/>
        <pt x="411" y="696" on="0"/>
        <pt x="465" y="650" on="0"/>
        <pt x="504" y="575" on="0"/>
        <pt x="504" y="533" on="1"/>
        <pt x="504" y="480" on="0"/>
        <pt x="441" y="421" on="0"/>
        <pt x="392" y="421" on="1"/>
      </contour>
      <contour>
        <pt x="415" y="481" on="0"/>
        <pt x="444" y="508" on="0"/>
        <pt x="444" y="533" on="1"/>
        <pt x="444" y="560" on="0"/>
        <pt x="426" y="607" on="0"/>
        <pt x="401" y="636" on="0"/>
        <pt x="392" y="636" on="1"/>
        <pt x="383" y="636" on="0"/>
        <pt x="358" y="607" on="0"/>
        <pt x="339" y="560" on="0"/>
        <pt x="339" y="533" on="1"/>
        <pt x="339" y="508" on="0"/>
        <pt x="369" y="481" on="0"/>
        <pt x="392" y="481" on="1"/>
      </contour>
      <contour>
        <pt x="161" y="231" on="0"/>
        <pt x="86" y="270" on="0"/>
        <pt x="40" y="325" on="0"/>
        <pt x="40" y="344" on="1"/>
        <pt x="40" y="363" on="0"/>
        <pt x="86" y="417" on="0"/>
        <pt x="161" y="456" on="0"/>
        <pt x="203" y="456" on="1"/>
        <pt x="256" y="456" on="0"/>
        <pt x="315" y="393" on="0"/>
        <pt x="315" y="344" on="1"/>
        <pt x="315" y="295" on="0"/>
        <pt x="256" y="231" on="0"/>
        <pt x="203" y="231" on="1"/>
      </contour>
      <contour>
        <pt x="527" y="231" on="0"/>
        <pt x="468" y="295" on="0"/>
        <pt x="468" y="344" on="1"/>
        <pt x="468" y="393" on="0"/>
        <pt x="527" y="456" on="0"/>
        <pt x="581" y="456" on="1"/>
        <pt x="622" y="456" on="0"/>
        <pt x="697" y="417" on="0"/>
        <pt x="743" y="363" on="0"/>
        <pt x="743" y="344" on="1"/>
        <pt x="743" y="325" on="0"/>
        <pt x="697" y="270" on="0"/>
        <pt x="623" y="231" on="0"/>
        <pt x="581" y="231" on="1"/>
      </contour>
      <contour>
        <pt x="228" y="291" on="0"/>
        <pt x="255" y="321" on="0"/>
        <pt x="255" y="344" on="1"/>
        <pt x="255" y="367" on="0"/>
        <pt x="228" y="396" on="0"/>
        <pt x="203" y="396" on="1"/>
        <pt x="176" y="396" on="0"/>
        <pt x="129" y="378" on="0"/>
        <pt x="100" y="353" on="0"/>
        <pt x="100" y="344" on="1"/>
        <pt x="100" y="335" on="0"/>
        <pt x="129" y="310" on="0"/>
        <pt x="176" y="291" on="0"/>
        <pt x="203" y="291" on="1"/>
      </contour>
      <contour>
        <pt x="607" y="291" on="0"/>
        <pt x="654" y="310" on="0"/>
        <pt x="683" y="335" on="0"/>
        <pt x="683" y="344" on="1"/>
        <pt x="683" y="353" on="0"/>
        <pt x="654" y="378" on="0"/>
        <pt x="607" y="396" on="0"/>
        <pt x="581" y="396" on="1"/>
        <pt x="556" y="396" on="0"/>
        <pt x="528" y="367" on="0"/>
        <pt x="528" y="344" on="1"/>
        <pt x="528" y="321" on="0"/>
        <pt x="556" y="291" on="0"/>
        <pt x="581" y="291" on="1"/>
      </contour>
      <contour>
        <pt x="373" y="-8" on="0"/>
        <pt x="318" y="38" on="0"/>
        <pt x="279" y="113" on="0"/>
        <pt x="279" y="155" on="1"/>
        <pt x="279" y="208" on="0"/>
        <pt x="343" y="267" on="0"/>
        <pt x="392" y="267" on="1"/>
        <pt x="441" y="267" on="0"/>
        <pt x="504" y="208" on="0"/>
        <pt x="504" y="155" on="1"/>
        <pt x="504" y="113" on="0"/>
        <pt x="465" y="38" on="0"/>
        <pt x="411" y="-8" on="0"/>
        <pt x="392" y="-8" on="1"/>
      </contour>
      <contour>
        <pt x="401" y="52" on="0"/>
        <pt x="426" y="81" on="0"/>
        <pt x="444" y="128" on="0"/>
        <pt x="444" y="155" on="1"/>
        <pt x="444" y="180" on="0"/>
        <pt x="415" y="207" on="0"/>
        <pt x="392" y="207" on="1"/>
        <pt x="369" y="207" on="0"/>
        <pt x="339" y="180" on="0"/>
        <pt x="339" y="155" on="1"/>
        <pt x="339" y="128" on="0"/>
        <pt x="358" y="81" on="0"/>
        <pt x="383" y="52" on="0"/>
        <pt x="392" y="52" on="1"/>
      </contour>
    </TTGlyph>
    <TTGlyph name="c" xMin="39" yMin="-8" xMax="269" yMax="518">
      <contour>
        <pt x="228" y="-8" on="0"/>
        <pt x="180" y="-8" on="1"/>
        <pt x="117" y="-8" on="0"/>
        <pt x="58" y="43" on="0"/>
        <pt x="39" y="150" on="0"/>
        <pt x="39" y="254" on="1"/>
        <pt x="39" y="361" on="0"/>
        <pt x="62" y="472" on="0"/>
        <pt x="120" y="518" on="0"/>
        <pt x="177" y="518" on="1"/>
        <pt x="226" y="518" on="0"/>
        <pt x="266" y="507" on="1"/>
        <pt x="266" y="457" on="1"/>
        <pt x="229" y="467" on="0"/>
        <pt x="190" y="467" on="1"/>
        <pt x="149" y="467" on="0"/>
        <pt x="111" y="434" on="0"/>
        <pt x="97" y="348" on="0"/>
        <pt x="97" y="256" on="1"/>
        <pt x="97" y="160" on="0"/>
        <pt x="111" y="73" on="0"/>
        <pt x="150" y="43" on="0"/>
        <pt x="192" y="43" on="1"/>
        <pt x="238" y="43" on="0"/>
        <pt x="269" y="54" on="1"/>
        <pt x="269" y="4" on="1"/>
      </contour>
    </TTGlyph>
    <TTGlyph name="cacute" xMin="39" yMin="-8" xMax="269" yMax="743">
      <component glyphName=".ttfautohint" x="39" y="0" flags="0x0"/>
      <component glyphName="c" x="0" y="0" flags="0x0"/>
      <component glyphName="acutecomb" x="215" y="0" flags="0x0"/>
    </TTGlyph>
    <TTGlyph name="cacute.loclPLK" xMin="39" yMin="-8" xMax="269" yMax="743">
      <component glyphName=".ttfautohint" x="39" y="0" flags="0x0"/>
      <component glyphName="c" x="0" y="0" flags="0x0"/>
      <component glyphName="acute.loclPLK" x="123" y="0" flags="0x0"/>
    </TTGlyph>
    <TTGlyph name="caron" xMin="0" yMin="609" xMax="198" yMax="743">
      <contour>
        <pt x="0" y="737" on="1"/>
        <pt x="0" y="743" on="1"/>
        <pt x="42" y="743" on="1"/>
        <pt x="99" y="646" on="1"/>
        <pt x="156" y="743" on="1"/>
        <pt x="198" y="743" on="1"/>
        <pt x="198" y="737" on="1"/>
        <pt x="132" y="609" on="1"/>
        <pt x="66" y="609" on="1"/>
      </contour>
    </TTGlyph>
    <TTGlyph name="caron.loclCSY" xMin="27" yMin="447" xMax="99" yMax="688">
      <contour>
        <pt x="39" y="609" on="1"/>
        <pt x="39" y="688" on="1"/>
        <pt x="99" y="688" on="1"/>
        <pt x="99" y="609" on="1"/>
        <pt x="68" y="447" on="1"/>
        <pt x="27" y="447" on="1"/>
      </contour>
    </TTGlyph>
    <TTGlyph name="ccaron" xMin="39" yMin="-8" xMax="269" yMax="743">
      <component glyphName=".ttfautohint" x="39" y="0" flags="0x0"/>
      <component glyphName="c" x="0" y="0" flags="0x0"/>
      <component glyphName="uni030C" x="247" y="0" flags="0x0"/>
    </TTGlyph>
    <TTGlyph name="ccedilla" xMin="39" yMin="-189" xMax="269" yMax="518">
      <contour>
        <pt x="238" y="43" on="0"/>
        <pt x="269" y="54" on="1"/>
        <pt x="269" y="4" on="1"/>
        <pt x="228" y="-8" on="0"/>
        <pt x="180" y="-8" on="1"/>
        <pt x="166" y="-8" on="1"/>
        <pt x="126" y="-189" on="1"/>
        <pt x="70" y="-189" on="1"/>
        <pt x="70" y="-184" on="1"/>
        <pt x="125" y="-2" on="1"/>
        <pt x="88" y="9" on="0"/>
        <pt x="51" y="68" on="0"/>
        <pt x="39" y="168" on="0"/>
        <pt x="39" y="254" on="1"/>
        <pt x="39" y="361" on="0"/>
        <pt x="62" y="472" on="0"/>
        <pt x="120" y="518" on="0"/>
        <pt x="177" y="518" on="1"/>
        <pt x="226" y="518" on="0"/>
        <pt x="266" y="507" on="1"/>
        <pt x="266" y="457" on="1"/>
        <pt x="229" y="467" on="0"/>
        <pt x="190" y="467" on="1"/>
        <pt x="149" y="467" on="0"/>
        <pt x="111" y="434" on="0"/>
        <pt x="97" y="348" on="0"/>
        <pt x="97" y="256" on="1"/>
        <pt x="97" y="160" on="0"/>
        <pt x="111" y="73" on="0"/>
        <pt x="150" y="43" on="0"/>
        <pt x="192" y="43" on="1"/>
      </contour>
    </TTGlyph>
    <TTGlyph name="ccircumflex" xMin="39" yMin="-8" xMax="269" yMax="743">
      <component glyphName=".ttfautohint" x="39" y="0" flags="0x0"/>
      <component glyphName="c" x="0" y="0" flags="0x0"/>
      <component glyphName="uni0302" x="247" y="0" flags="0x0"/>
    </TTGlyph>
    <TTGlyph name="cdotaccent" xMin="39" yMin="-8" xMax="269" yMax="730">
      <component glyphName=".ttfautohint" x="39" y="0" flags="0x0"/>
      <component glyphName="c" x="0" y="0" flags="0x0"/>
      <component glyphName="uni0307" x="192" y="0" flags="0x0"/>
    </TTGlyph>
    <TTGlyph name="cedilla" xMin="15" yMin="-189" xMax="113" yMax="8">
      <contour>
        <pt x="15" y="-184" on="1"/>
        <pt x="73" y="8" on="1"/>
        <pt x="113" y="8" on="1"/>
        <pt x="113" y="3" on="1"/>
        <pt x="71" y="-189" on="1"/>
        <pt x="15" y="-189" on="1"/>
      </contour>
    </TTGlyph>
    <TTGlyph name="cent" xMin="44" yMin="-8" xMax="283" yMax="696">
      <contour>
        <pt x="283" y="80" on="1"/>
        <pt x="248" y="69" on="0"/>
        <pt x="215" y="67" on="1"/>
        <pt x="215" y="-8" on="1"/>
        <pt x="166" y="-8" on="1"/>
        <pt x="166" y="67" on="1"/>
        <pt x="112" y="71" on="0"/>
        <pt x="60" y="131" on="0"/>
        <pt x="44" y="241" on="0"/>
        <pt x="44" y="342" on="1"/>
        <pt x="44" y="447" on="0"/>
        <pt x="64" y="560" on="0"/>
        <pt x="116" y="613" on="0"/>
        <pt x="166" y="618" on="1"/>
        <pt x="166" y="696" on="1"/>
        <pt x="215" y="696" on="1"/>
        <pt x="215" y="618" on="1"/>
        <pt x="246" y="617" on="0"/>
        <pt x="281" y="607" on="1"/>
        <pt x="281" y="555" on="1"/>
        <pt x="247" y="562" on="0"/>
        <pt x="215" y="564" on="1"/>
        <pt x="215" y="120" on="1"/>
        <pt x="250" y="123" on="0"/>
        <pt x="283" y="131" on="1"/>
      </contour>
      <contour>
        <pt x="104" y="259" on="0"/>
        <pt x="113" y="171" on="0"/>
        <pt x="139" y="128" on="0"/>
        <pt x="166" y="122" on="1"/>
        <pt x="166" y="562" on="1"/>
        <pt x="140" y="556" on="0"/>
        <pt x="114" y="514" on="0"/>
        <pt x="104" y="427" on="0"/>
        <pt x="104" y="344" on="1"/>
      </contour>
    </TTGlyph>
    <TTGlyph name="circumflex" xMin="0" yMin="609" xMax="198" yMax="743">
      <contour>
        <pt x="0" y="614" on="1"/>
        <pt x="66" y="743" on="1"/>
        <pt x="132" y="743" on="1"/>
        <pt x="198" y="614" on="1"/>
        <pt x="198" y="609" on="1"/>
        <pt x="156" y="609" on="1"/>
        <pt x="99" y="705" on="1"/>
        <pt x="42" y="609" on="1"/>
        <pt x="0" y="609" on="1"/>
      </contour>
    </TTGlyph>
    <TTGlyph name="colon" xMin="52" yMin="0" xMax="119" yMax="510">
      <contour>
        <pt x="52" y="510" on="1"/>
        <pt x="119" y="510" on="1"/>
        <pt x="119" y="429" on="1"/>
        <pt x="52" y="429" on="1"/>
      </contour>
      <contour>
        <pt x="52" y="81" on="1"/>
        <pt x="119" y="81" on="1"/>
        <pt x="119" y="0" on="1"/>
        <pt x="52" y="0" on="1"/>
      </contour>
    </TTGlyph>
    <TTGlyph name="comma" xMin="32" yMin="-115" xMax="119" yMax="81">
      <contour>
        <pt x="53" y="-84" on="0"/>
        <pt x="71" y="-72" on="0"/>
        <pt x="76" y="-45" on="0"/>
        <pt x="76" y="-16" on="1"/>
        <pt x="76" y="0" on="1"/>
        <pt x="50" y="0" on="1"/>
        <pt x="50" y="81" on="1"/>
        <pt x="119" y="81" on="1"/>
        <pt x="119" y="2" on="1"/>
        <pt x="119" y="-46" on="0"/>
        <pt x="106" y="-94" on="0"/>
        <pt x="69" y="-115" on="0"/>
        <pt x="32" y="-115" on="1"/>
        <pt x="32" y="-84" on="1"/>
      </contour>
    </TTGlyph>
    <TTGlyph name="copyright" xMin="63" yMin="-8" xMax="427" yMax="696">
      <contour>
        <pt x="155" y="-8" on="0"/>
        <pt x="83" y="39" on="0"/>
        <pt x="63" y="174" on="0"/>
        <pt x="63" y="344" on="1"/>
        <pt x="63" y="514" on="0"/>
        <pt x="83" y="649" on="0"/>
        <pt x="155" y="696" on="0"/>
        <pt x="245" y="696" on="1"/>
        <pt x="335" y="696" on="0"/>
        <pt x="407" y="649" on="0"/>
        <pt x="427" y="514" on="0"/>
        <pt x="427" y="344" on="1"/>
        <pt x="427" y="174" on="0"/>
        <pt x="407" y="39" on="0"/>
        <pt x="335" y="-8" on="0"/>
        <pt x="245" y="-8" on="1"/>
      </contour>
      <contour>
        <pt x="320" y="23" on="0"/>
        <pt x="378" y="60" on="0"/>
        <pt x="394" y="182" on="0"/>
        <pt x="394" y="344" on="1"/>
        <pt x="394" y="506" on="0"/>
        <pt x="378" y="628" on="0"/>
        <pt x="320" y="665" on="0"/>
        <pt x="245" y="665" on="1"/>
        <pt x="170" y="665" on="0"/>
        <pt x="113" y="627" on="0"/>
        <pt x="96" y="505" on="0"/>
        <pt x="96" y="344" on="1"/>
        <pt x="96" y="183" on="0"/>
        <pt x="113" y="61" on="0"/>
        <pt x="170" y="23" on="0"/>
        <pt x="245" y="23" on="1"/>
      </contour>
      <contour>
        <pt x="221" y="155" on="0"/>
        <pt x="185" y="183" on="0"/>
        <pt x="173" y="260" on="0"/>
        <pt x="173" y="344" on="1"/>
        <pt x="173" y="427" on="0"/>
        <pt x="186" y="504" on="0"/>
        <pt x="222" y="533" on="0"/>
        <pt x="260" y="533" on="1"/>
        <pt x="292" y="533" on="0"/>
        <pt x="305" y="527" on="1"/>
        <pt x="305" y="491" on="1"/>
        <pt x="281" y="495" on="0"/>
        <pt x="267" y="495" on="1"/>
        <pt x="241" y="495" on="0"/>
        <pt x="220" y="476" on="0"/>
        <pt x="214" y="417" on="0"/>
        <pt x="214" y="344" on="1"/>
        <pt x="214" y="271" on="0"/>
        <pt x="220" y="212" on="0"/>
        <pt x="241" y="193" on="0"/>
        <pt x="267" y="193" on="1"/>
        <pt x="288" y="193" on="0"/>
        <pt x="306" y="198" on="1"/>
        <pt x="306" y="161" on="1"/>
        <pt x="288" y="155" on="0"/>
        <pt x="260" y="155" on="1"/>
      </contour>
    </TTGlyph>
    <TTGlyph name="currency" xMin="39" yMin="0" xMax="467" yMax="690">
      <contour>
        <pt x="40" y="37" on="1"/>
        <pt x="131" y="128" on="1"/>
        <pt x="116" y="155" on="0"/>
        <pt x="106" y="255" on="0"/>
        <pt x="106" y="348" on="1"/>
        <pt x="106" y="436" on="0"/>
        <pt x="116" y="534" on="0"/>
        <pt x="130" y="562" on="1"/>
        <pt x="39" y="653" on="1"/>
        <pt x="77" y="690" on="1"/>
        <pt x="167" y="599" on="1"/>
        <pt x="195" y="615" on="0"/>
        <pt x="253" y="615" on="1"/>
        <pt x="313" y="615" on="0"/>
        <pt x="340" y="598" on="1"/>
        <pt x="431" y="689" on="1"/>
        <pt x="467" y="652" on="1"/>
        <pt x="376" y="561" on="1"/>
        <pt x="390" y="533" on="0"/>
        <pt x="400" y="436" on="0"/>
        <pt x="400" y="348" on="1"/>
        <pt x="400" y="256" on="0"/>
        <pt x="390" y="156" on="0"/>
        <pt x="376" y="128" on="1"/>
        <pt x="467" y="37" on="1"/>
        <pt x="430" y="0" on="1"/>
        <pt x="340" y="91" on="1"/>
        <pt x="314" y="74" on="0"/>
        <pt x="253" y="74" on="1"/>
        <pt x="194" y="74" on="0"/>
        <pt x="167" y="90" on="1"/>
        <pt x="77" y="0" on="1"/>
      </contour>
      <contour>
        <pt x="296" y="125" on="0"/>
        <pt x="332" y="156" on="0"/>
        <pt x="342" y="242" on="0"/>
        <pt x="342" y="348" on="1"/>
        <pt x="342" y="450" on="0"/>
        <pt x="332" y="533" on="0"/>
        <pt x="296" y="564" on="0"/>
        <pt x="253" y="564" on="1"/>
        <pt x="210" y="564" on="0"/>
        <pt x="174" y="533" on="0"/>
        <pt x="164" y="450" on="0"/>
        <pt x="164" y="348" on="1"/>
        <pt x="164" y="242" on="0"/>
        <pt x="174" y="156" on="0"/>
        <pt x="210" y="125" on="0"/>
        <pt x="253" y="125" on="1"/>
      </contour>
    </TTGlyph>
    <TTGlyph name="d" xMin="39" yMin="-8" xMax="330" yMax="743">
      <contour>
        <pt x="113" y="-8" on="0"/>
        <pt x="60" y="35" on="0"/>
        <pt x="39" y="145" on="0"/>
        <pt x="39" y="255" on="1"/>
        <pt x="39" y="365" on="0"/>
        <pt x="59" y="474" on="0"/>
        <pt x="112" y="518" on="0"/>
        <pt x="167" y="518" on="1"/>
        <pt x="209" y="518" on="0"/>
        <pt x="257" y="484" on="0"/>
        <pt x="266" y="447" on="1"/>
        <pt x="272" y="447" on="1"/>
        <pt x="272" y="743" on="1"/>
        <pt x="330" y="743" on="1"/>
        <pt x="330" y="0" on="1"/>
        <pt x="279" y="0" on="1"/>
        <pt x="275" y="71" on="1"/>
        <pt x="270" y="71" on="1"/>
        <pt x="260" y="25" on="0"/>
        <pt x="207" y="-8" on="0"/>
        <pt x="167" y="-8" on="1"/>
      </contour>
      <contour>
        <pt x="219" y="44" on="0"/>
        <pt x="257" y="76" on="0"/>
        <pt x="264" y="111" on="1"/>
        <pt x="269" y="142" on="0"/>
        <pt x="272" y="210" on="0"/>
        <pt x="272" y="266" on="1"/>
        <pt x="272" y="348" on="0"/>
        <pt x="264" y="391" on="1"/>
        <pt x="256" y="432" on="0"/>
        <pt x="218" y="465" on="0"/>
        <pt x="181" y="465" on="1"/>
        <pt x="142" y="465" on="0"/>
        <pt x="109" y="438" on="0"/>
        <pt x="97" y="353" on="0"/>
        <pt x="97" y="255" on="1"/>
        <pt x="97" y="157" on="0"/>
        <pt x="109" y="72" on="0"/>
        <pt x="144" y="44" on="0"/>
        <pt x="185" y="44" on="1"/>
      </contour>
    </TTGlyph>
    <TTGlyph name="dagger" xMin="37" yMin="0" xMax="250" yMax="688">
      <contour>
        <pt x="113" y="454" on="1"/>
        <pt x="37" y="461" on="1"/>
        <pt x="37" y="502" on="1"/>
        <pt x="113" y="509" on="1"/>
        <pt x="120" y="688" on="1"/>
        <pt x="162" y="688" on="1"/>
        <pt x="169" y="509" on="1"/>
        <pt x="250" y="502" on="1"/>
        <pt x="250" y="461" on="1"/>
        <pt x="169" y="454" on="1"/>
        <pt x="162" y="0" on="1"/>
        <pt x="120" y="0" on="1"/>
      </contour>
    </TTGlyph>
    <TTGlyph name="daggerdbl" xMin="37" yMin="0" xMax="250" yMax="688">
      <contour>
        <pt x="113" y="179" on="1"/>
        <pt x="37" y="186" on="1"/>
        <pt x="37" y="227" on="1"/>
        <pt x="113" y="234" on="1"/>
        <pt x="113" y="454" on="1"/>
        <pt x="37" y="461" on="1"/>
        <pt x="37" y="502" on="1"/>
        <pt x="113" y="509" on="1"/>
        <pt x="120" y="688" on="1"/>
        <pt x="162" y="688" on="1"/>
        <pt x="169" y="509" on="1"/>
        <pt x="250" y="502" on="1"/>
        <pt x="250" y="461" on="1"/>
        <pt x="169" y="454" on="1"/>
        <pt x="169" y="234" on="1"/>
        <pt x="250" y="227" on="1"/>
        <pt x="250" y="186" on="1"/>
        <pt x="169" y="179" on="1"/>
        <pt x="162" y="0" on="1"/>
        <pt x="120" y="0" on="1"/>
      </contour>
    </TTGlyph>
    <TTGlyph name="dcaron" xMin="39" yMin="-8" xMax="432" yMax="743">
      <component glyphName=".ttfautohint" x="39" y="0" flags="0x0"/>
      <component glyphName="d" x="0" y="0" flags="0x0"/>
      <component glyphName="caron.loclCSY" x="333" y="0" flags="0x0"/>
    </TTGlyph>
    <TTGlyph name="dcroat" xMin="39" yMin="-8" xMax="378" yMax="743">
      <contour>
        <pt x="378" y="637" on="1"/>
        <pt x="330" y="637" on="1"/>
        <pt x="330" y="0" on="1"/>
        <pt x="279" y="0" on="1"/>
        <pt x="275" y="71" on="1"/>
        <pt x="270" y="71" on="1"/>
        <pt x="260" y="25" on="0"/>
        <pt x="207" y="-8" on="0"/>
        <pt x="167" y="-8" on="1"/>
        <pt x="113" y="-8" on="0"/>
        <pt x="60" y="35" on="0"/>
        <pt x="39" y="145" on="0"/>
        <pt x="39" y="255" on="1"/>
        <pt x="39" y="365" on="0"/>
        <pt x="59" y="474" on="0"/>
        <pt x="112" y="518" on="0"/>
        <pt x="167" y="518" on="1"/>
        <pt x="209" y="518" on="0"/>
        <pt x="257" y="484" on="0"/>
        <pt x="266" y="447" on="1"/>
        <pt x="272" y="447" on="1"/>
        <pt x="272" y="637" on="1"/>
        <pt x="165" y="637" on="1"/>
        <pt x="165" y="688" on="1"/>
        <pt x="272" y="688" on="1"/>
        <pt x="272" y="743" on="1"/>
        <pt x="330" y="743" on="1"/>
        <pt x="330" y="688" on="1"/>
        <pt x="378" y="688" on="1"/>
      </contour>
      <contour>
        <pt x="269" y="142" on="0"/>
        <pt x="272" y="210" on="0"/>
        <pt x="272" y="266" on="1"/>
        <pt x="272" y="348" on="0"/>
        <pt x="264" y="391" on="1"/>
        <pt x="256" y="432" on="0"/>
        <pt x="218" y="465" on="0"/>
        <pt x="181" y="465" on="1"/>
        <pt x="142" y="465" on="0"/>
        <pt x="109" y="438" on="0"/>
        <pt x="97" y="353" on="0"/>
        <pt x="97" y="255" on="1"/>
        <pt x="97" y="157" on="0"/>
        <pt x="109" y="72" on="0"/>
        <pt x="144" y="44" on="0"/>
        <pt x="185" y="44" on="1"/>
        <pt x="219" y="44" on="0"/>
        <pt x="257" y="76" on="0"/>
        <pt x="264" y="111" on="1"/>
      </contour>
    </TTGlyph>
    <TTGlyph name="degree" xMin="44" yMin="397" xMax="232" yMax="696">
      <contour>
        <pt x="94" y="397" on="0"/>
        <pt x="55" y="423" on="0"/>
        <pt x="44" y="481" on="0"/>
        <pt x="44" y="546" on="1"/>
        <pt x="44" y="611" on="0"/>
        <pt x="55" y="670" on="0"/>
        <pt x="94" y="696" on="0"/>
        <pt x="139" y="696" on="1"/>
        <pt x="183" y="696" on="0"/>
        <pt x="221" y="670" on="0"/>
        <pt x="232" y="611" on="0"/>
        <pt x="232" y="546" on="1"/>
        <pt x="232" y="481" on="0"/>
        <pt x="221" y="423" on="0"/>
        <pt x="183" y="397" on="0"/>
        <pt x="139" y="397" on="1"/>
      </contour>
      <contour>
        <pt x="163" y="437" on="0"/>
        <pt x="182" y="454" on="0"/>
        <pt x="186" y="495" on="0"/>
        <pt x="186" y="546" on="1"/>
        <pt x="186" y="598" on="0"/>
        <pt x="182" y="638" on="0"/>
        <pt x="163" y="656" on="0"/>
        <pt x="139" y="656" on="1"/>
        <pt x="114" y="656" on="0"/>
        <pt x="95" y="638" on="0"/>
        <pt x="90" y="598" on="0"/>
        <pt x="90" y="546" on="1"/>
        <pt x="90" y="495" on="0"/>
        <pt x="95" y="454" on="0"/>
        <pt x="114" y="437" on="0"/>
        <pt x="139" y="437" on="1"/>
      </contour>
    </TTGlyph>
    <TTGlyph name="dialog" xMin="59" yMin="-212" xMax="746" yMax="688">
      <contour>
        <pt x="306" y="-127" on="1"/>
        <pt x="494" y="60" on="1"/>
        <pt x="686" y="60" on="1"/>
        <pt x="686" y="628" on="1"/>
        <pt x="119" y="628" on="1"/>
        <pt x="119" y="60" on="1"/>
        <pt x="306" y="60" on="1"/>
        <pt x="306" y="0" on="1"/>
        <pt x="59" y="0" on="1"/>
        <pt x="59" y="688" on="1"/>
        <pt x="746" y="688" on="1"/>
        <pt x="746" y="0" on="1"/>
        <pt x="519" y="0" on="1"/>
        <pt x="306" y="-212" on="1"/>
      </contour>
    </TTGlyph>
    <TTGlyph name="dieresis" xMin="20" yMin="658" xMax="246" yMax="730">
      <contour>
        <pt x="20" y="730" on="1"/>
        <pt x="78" y="730" on="1"/>
        <pt x="78" y="658" on="1"/>
        <pt x="20" y="658" on="1"/>
      </contour>
      <contour>
        <pt x="188" y="730" on="1"/>
        <pt x="246" y="730" on="1"/>
        <pt x="246" y="658" on="1"/>
        <pt x="188" y="658" on="1"/>
      </contour>
    </TTGlyph>
    <TTGlyph name="divide" xMin="57" yMin="62" xMax="396" yMax="444">
      <contour>
        <pt x="197" y="444" on="1"/>
        <pt x="257" y="444" on="1"/>
        <pt x="257" y="382" on="1"/>
        <pt x="197" y="382" on="1"/>
      </contour>
      <contour>
        <pt x="57" y="279" on="1"/>
        <pt x="396" y="279" on="1"/>
        <pt x="396" y="227" on="1"/>
        <pt x="57" y="227" on="1"/>
      </contour>
      <contour>
        <pt x="197" y="124" on="1"/>
        <pt x="257" y="124" on="1"/>
        <pt x="257" y="62" on="1"/>
        <pt x="197" y="62" on="1"/>
      </contour>
    </TTGlyph>
    <TTGlyph name="dollar" xMin="45" yMin="-8" xMax="311" yMax="696">
      <contour>
        <pt x="311" y="148" on="0"/>
        <pt x="259" y="76" on="0"/>
        <pt x="207" y="70" on="1"/>
        <pt x="207" y="-8" on="1"/>
        <pt x="158" y="-8" on="1"/>
        <pt x="158" y="68" on="1"/>
        <pt x="92" y="72" on="0"/>
        <pt x="54" y="82" on="1"/>
        <pt x="54" y="132" on="1"/>
        <pt x="83" y="123" on="0"/>
        <pt x="158" y="121" on="1"/>
        <pt x="158" y="323" on="1"/>
        <pt x="121" y="330" on="1"/>
        <pt x="78" y="338" on="0"/>
        <pt x="45" y="398" on="0"/>
        <pt x="45" y="465" on="1"/>
        <pt x="45" y="540" on="0"/>
        <pt x="99" y="612" on="0"/>
        <pt x="158" y="618" on="1"/>
        <pt x="158" y="696" on="1"/>
        <pt x="207" y="696" on="1"/>
        <pt x="207" y="619" on="1"/>
        <pt x="232" y="618" on="0"/>
        <pt x="279" y="611" on="0"/>
        <pt x="293" y="606" on="1"/>
        <pt x="293" y="555" on="1"/>
        <pt x="264" y="562" on="0"/>
        <pt x="207" y="566" on="1"/>
        <pt x="207" y="372" on="1"/>
        <pt x="233" y="367" on="1"/>
        <pt x="263" y="362" on="0"/>
        <pt x="296" y="337" on="0"/>
        <pt x="311" y="279" on="0"/>
        <pt x="311" y="223" on="1"/>
      </contour>
      <contour>
        <pt x="158" y="381" on="1"/>
        <pt x="158" y="564" on="1"/>
        <pt x="131" y="558" on="0"/>
        <pt x="103" y="517" on="0"/>
        <pt x="103" y="473" on="1"/>
        <pt x="103" y="435" on="0"/>
        <pt x="112" y="399" on="0"/>
        <pt x="130" y="385" on="0"/>
        <pt x="149" y="382" on="1"/>
      </contour>
      <contour>
        <pt x="230" y="134" on="0"/>
        <pt x="253" y="178" on="0"/>
        <pt x="253" y="220" on="1"/>
        <pt x="253" y="260" on="0"/>
        <pt x="245" y="298" on="0"/>
        <pt x="228" y="311" on="0"/>
        <pt x="208" y="314" on="1"/>
        <pt x="207" y="314" on="1"/>
        <pt x="207" y="126" on="1"/>
      </contour>
    </TTGlyph>
    <TTGlyph name="dotaccent" xMin="16" yMin="658" xMax="74" yMax="730">
      <contour>
        <pt x="16" y="730" on="1"/>
        <pt x="74" y="730" on="1"/>
        <pt x="74" y="658" on="1"/>
        <pt x="16" y="658" on="1"/>
      </contour>
    </TTGlyph>
    <TTGlyph name="dotbelowcomb" xMin="-118" yMin="-143" xMax="-51" yMax="-62">
      <contour>
        <pt x="-118" y="-62" on="1"/>
        <pt x="-51" y="-62" on="1"/>
        <pt x="-51" y="-143" on="1"/>
        <pt x="-118" y="-143" on="1"/>
      </contour>
    </TTGlyph>
    <TTGlyph name="dotlessi" xMin="53" yMin="0" xMax="111" yMax="510">
      <contour>
        <pt x="53" y="510" on="1"/>
        <pt x="111" y="510" on="1"/>
        <pt x="111" y="0" on="1"/>
        <pt x="53" y="0" on="1"/>
      </contour>
    </TTGlyph>
    <TTGlyph name="e" xMin="39" yMin="-8" xMax="323" yMax="518">
      <contour>
        <pt x="323" y="237" on="1"/>
        <pt x="97" y="237" on="1"/>
        <pt x="97" y="150" on="0"/>
        <pt x="110" y="73" on="0"/>
        <pt x="153" y="43" on="0"/>
        <pt x="201" y="43" on="1"/>
        <pt x="225" y="43" on="0"/>
        <pt x="289" y="49" on="0"/>
        <pt x="312" y="54" on="1"/>
        <pt x="312" y="5" on="1"/>
        <pt x="291" y="0" on="0"/>
        <pt x="223" y="-8" on="0"/>
        <pt x="191" y="-8" on="1"/>
        <pt x="123" y="-8" on="0"/>
        <pt x="60" y="38" on="0"/>
        <pt x="39" y="145" on="0"/>
        <pt x="39" y="254" on="1"/>
        <pt x="39" y="365" on="0"/>
        <pt x="55" y="468" on="0"/>
        <pt x="118" y="518" on="0"/>
        <pt x="188" y="518" on="1"/>
        <pt x="252" y="518" on="0"/>
        <pt x="308" y="471" on="0"/>
        <pt x="323" y="369" on="0"/>
        <pt x="323" y="256" on="1"/>
      </contour>
      <contour>
        <pt x="145" y="467" on="0"/>
        <pt x="109" y="442" on="0"/>
        <pt x="97" y="368" on="0"/>
        <pt x="97" y="282" on="1"/>
        <pt x="267" y="282" on="1"/>
        <pt x="267" y="299" on="1"/>
        <pt x="267" y="376" on="0"/>
        <pt x="254" y="445" on="0"/>
        <pt x="222" y="467" on="0"/>
        <pt x="187" y="467" on="1"/>
      </contour>
    </TTGlyph>
    <TTGlyph name="eacute" xMin="39" yMin="-8" xMax="323" yMax="743">
      <component glyphName=".ttfautohint" x="39" y="0" flags="0x0"/>
      <component glyphName="e" x="0" y="0" flags="0x0"/>
      <component glyphName="acute" x="168" y="0" flags="0x0"/>
    </TTGlyph>
    <TTGlyph name="ebreve" xMin="39" yMin="-8" xMax="323" yMax="743">
      <component glyphName=".ttfautohint" x="39" y="0" flags="0x0"/>
      <component glyphName="e" x="0" y="0" flags="0x0"/>
      <component glyphName="uni0306" x="278" y="0" flags="0x0"/>
    </TTGlyph>
    <TTGlyph name="ecaron" xMin="39" yMin="-8" xMax="323" yMax="743">
      <component glyphName=".ttfautohint" x="39" y="0" flags="0x0"/>
      <component glyphName="e" x="0" y="0" flags="0x0"/>
      <component glyphName="uni030C" x="280" y="0" flags="0x0"/>
    </TTGlyph>
    <TTGlyph name="ecircumflex" xMin="39" yMin="-8" xMax="323" yMax="743">
      <component glyphName=".ttfautohint" x="39" y="0" flags="0x0"/>
      <component glyphName="e" x="0" y="0" flags="0x0"/>
      <component glyphName="circumflex" x="87" y="0" flags="0x0"/>
    </TTGlyph>
    <TTGlyph name="edieresis" xMin="39" yMin="-8" xMax="323" yMax="731">
      <component glyphName=".ttfautohint" x="39" y="0" flags="0x0"/>
      <component glyphName="e" x="0" y="0" flags="0x0"/>
      <component glyphName="dieresis" x="54" y="1" flags="0x4"/>
    </TTGlyph>
    <TTGlyph name="edotaccent" xMin="39" yMin="-8" xMax="323" yMax="730">
      <component glyphName=".ttfautohint" x="39" y="0" flags="0x0"/>
      <component glyphName="e" x="0" y="0" flags="0x0"/>
      <component glyphName="uni0307" x="225" y="0" flags="0x0"/>
    </TTGlyph>
    <TTGlyph name="egrave" xMin="39" yMin="-8" xMax="323" yMax="743">
      <component glyphName=".ttfautohint" x="39" y="0" flags="0x0"/>
      <component glyphName="e" x="0" y="0" flags="0x0"/>
      <component glyphName="grave" x="120" y="0" flags="0x0"/>
    </TTGlyph>
    <TTGlyph name="eight" xMin="39" yMin="-8" xMax="353" yMax="696">
      <contour>
        <pt x="133" y="-8" on="0"/>
        <pt x="65" y="31" on="0"/>
        <pt x="39" y="113" on="0"/>
        <pt x="39" y="183" on="1"/>
        <pt x="39" y="241" on="0"/>
        <pt x="56" y="308" on="0"/>
        <pt x="88" y="340" on="0"/>
        <pt x="115" y="349" on="1"/>
        <pt x="115" y="353" on="1"/>
        <pt x="78" y="364" on="0"/>
        <pt x="43" y="442" on="0"/>
        <pt x="43" y="516" on="1"/>
        <pt x="43" y="583" on="0"/>
        <pt x="71" y="661" on="0"/>
        <pt x="138" y="696" on="0"/>
        <pt x="196" y="696" on="1"/>
        <pt x="254" y="696" on="0"/>
        <pt x="321" y="661" on="0"/>
        <pt x="349" y="583" on="0"/>
        <pt x="349" y="516" on="1"/>
        <pt x="349" y="442" on="0"/>
        <pt x="314" y="364" on="0"/>
        <pt x="277" y="353" on="1"/>
        <pt x="277" y="349" on="1"/>
        <pt x="304" y="340" on="0"/>
        <pt x="336" y="308" on="0"/>
        <pt x="353" y="241" on="0"/>
        <pt x="353" y="183" on="1"/>
        <pt x="353" y="113" on="0"/>
        <pt x="327" y="31" on="0"/>
        <pt x="259" y="-8" on="0"/>
        <pt x="196" y="-8" on="1"/>
      </contour>
      <contour>
        <pt x="235" y="375" on="0"/>
        <pt x="274" y="397" on="0"/>
        <pt x="289" y="452" on="0"/>
        <pt x="289" y="507" on="1"/>
        <pt x="289" y="563" on="0"/>
        <pt x="275" y="619" on="0"/>
        <pt x="236" y="641" on="0"/>
        <pt x="196" y="641" on="1"/>
        <pt x="156" y="641" on="0"/>
        <pt x="117" y="619" on="0"/>
        <pt x="103" y="563" on="0"/>
        <pt x="103" y="507" on="1"/>
        <pt x="103" y="452" on="0"/>
        <pt x="118" y="397" on="0"/>
        <pt x="157" y="375" on="0"/>
        <pt x="196" y="375" on="1"/>
      </contour>
      <contour>
        <pt x="235" y="47" on="0"/>
        <pt x="275" y="68" on="0"/>
        <pt x="292" y="125" on="0"/>
        <pt x="292" y="183" on="1"/>
        <pt x="292" y="245" on="0"/>
        <pt x="277" y="301" on="0"/>
        <pt x="238" y="321" on="0"/>
        <pt x="196" y="321" on="1"/>
        <pt x="154" y="321" on="0"/>
        <pt x="115" y="301" on="0"/>
        <pt x="100" y="245" on="0"/>
        <pt x="100" y="183" on="1"/>
        <pt x="100" y="125" on="0"/>
        <pt x="117" y="68" on="0"/>
        <pt x="157" y="47" on="0"/>
        <pt x="196" y="47" on="1"/>
      </contour>
    </TTGlyph>
    <TTGlyph name="eight.dnom" xMin="23" yMin="-4" xMax="218" yMax="383">
      <contour>
        <pt x="64" y="-4" on="0"/>
        <pt x="23" y="44" on="0"/>
        <pt x="23" y="101" on="1"/>
        <pt x="23" y="147" on="0"/>
        <pt x="45" y="185" on="0"/>
        <pt x="70" y="192" on="1"/>
        <pt x="70" y="194" on="1"/>
        <pt x="47" y="201" on="0"/>
        <pt x="25" y="243" on="0"/>
        <pt x="25" y="284" on="1"/>
        <pt x="25" y="338" on="0"/>
        <pt x="67" y="383" on="0"/>
        <pt x="120" y="383" on="1"/>
        <pt x="173" y="383" on="0"/>
        <pt x="215" y="338" on="0"/>
        <pt x="215" y="284" on="1"/>
        <pt x="215" y="243" on="0"/>
        <pt x="193" y="201" on="0"/>
        <pt x="170" y="194" on="1"/>
        <pt x="170" y="192" on="1"/>
        <pt x="195" y="185" on="0"/>
        <pt x="218" y="146" on="0"/>
        <pt x="218" y="101" on="1"/>
        <pt x="218" y="44" on="0"/>
        <pt x="177" y="-4" on="0"/>
        <pt x="120" y="-4" on="1"/>
      </contour>
      <contour>
        <pt x="142" y="209" on="0"/>
        <pt x="164" y="220" on="0"/>
        <pt x="172" y="248" on="0"/>
        <pt x="172" y="277" on="1"/>
        <pt x="172" y="320" on="0"/>
        <pt x="153" y="347" on="0"/>
        <pt x="120" y="347" on="1"/>
        <pt x="88" y="347" on="0"/>
        <pt x="68" y="320" on="0"/>
        <pt x="68" y="277" on="1"/>
        <pt x="68" y="248" on="0"/>
        <pt x="76" y="220" on="0"/>
        <pt x="98" y="209" on="0"/>
        <pt x="120" y="209" on="1"/>
      </contour>
      <contour>
        <pt x="142" y="32" on="0"/>
        <pt x="165" y="43" on="0"/>
        <pt x="174" y="73" on="0"/>
        <pt x="174" y="103" on="1"/>
        <pt x="174" y="134" on="0"/>
        <pt x="166" y="164" on="0"/>
        <pt x="144" y="174" on="0"/>
        <pt x="120" y="174" on="1"/>
        <pt x="97" y="174" on="0"/>
        <pt x="75" y="164" on="0"/>
        <pt x="66" y="134" on="0"/>
        <pt x="66" y="103" on="1"/>
        <pt x="66" y="73" on="0"/>
        <pt x="75" y="43" on="0"/>
        <pt x="98" y="32" on="0"/>
        <pt x="120" y="32" on="1"/>
      </contour>
    </TTGlyph>
    <TTGlyph name="eight.numr" xMin="23" yMin="304" xMax="218" yMax="691">
      <component glyphName=".ttfautohint" x="23" y="304" flags="0x0"/>
      <component glyphName="eight.dnom" x="0" y="308" flags="0x4"/>
    </TTGlyph>
    <TTGlyph name="eight.tnum" xMin="40" yMin="-8" xMax="354" yMax="696">
      <contour>
        <pt x="134" y="-8" on="0"/>
        <pt x="66" y="31" on="0"/>
        <pt x="40" y="113" on="0"/>
        <pt x="40" y="183" on="1"/>
        <pt x="40" y="241" on="0"/>
        <pt x="57" y="308" on="0"/>
        <pt x="89" y="340" on="0"/>
        <pt x="116" y="349" on="1"/>
        <pt x="116" y="353" on="1"/>
        <pt x="79" y="364" on="0"/>
        <pt x="44" y="442" on="0"/>
        <pt x="44" y="516" on="1"/>
        <pt x="44" y="583" on="0"/>
        <pt x="72" y="661" on="0"/>
        <pt x="139" y="696" on="0"/>
        <pt x="197" y="696" on="1"/>
        <pt x="255" y="696" on="0"/>
        <pt x="322" y="661" on="0"/>
        <pt x="350" y="583" on="0"/>
        <pt x="350" y="516" on="1"/>
        <pt x="350" y="442" on="0"/>
        <pt x="315" y="364" on="0"/>
        <pt x="278" y="353" on="1"/>
        <pt x="278" y="349" on="1"/>
        <pt x="305" y="340" on="0"/>
        <pt x="337" y="308" on="0"/>
        <pt x="354" y="241" on="0"/>
        <pt x="354" y="183" on="1"/>
        <pt x="354" y="113" on="0"/>
        <pt x="328" y="31" on="0"/>
        <pt x="260" y="-8" on="0"/>
        <pt x="197" y="-8" on="1"/>
      </contour>
      <contour>
        <pt x="236" y="375" on="0"/>
        <pt x="275" y="397" on="0"/>
        <pt x="290" y="452" on="0"/>
        <pt x="290" y="507" on="1"/>
        <pt x="290" y="563" on="0"/>
        <pt x="276" y="619" on="0"/>
        <pt x="237" y="641" on="0"/>
        <pt x="197" y="641" on="1"/>
        <pt x="157" y="641" on="0"/>
        <pt x="118" y="619" on="0"/>
        <pt x="104" y="563" on="0"/>
        <pt x="104" y="507" on="1"/>
        <pt x="104" y="452" on="0"/>
        <pt x="119" y="397" on="0"/>
        <pt x="158" y="375" on="0"/>
        <pt x="197" y="375" on="1"/>
      </contour>
      <contour>
        <pt x="236" y="47" on="0"/>
        <pt x="276" y="68" on="0"/>
        <pt x="293" y="125" on="0"/>
        <pt x="293" y="183" on="1"/>
        <pt x="293" y="245" on="0"/>
        <pt x="278" y="301" on="0"/>
        <pt x="239" y="321" on="0"/>
        <pt x="197" y="321" on="1"/>
        <pt x="155" y="321" on="0"/>
        <pt x="116" y="301" on="0"/>
        <pt x="101" y="245" on="0"/>
        <pt x="101" y="183" on="1"/>
        <pt x="101" y="125" on="0"/>
        <pt x="118" y="68" on="0"/>
        <pt x="158" y="47" on="0"/>
        <pt x="197" y="47" on="1"/>
      </contour>
    </TTGlyph>
    <TTGlyph name="ellipsis" xMin="52" yMin="0" xMax="459" yMax="81">
      <contour>
        <pt x="52" y="81" on="1"/>
        <pt x="119" y="81" on="1"/>
        <pt x="119" y="0" on="1"/>
        <pt x="52" y="0" on="1"/>
      </contour>
      <contour>
        <pt x="222" y="81" on="1"/>
        <pt x="289" y="81" on="1"/>
        <pt x="289" y="0" on="1"/>
        <pt x="222" y="0" on="1"/>
      </contour>
      <contour>
        <pt x="392" y="81" on="1"/>
        <pt x="459" y="81" on="1"/>
        <pt x="459" y="0" on="1"/>
        <pt x="392" y="0" on="1"/>
      </contour>
    </TTGlyph>
    <TTGlyph name="emacron" xMin="39" yMin="-8" xMax="323" yMax="743">
      <component glyphName=".ttfautohint" x="39" y="0" flags="0x0"/>
      <component glyphName="e" x="0" y="0" flags="0x0"/>
      <component glyphName="uni0304" x="320" y="0" flags="0x0"/>
    </TTGlyph>
    <TTGlyph name="emdash" xMin="55" yMin="278" xMax="742" yMax="331">
      <contour>
        <pt x="55" y="331" on="1"/>
        <pt x="742" y="331" on="1"/>
        <pt x="742" y="278" on="1"/>
        <pt x="55" y="278" on="1"/>
      </contour>
    </TTGlyph>
    <TTGlyph name="endash" xMin="55" yMin="278" xMax="353" yMax="331">
      <contour>
        <pt x="55" y="331" on="1"/>
        <pt x="353" y="331" on="1"/>
        <pt x="353" y="278" on="1"/>
        <pt x="55" y="278" on="1"/>
      </contour>
    </TTGlyph>
    <TTGlyph name="eng" xMin="53" yMin="-192" xMax="334" yMax="518">
      <contour>
        <pt x="269" y="518" on="0"/>
        <pt x="318" y="481" on="0"/>
        <pt x="334" y="402" on="0"/>
        <pt x="334" y="326" on="1"/>
        <pt x="334" y="-66" on="1"/>
        <pt x="334" y="-124" on="0"/>
        <pt x="312" y="-177" on="0"/>
        <pt x="266" y="-192" on="0"/>
        <pt x="219" y="-192" on="1"/>
        <pt x="219" y="-145" on="1"/>
        <pt x="246" y="-145" on="0"/>
        <pt x="269" y="-136" on="0"/>
        <pt x="276" y="-114" on="0"/>
        <pt x="276" y="-90" on="1"/>
        <pt x="276" y="307" on="1"/>
        <pt x="276" y="380" on="0"/>
        <pt x="264" y="444" on="0"/>
        <pt x="232" y="466" on="0"/>
        <pt x="197" y="466" on="1"/>
        <pt x="156" y="466" on="0"/>
        <pt x="119" y="419" on="0"/>
        <pt x="111" y="341" on="0"/>
        <pt x="111" y="261" on="1"/>
        <pt x="111" y="0" on="1"/>
        <pt x="53" y="0" on="1"/>
        <pt x="53" y="510" on="1"/>
        <pt x="104" y="510" on="1"/>
        <pt x="108" y="439" on="1"/>
        <pt x="113" y="439" on="1"/>
        <pt x="122" y="476" on="0"/>
        <pt x="172" y="518" on="0"/>
        <pt x="220" y="518" on="1"/>
      </contour>
    </TTGlyph>
    <TTGlyph name="eogonek" xMin="39" yMin="-196" xMax="323" yMax="518">
      <contour>
        <pt x="323" y="237" on="1"/>
        <pt x="97" y="237" on="1"/>
        <pt x="97" y="150" on="0"/>
        <pt x="110" y="73" on="0"/>
        <pt x="153" y="43" on="0"/>
        <pt x="201" y="43" on="1"/>
        <pt x="225" y="43" on="0"/>
        <pt x="289" y="49" on="0"/>
        <pt x="312" y="54" on="1"/>
        <pt x="312" y="5" on="1"/>
        <pt x="288" y="-14" on="0"/>
        <pt x="246" y="-82" on="0"/>
        <pt x="246" y="-112" on="1"/>
        <pt x="246" y="-130" on="0"/>
        <pt x="267" y="-154" on="0"/>
        <pt x="290" y="-154" on="1"/>
        <pt x="296" y="-154" on="1"/>
        <pt x="302" y="-154" on="0"/>
        <pt x="306" y="-153" on="1"/>
        <pt x="306" y="-194" on="1"/>
        <pt x="296" y="-196" on="0"/>
        <pt x="278" y="-196" on="1"/>
        <pt x="237" y="-196" on="0"/>
        <pt x="197" y="-154" on="0"/>
        <pt x="197" y="-122" on="1"/>
        <pt x="197" y="-92" on="0"/>
        <pt x="228" y="-30" on="0"/>
        <pt x="254" y="-3" on="1"/>
        <pt x="228" y="-8" on="0"/>
        <pt x="191" y="-8" on="1"/>
        <pt x="123" y="-8" on="0"/>
        <pt x="60" y="38" on="0"/>
        <pt x="39" y="145" on="0"/>
        <pt x="39" y="254" on="1"/>
        <pt x="39" y="365" on="0"/>
        <pt x="55" y="468" on="0"/>
        <pt x="118" y="518" on="0"/>
        <pt x="188" y="518" on="1"/>
        <pt x="252" y="518" on="0"/>
        <pt x="308" y="471" on="0"/>
        <pt x="323" y="369" on="0"/>
        <pt x="323" y="256" on="1"/>
      </contour>
      <contour>
        <pt x="145" y="467" on="0"/>
        <pt x="109" y="442" on="0"/>
        <pt x="97" y="368" on="0"/>
        <pt x="97" y="282" on="1"/>
        <pt x="267" y="282" on="1"/>
        <pt x="267" y="299" on="1"/>
        <pt x="267" y="376" on="0"/>
        <pt x="254" y="445" on="0"/>
        <pt x="222" y="467" on="0"/>
        <pt x="187" y="467" on="1"/>
      </contour>
    </TTGlyph>
    <TTGlyph name="equal" xMin="57" yMin="142" xMax="396" yMax="364">
      <contour>
        <pt x="57" y="364" on="1"/>
        <pt x="396" y="364" on="1"/>
        <pt x="396" y="312" on="1"/>
        <pt x="57" y="312" on="1"/>
      </contour>
      <contour>
        <pt x="57" y="194" on="1"/>
        <pt x="396" y="194" on="1"/>
        <pt x="396" y="142" on="1"/>
        <pt x="57" y="142" on="1"/>
      </contour>
    </TTGlyph>
    <TTGlyph name="estimated" xMin="44" yMin="-8" xMax="375" yMax="696">
      <contour>
        <pt x="105" y="177" on="0"/>
        <pt x="121" y="58" on="0"/>
        <pt x="164" y="26" on="0"/>
        <pt x="217" y="26" on="1"/>
        <pt x="262" y="26" on="0"/>
        <pt x="307" y="46" on="0"/>
        <pt x="332" y="119" on="0"/>
        <pt x="336" y="200" on="1"/>
        <pt x="372" y="200" on="1"/>
        <pt x="368" y="113" on="0"/>
        <pt x="338" y="25" on="0"/>
        <pt x="272" y="-8" on="0"/>
        <pt x="209" y="-8" on="1"/>
        <pt x="132" y="-8" on="0"/>
        <pt x="64" y="45" on="0"/>
        <pt x="44" y="184" on="0"/>
        <pt x="44" y="344" on="1"/>
        <pt x="44" y="504" on="0"/>
        <pt x="64" y="643" on="0"/>
        <pt x="132" y="696" on="0"/>
        <pt x="209" y="696" on="1"/>
        <pt x="287" y="696" on="0"/>
        <pt x="354" y="643" on="0"/>
        <pt x="375" y="504" on="0"/>
        <pt x="375" y="344" on="1"/>
        <pt x="375" y="323" on="1"/>
        <pt x="105" y="323" on="1"/>
      </contour>
      <contour>
        <pt x="160" y="662" on="0"/>
        <pt x="120" y="629" on="0"/>
        <pt x="105" y="507" on="0"/>
        <pt x="105" y="357" on="1"/>
        <pt x="314" y="357" on="1"/>
        <pt x="314" y="507" on="0"/>
        <pt x="299" y="629" on="0"/>
        <pt x="259" y="662" on="0"/>
        <pt x="209" y="662" on="1"/>
      </contour>
    </TTGlyph>
    <TTGlyph name="eth" xMin="39" yMin="-8" xMax="333" yMax="743">
      <contour>
        <pt x="117" y="-8" on="0"/>
        <pt x="56" y="35" on="0"/>
        <pt x="39" y="138" on="0"/>
        <pt x="39" y="254" on="1"/>
        <pt x="39" y="369" on="0"/>
        <pt x="55" y="473" on="0"/>
        <pt x="112" y="518" on="0"/>
        <pt x="176" y="518" on="1"/>
        <pt x="228" y="518" on="0"/>
        <pt x="255" y="489" on="1"/>
        <pt x="259" y="491" on="1"/>
        <pt x="241" y="576" on="0"/>
        <pt x="214" y="638" on="1"/>
        <pt x="124" y="623" on="1"/>
        <pt x="124" y="666" on="1"/>
        <pt x="195" y="677" on="1"/>
        <pt x="178" y="709" on="0"/>
        <pt x="157" y="739" on="1"/>
        <pt x="157" y="743" on="1"/>
        <pt x="218" y="743" on="1"/>
        <pt x="240" y="715" on="0"/>
        <pt x="254" y="686" on="1"/>
        <pt x="323" y="697" on="1"/>
        <pt x="323" y="654" on="1"/>
        <pt x="272" y="647" on="1"/>
        <pt x="293" y="597" on="0"/>
        <pt x="322" y="474" on="0"/>
        <pt x="327" y="414" on="1"/>
        <pt x="333" y="342" on="0"/>
        <pt x="333" y="273" on="1"/>
        <pt x="333" y="146" on="0"/>
        <pt x="318" y="39" on="0"/>
        <pt x="257" y="-8" on="0"/>
        <pt x="186" y="-8" on="1"/>
      </contour>
      <contour>
        <pt x="231" y="43" on="0"/>
        <pt x="267" y="75" on="0"/>
        <pt x="275" y="153" on="0"/>
        <pt x="275" y="254" on="1"/>
        <pt x="275" y="345" on="0"/>
        <pt x="267" y="426" on="0"/>
        <pt x="229" y="467" on="0"/>
        <pt x="186" y="467" on="1"/>
        <pt x="141" y="467" on="0"/>
        <pt x="106" y="437" on="0"/>
        <pt x="97" y="358" on="0"/>
        <pt x="97" y="254" on="1"/>
        <pt x="97" y="154" on="0"/>
        <pt x="106" y="76" on="0"/>
        <pt x="142" y="43" on="0"/>
        <pt x="186" y="43" on="1"/>
      </contour>
    </TTGlyph>
    <TTGlyph name="exclam" xMin="55" yMin="0" xMax="123" yMax="688">
      <contour>
        <pt x="55" y="449" on="0"/>
        <pt x="55" y="562" on="1"/>
        <pt x="55" y="688" on="1"/>
        <pt x="123" y="688" on="1"/>
        <pt x="123" y="562" on="1"/>
        <pt x="123" y="449" on="0"/>
        <pt x="109" y="183" on="1"/>
        <pt x="69" y="183" on="1"/>
      </contour>
      <contour>
        <pt x="55" y="81" on="1"/>
        <pt x="123" y="81" on="1"/>
        <pt x="123" y="0" on="1"/>
        <pt x="55" y="0" on="1"/>
      </contour>
    </TTGlyph>
    <TTGlyph name="exclam.case" xMin="55" yMin="0" xMax="123" yMax="688">
      <component glyphName=".ttfautohint" x="55" y="0" flags="0x0"/>
      <component glyphName="exclam" x="0" y="0" flags="0x0"/>
    </TTGlyph>
    <TTGlyph name="exclam.ss02" xMin="45" yMin="-8" xMax="749" yMax="696">
      <contour>
        <pt x="302" y="-8" on="0"/>
        <pt x="140" y="87" on="0"/>
        <pt x="45" y="249" on="0"/>
        <pt x="45" y="344" on="1"/>
        <pt x="45" y="439" on="0"/>
        <pt x="140" y="601" on="0"/>
        <pt x="302" y="696" on="0"/>
        <pt x="397" y="696" on="1"/>
        <pt x="492" y="696" on="0"/>
        <pt x="654" y="601" on="0"/>
        <pt x="749" y="439" on="0"/>
        <pt x="749" y="344" on="1"/>
        <pt x="749" y="249" on="0"/>
        <pt x="654" y="87" on="0"/>
        <pt x="492" y="-8" on="0"/>
        <pt x="397" y="-8" on="1"/>
      </contour>
      <contour>
        <pt x="480" y="37" on="0"/>
        <pt x="621" y="120" on="0"/>
        <pt x="704" y="261" on="0"/>
        <pt x="704" y="344" on="1"/>
        <pt x="704" y="427" on="0"/>
        <pt x="621" y="568" on="0"/>
        <pt x="480" y="651" on="0"/>
        <pt x="397" y="651" on="1"/>
        <pt x="314" y="651" on="0"/>
        <pt x="173" y="568" on="0"/>
        <pt x="90" y="427" on="0"/>
        <pt x="90" y="344" on="1"/>
        <pt x="90" y="261" on="0"/>
        <pt x="173" y="120" on="0"/>
        <pt x="314" y="37" on="0"/>
        <pt x="397" y="37" on="1"/>
      </contour>
      <contour>
        <pt x="371" y="310" on="0"/>
        <pt x="363" y="429" on="0"/>
        <pt x="363" y="480" on="1"/>
        <pt x="363" y="579" on="1"/>
        <pt x="431" y="579" on="1"/>
        <pt x="431" y="480" on="1"/>
        <pt x="431" y="429" on="0"/>
        <pt x="423" y="310" on="0"/>
        <pt x="417" y="268" on="1"/>
        <pt x="377" y="268" on="1"/>
      </contour>
      <contour>
        <pt x="363" y="191" on="1"/>
        <pt x="431" y="191" on="1"/>
        <pt x="431" y="109" on="1"/>
        <pt x="363" y="109" on="1"/>
      </contour>
    </TTGlyph>
    <TTGlyph name="exclamdbl" xMin="55" yMin="0" xMax="282" yMax="688">
      <component glyphName=".ttfautohint" x="55" y="0" flags="0x0"/>
      <component glyphName="exclam" x="159" y="0" flags="0x0"/>
      <component glyphName="exclam" x="0" y="0" flags="0x0"/>
    </TTGlyph>
    <TTGlyph name="exclamdown" xMin="55" yMin="-178" xMax="123" yMax="510">
      <contour>
        <pt x="56" y="510" on="1"/>
        <pt x="123" y="510" on="1"/>
        <pt x="123" y="429" on="1"/>
        <pt x="56" y="429" on="1"/>
      </contour>
      <contour>
        <pt x="55" y="-52" on="1"/>
        <pt x="55" y="61" on="0"/>
        <pt x="69" y="327" on="1"/>
        <pt x="109" y="327" on="1"/>
        <pt x="123" y="61" on="0"/>
        <pt x="123" y="-52" on="1"/>
        <pt x="123" y="-178" on="1"/>
        <pt x="55" y="-178" on="1"/>
      </contour>
    </TTGlyph>
    <TTGlyph name="exclamdown.case" xMin="55" yMin="0" xMax="123" yMax="688">
      <component glyphName=".ttfautohint" x="55" y="0" flags="0x0"/>
      <component glyphName="exclamdown" x="0" y="178" flags="0x4"/>
    </TTGlyph>
    <TTGlyph name="f" xMin="18" yMin="0" xMax="212" yMax="743">
      <contour>
        <pt x="77" y="459" on="1"/>
        <pt x="18" y="459" on="1"/>
        <pt x="18" y="510" on="1"/>
        <pt x="77" y="510" on="1"/>
        <pt x="77" y="602" on="1"/>
        <pt x="77" y="665" on="0"/>
        <pt x="103" y="725" on="0"/>
        <pt x="158" y="743" on="0"/>
        <pt x="212" y="743" on="1"/>
        <pt x="212" y="697" on="1"/>
        <pt x="180" y="697" on="0"/>
        <pt x="148" y="685" on="0"/>
        <pt x="135" y="651" on="0"/>
        <pt x="135" y="615" on="1"/>
        <pt x="135" y="510" on="1"/>
        <pt x="212" y="510" on="1"/>
        <pt x="212" y="459" on="1"/>
        <pt x="135" y="459" on="1"/>
        <pt x="135" y="0" on="1"/>
        <pt x="77" y="0" on="1"/>
      </contour>
    </TTGlyph>
    <TTGlyph name="f_f" xMin="18" yMin="0" xMax="442" yMax="743">
      <component glyphName=".ttfautohint" x="18" y="0" flags="0x0"/>
      <component glyphName="f" x="0" y="0" flags="0x0"/>
      <component glyphName="f" x="230" y="0" flags="0x0"/>
    </TTGlyph>
    <TTGlyph name="fi" xMin="18" yMin="0" xMax="342" yMax="743">
      <component glyphName=".ttfautohint" x="18" y="0" flags="0x0"/>
      <component glyphName="f" x="0" y="0" flags="0x0"/>
      <component glyphName="i" x="230" y="0" flags="0x0"/>
    </TTGlyph>
    <TTGlyph name="five" xMin="42" yMin="-8" xMax="320" yMax="688">
      <contour>
        <pt x="115" y="48" on="0"/>
        <pt x="153" y="48" on="1"/>
        <pt x="198" y="48" on="0"/>
        <pt x="243" y="75" on="0"/>
        <pt x="259" y="139" on="0"/>
        <pt x="259" y="202" on="1"/>
        <pt x="259" y="270" on="0"/>
        <pt x="243" y="329" on="0"/>
        <pt x="197" y="349" on="0"/>
        <pt x="144" y="349" on="1"/>
        <pt x="105" y="349" on="0"/>
        <pt x="46" y="336" on="1"/>
        <pt x="46" y="688" on="1"/>
        <pt x="293" y="688" on="1"/>
        <pt x="293" y="632" on="1"/>
        <pt x="105" y="632" on="1"/>
        <pt x="105" y="397" on="1"/>
        <pt x="132" y="405" on="0"/>
        <pt x="181" y="405" on="1"/>
        <pt x="240" y="405" on="0"/>
        <pt x="300" y="363" on="0"/>
        <pt x="320" y="282" on="0"/>
        <pt x="320" y="211" on="1"/>
        <pt x="320" y="126" on="0"/>
        <pt x="294" y="33" on="0"/>
        <pt x="228" y="-8" on="0"/>
        <pt x="165" y="-8" on="1"/>
        <pt x="137" y="-8" on="0"/>
        <pt x="68" y="0" on="0"/>
        <pt x="42" y="7" on="1"/>
        <pt x="42" y="59" on="1"/>
      </contour>
    </TTGlyph>
    <TTGlyph name="five.dnom" xMin="30" yMin="-4" xMax="199" yMax="378">
      <contour>
        <pt x="66" y="34" on="0"/>
        <pt x="97" y="34" on="1"/>
        <pt x="123" y="34" on="0"/>
        <pt x="147" y="47" on="0"/>
        <pt x="155" y="79" on="0"/>
        <pt x="155" y="112" on="1"/>
        <pt x="155" y="148" on="0"/>
        <pt x="147" y="178" on="0"/>
        <pt x="122" y="188" on="0"/>
        <pt x="93" y="188" on="1"/>
        <pt x="69" y="188" on="0"/>
        <pt x="33" y="182" on="1"/>
        <pt x="33" y="378" on="1"/>
        <pt x="183" y="378" on="1"/>
        <pt x="183" y="340" on="1"/>
        <pt x="74" y="340" on="1"/>
        <pt x="74" y="221" on="1"/>
        <pt x="91" y="226" on="0"/>
        <pt x="118" y="226" on="1"/>
        <pt x="167" y="226" on="0"/>
        <pt x="199" y="176" on="0"/>
        <pt x="199" y="118" on="1"/>
        <pt x="199" y="70" on="0"/>
        <pt x="184" y="19" on="0"/>
        <pt x="144" y="-4" on="0"/>
        <pt x="106" y="-4" on="1"/>
        <pt x="65" y="-4" on="0"/>
        <pt x="30" y="4" on="1"/>
        <pt x="30" y="40" on="1"/>
      </contour>
    </TTGlyph>
    <TTGlyph name="five.numr" xMin="30" yMin="304" xMax="199" yMax="686">
      <contour>
        <pt x="66" y="342" on="0"/>
        <pt x="97" y="342" on="1"/>
        <pt x="123" y="342" on="0"/>
        <pt x="147" y="355" on="0"/>
        <pt x="155" y="387" on="0"/>
        <pt x="155" y="420" on="1"/>
        <pt x="155" y="456" on="0"/>
        <pt x="147" y="486" on="0"/>
        <pt x="122" y="496" on="0"/>
        <pt x="93" y="496" on="1"/>
        <pt x="69" y="496" on="0"/>
        <pt x="33" y="490" on="1"/>
        <pt x="33" y="686" on="1"/>
        <pt x="183" y="686" on="1"/>
        <pt x="183" y="648" on="1"/>
        <pt x="74" y="648" on="1"/>
        <pt x="74" y="529" on="1"/>
        <pt x="91" y="534" on="0"/>
        <pt x="118" y="534" on="1"/>
        <pt x="167" y="534" on="0"/>
        <pt x="199" y="484" on="0"/>
        <pt x="199" y="426" on="1"/>
        <pt x="199" y="378" on="0"/>
        <pt x="184" y="327" on="0"/>
        <pt x="144" y="304" on="0"/>
        <pt x="106" y="304" on="1"/>
        <pt x="65" y="304" on="0"/>
        <pt x="30" y="312" on="1"/>
        <pt x="30" y="348" on="1"/>
      </contour>
    </TTGlyph>
    <TTGlyph name="five.tnum" xMin="60" yMin="-8" xMax="339" yMax="688">
      <contour>
        <pt x="133" y="48" on="0"/>
        <pt x="172" y="48" on="1"/>
        <pt x="217" y="48" on="0"/>
        <pt x="262" y="75" on="0"/>
        <pt x="278" y="139" on="0"/>
        <pt x="278" y="202" on="1"/>
        <pt x="278" y="270" on="0"/>
        <pt x="262" y="329" on="0"/>
        <pt x="215" y="349" on="0"/>
        <pt x="163" y="349" on="1"/>
        <pt x="123" y="349" on="0"/>
        <pt x="65" y="336" on="1"/>
        <pt x="65" y="688" on="1"/>
        <pt x="311" y="688" on="1"/>
        <pt x="311" y="632" on="1"/>
        <pt x="123" y="632" on="1"/>
        <pt x="123" y="397" on="1"/>
        <pt x="152" y="405" on="0"/>
        <pt x="200" y="405" on="1"/>
        <pt x="259" y="405" on="0"/>
        <pt x="319" y="363" on="0"/>
        <pt x="339" y="282" on="0"/>
        <pt x="339" y="211" on="1"/>
        <pt x="339" y="126" on="0"/>
        <pt x="313" y="33" on="0"/>
        <pt x="247" y="-8" on="0"/>
        <pt x="184" y="-8" on="1"/>
        <pt x="156" y="-8" on="0"/>
        <pt x="87" y="0" on="0"/>
        <pt x="60" y="7" on="1"/>
        <pt x="60" y="59" on="1"/>
      </contour>
    </TTGlyph>
    <TTGlyph name="fiveeighths" xMin="30" yMin="-4" xMax="553" yMax="688">
      <component glyphName=".ttfautohint" x="30" y="0" flags="0x0"/>
      <component glyphName="five.numr" x="0" y="0" flags="0x0"/>
      <component glyphName="fraction" x="219" y="0" flags="0x0"/>
      <component glyphName="eight.dnom" x="335" y="0" flags="0x0"/>
    </TTGlyph>
    <TTGlyph name="fl" xMin="18" yMin="0" xMax="341" yMax="743">
      <component glyphName=".ttfautohint" x="18" y="0" flags="0x0"/>
      <component glyphName="f" x="0" y="0" flags="0x0"/>
      <component glyphName="l" x="230" y="0" flags="0x0"/>
    </TTGlyph>
    <TTGlyph name="florin" xMin="-97" yMin="-192" xMax="312" yMax="743">
      <contour>
        <pt x="269" y="697" on="0"/>
        <pt x="234" y="677" on="0"/>
        <pt x="207" y="609" on="0"/>
        <pt x="191" y="532" on="1"/>
        <pt x="186" y="510" on="1"/>
        <pt x="262" y="510" on="1"/>
        <pt x="251" y="459" on="1"/>
        <pt x="175" y="459" on="1"/>
        <pt x="80" y="7" on="1"/>
        <pt x="60" y="-85" on="0"/>
        <pt x="16" y="-169" on="0"/>
        <pt x="-42" y="-192" on="0"/>
        <pt x="-97" y="-192" on="1"/>
        <pt x="-86" y="-146" on="1"/>
        <pt x="-54" y="-146" on="0"/>
        <pt x="-20" y="-133" on="0"/>
        <pt x="0" y="-95" on="0"/>
        <pt x="9" y="-55" on="1"/>
        <pt x="117" y="459" on="1"/>
        <pt x="57" y="459" on="1"/>
        <pt x="68" y="510" on="1"/>
        <pt x="128" y="510" on="1"/>
        <pt x="131" y="524" on="1"/>
        <pt x="153" y="626" on="0"/>
        <pt x="198" y="718" on="0"/>
        <pt x="257" y="743" on="0"/>
        <pt x="312" y="743" on="1"/>
        <pt x="302" y="697" on="1"/>
      </contour>
    </TTGlyph>
    <TTGlyph name="four" xMin="25" yMin="0" xMax="351" yMax="688">
      <contour>
        <pt x="231" y="165" on="1"/>
        <pt x="25" y="165" on="1"/>
        <pt x="25" y="215" on="1"/>
        <pt x="162" y="688" on="1"/>
        <pt x="224" y="688" on="1"/>
        <pt x="84" y="221" on="1"/>
        <pt x="232" y="221" on="1"/>
        <pt x="241" y="488" on="1"/>
        <pt x="292" y="488" on="1"/>
        <pt x="292" y="221" on="1"/>
        <pt x="351" y="221" on="1"/>
        <pt x="351" y="165" on="1"/>
        <pt x="292" y="165" on="1"/>
        <pt x="292" y="0" on="1"/>
        <pt x="231" y="0" on="1"/>
      </contour>
    </TTGlyph>
    <TTGlyph name="four.dnom" xMin="14" yMin="0" xMax="215" yMax="378">
      <contour>
        <pt x="138" y="88" on="1"/>
        <pt x="14" y="88" on="1"/>
        <pt x="14" y="122" on="1"/>
        <pt x="95" y="378" on="1"/>
        <pt x="139" y="378" on="1"/>
        <pt x="57" y="126" on="1"/>
        <pt x="138" y="126" on="1"/>
        <pt x="146" y="263" on="1"/>
        <pt x="181" y="263" on="1"/>
        <pt x="181" y="126" on="1"/>
        <pt x="215" y="126" on="1"/>
        <pt x="215" y="88" on="1"/>
        <pt x="181" y="88" on="1"/>
        <pt x="181" y="0" on="1"/>
        <pt x="138" y="0" on="1"/>
      </contour>
    </TTGlyph>
    <TTGlyph name="four.numr" xMin="14" yMin="308" xMax="215" yMax="686">
      <component glyphName=".ttfautohint" x="14" y="308" flags="0x0"/>
      <component glyphName="four.dnom" x="0" y="308" flags="0x4"/>
    </TTGlyph>
    <TTGlyph name="four.ss01" xMin="25" yMin="0" xMax="350" yMax="688">
      <contour>
        <pt x="350" y="221" on="1"/>
        <pt x="350" y="165" on="1"/>
        <pt x="292" y="165" on="1"/>
        <pt x="292" y="0" on="1"/>
        <pt x="231" y="0" on="1"/>
        <pt x="231" y="165" on="1"/>
        <pt x="25" y="165" on="1"/>
        <pt x="25" y="213" on="1"/>
        <pt x="211" y="688" on="1"/>
        <pt x="292" y="688" on="1"/>
        <pt x="292" y="221" on="1"/>
      </contour>
      <contour>
        <pt x="232" y="221" on="1"/>
        <pt x="232" y="597" on="1"/>
        <pt x="80" y="221" on="1"/>
      </contour>
    </TTGlyph>
    <TTGlyph name="four.tnum" xMin="27" yMin="0" xMax="369" yMax="688">
      <contour>
        <pt x="249" y="165" on="1"/>
        <pt x="27" y="165" on="1"/>
        <pt x="27" y="215" on="1"/>
        <pt x="180" y="688" on="1"/>
        <pt x="243" y="688" on="1"/>
        <pt x="87" y="221" on="1"/>
        <pt x="250" y="221" on="1"/>
        <pt x="259" y="488" on="1"/>
        <pt x="310" y="488" on="1"/>
        <pt x="310" y="221" on="1"/>
        <pt x="369" y="221" on="1"/>
        <pt x="369" y="165" on="1"/>
        <pt x="310" y="165" on="1"/>
        <pt x="310" y="0" on="1"/>
        <pt x="249" y="0" on="1"/>
      </contour>
    </TTGlyph>
    <TTGlyph name="fraction" xMin="-100" yMin="0" xMax="216" yMax="688">
      <contour>
        <pt x="174" y="688" on="1"/>
        <pt x="216" y="688" on="1"/>
        <pt x="-58" y="0" on="1"/>
        <pt x="-100" y="0" on="1"/>
      </contour>
    </TTGlyph>
    <TTGlyph name="g" xMin="39" yMin="-198" xMax="330" yMax="518">
      <contour>
        <pt x="100" y="-198" on="0"/>
        <pt x="51" y="-194" on="1"/>
        <pt x="51" y="-145" on="1"/>
        <pt x="126" y="-148" on="0"/>
        <pt x="157" y="-148" on="1"/>
        <pt x="209" y="-148" on="0"/>
        <pt x="257" y="-115" on="0"/>
        <pt x="272" y="-34" on="0"/>
        <pt x="272" y="52" on="1"/>
        <pt x="272" y="66" on="1"/>
        <pt x="266" y="66" on="1"/>
        <pt x="257" y="29" on="0"/>
        <pt x="209" y="-5" on="0"/>
        <pt x="167" y="-5" on="1"/>
        <pt x="112" y="-5" on="0"/>
        <pt x="59" y="39" on="0"/>
        <pt x="39" y="147" on="0"/>
        <pt x="39" y="257" on="1"/>
        <pt x="39" y="367" on="0"/>
        <pt x="60" y="475" on="0"/>
        <pt x="113" y="518" on="0"/>
        <pt x="167" y="518" on="1"/>
        <pt x="207" y="518" on="0"/>
        <pt x="260" y="485" on="0"/>
        <pt x="270" y="439" on="1"/>
        <pt x="275" y="439" on="1"/>
        <pt x="279" y="510" on="1"/>
        <pt x="330" y="510" on="1"/>
        <pt x="330" y="76" on="1"/>
        <pt x="330" y="-34" on="0"/>
        <pt x="308" y="-146" on="0"/>
        <pt x="239" y="-198" on="0"/>
        <pt x="167" y="-198" on="1"/>
      </contour>
      <contour>
        <pt x="218" y="48" on="0"/>
        <pt x="256" y="80" on="0"/>
        <pt x="263" y="116" on="1"/>
        <pt x="272" y="162" on="0"/>
        <pt x="272" y="257" on="1"/>
        <pt x="272" y="353" on="0"/>
        <pt x="265" y="390" on="1"/>
        <pt x="257" y="432" on="0"/>
        <pt x="219" y="466" on="0"/>
        <pt x="185" y="466" on="1"/>
        <pt x="145" y="466" on="0"/>
        <pt x="110" y="438" on="0"/>
        <pt x="97" y="354" on="0"/>
        <pt x="97" y="257" on="1"/>
        <pt x="97" y="160" on="0"/>
        <pt x="109" y="76" on="0"/>
        <pt x="144" y="48" on="0"/>
        <pt x="185" y="48" on="1"/>
      </contour>
    </TTGlyph>
    <TTGlyph name="g_tilde.loclGUA" xMin="39" yMin="-198" xMax="330" yMax="743">
      <component glyphName=".ttfautohint" x="39" y="0" flags="0x0"/>
      <component glyphName="g" x="0" y="0" flags="0x0"/>
      <component glyphName="tildecomb" x="309" y="0" flags="0x0"/>
    </TTGlyph>
    <TTGlyph name="gbreve" xMin="39" yMin="-198" xMax="330" yMax="743">
      <component glyphName=".ttfautohint" x="39" y="0" flags="0x0"/>
      <component glyphName="g" x="0" y="0" flags="0x0"/>
      <component glyphName="uni0306" x="289" y="0" flags="0x0"/>
    </TTGlyph>
    <TTGlyph name="gcaron" xMin="39" yMin="-198" xMax="330" yMax="743">
      <component glyphName=".ttfautohint" x="39" y="0" flags="0x0"/>
      <component glyphName="g" x="0" y="0" flags="0x0"/>
      <component glyphName="uni030C" x="290" y="0" flags="0x0"/>
    </TTGlyph>
    <TTGlyph name="gcircumflex" xMin="39" yMin="-198" xMax="330" yMax="743">
      <component glyphName=".ttfautohint" x="39" y="0" flags="0x0"/>
      <component glyphName="g" x="0" y="0" flags="0x0"/>
      <component glyphName="uni0302" x="290" y="0" flags="0x0"/>
    </TTGlyph>
    <TTGlyph name="gcommaaccent" xMin="39" yMin="-198" xMax="330" yMax="781">
      <component glyphName=".ttfautohint" x="39" y="0" flags="0x0"/>
      <component glyphName="g" x="0" y="0" flags="0x0"/>
      <component glyphName="uni0312" x="534" y="0" flags="0x0"/>
    </TTGlyph>
    <TTGlyph name="gdotaccent" xMin="39" yMin="-198" xMax="330" yMax="730">
      <component glyphName=".ttfautohint" x="39" y="0" flags="0x0"/>
      <component glyphName="g" x="0" y="0" flags="0x0"/>
      <component glyphName="uni0307" x="235" y="0" flags="0x0"/>
    </TTGlyph>
    <TTGlyph name="germandbls" xMin="53" yMin="0" xMax="350" yMax="750">
      <contour>
        <pt x="173" y="0" on="1"/>
        <pt x="173" y="51" on="1"/>
        <pt x="199" y="51" on="1"/>
        <pt x="243" y="51" on="0"/>
        <pt x="280" y="76" on="0"/>
        <pt x="292" y="152" on="0"/>
        <pt x="292" y="243" on="1"/>
        <pt x="292" y="315" on="0"/>
        <pt x="278" y="390" on="0"/>
        <pt x="243" y="420" on="0"/>
        <pt x="210" y="420" on="1"/>
        <pt x="191" y="420" on="1"/>
        <pt x="191" y="471" on="1"/>
        <pt x="210" y="471" on="1"/>
        <pt x="252" y="471" on="0"/>
        <pt x="287" y="522" on="0"/>
        <pt x="287" y="585" on="1"/>
        <pt x="287" y="650" on="0"/>
        <pt x="248" y="699" on="0"/>
        <pt x="199" y="699" on="1"/>
        <pt x="165" y="699" on="0"/>
        <pt x="127" y="675" on="0"/>
        <pt x="110" y="616" on="0"/>
        <pt x="110" y="564" on="1"/>
        <pt x="110" y="0" on="1"/>
        <pt x="53" y="0" on="1"/>
        <pt x="53" y="558" on="1"/>
        <pt x="53" y="631" on="0"/>
        <pt x="83" y="715" on="0"/>
        <pt x="146" y="750" on="0"/>
        <pt x="199" y="750" on="1"/>
        <pt x="275" y="750" on="0"/>
        <pt x="346" y="679" on="0"/>
        <pt x="346" y="589" on="1"/>
        <pt x="346" y="524" on="0"/>
        <pt x="308" y="461" on="0"/>
        <pt x="265" y="451" on="1"/>
        <pt x="265" y="447" on="1"/>
        <pt x="310" y="436" on="0"/>
        <pt x="350" y="346" on="0"/>
        <pt x="350" y="248" on="1"/>
        <pt x="350" y="150" on="0"/>
        <pt x="330" y="47" on="0"/>
        <pt x="271" y="0" on="0"/>
        <pt x="210" y="0" on="1"/>
      </contour>
    </TTGlyph>
    <TTGlyph name="grave" xMin="0" yMin="603" xMax="92" yMax="743">
      <contour>
        <pt x="0" y="738" on="1"/>
        <pt x="0" y="743" on="1"/>
        <pt x="60" y="743" on="1"/>
        <pt x="92" y="608" on="1"/>
        <pt x="92" y="603" on="1"/>
        <pt x="49" y="603" on="1"/>
      </contour>
    </TTGlyph>
    <TTGlyph name="gravecomb" xMin="-92" yMin="603" xMax="0" yMax="743">
      <contour>
        <pt x="-92" y="738" on="1"/>
        <pt x="-92" y="743" on="1"/>
        <pt x="-32" y="743" on="1"/>
        <pt x="0" y="608" on="1"/>
        <pt x="0" y="603" on="1"/>
        <pt x="-43" y="603" on="1"/>
      </contour>
    </TTGlyph>
    <TTGlyph name="gravecomb.case" xMin="-92" yMin="748" xMax="0" yMax="888">
      <contour>
        <pt x="-92" y="883" on="1"/>
        <pt x="-92" y="888" on="1"/>
        <pt x="-32" y="888" on="1"/>
        <pt x="0" y="753" on="1"/>
        <pt x="0" y="748" on="1"/>
        <pt x="-43" y="748" on="1"/>
      </contour>
    </TTGlyph>
    <TTGlyph name="greater" xMin="57" yMin="77" xMax="397" yMax="430">
      <contour>
        <pt x="57" y="133" on="1"/>
        <pt x="336" y="253" on="1"/>
        <pt x="57" y="374" on="1"/>
        <pt x="57" y="430" on="1"/>
        <pt x="397" y="284" on="1"/>
        <pt x="397" y="223" on="1"/>
        <pt x="57" y="77" on="1"/>
      </contour>
    </TTGlyph>
    <TTGlyph name="greaterequal" xMin="60" yMin="46" xMax="400" yMax="547">
      <contour>
        <pt x="60" y="250" on="1"/>
        <pt x="338" y="370" on="1"/>
        <pt x="60" y="491" on="1"/>
        <pt x="60" y="547" on="1"/>
        <pt x="399" y="401" on="1"/>
        <pt x="399" y="340" on="1"/>
        <pt x="60" y="194" on="1"/>
      </contour>
      <contour>
        <pt x="61" y="98" on="1"/>
        <pt x="400" y="98" on="1"/>
        <pt x="400" y="46" on="1"/>
        <pt x="61" y="46" on="1"/>
      </contour>
    </TTGlyph>
    <TTGlyph name="guillemotleft" xMin="28" yMin="107" xMax="263" yMax="510">
      <contour>
        <pt x="28" y="308" on="1"/>
        <pt x="105" y="510" on="1"/>
        <pt x="150" y="510" on="1"/>
        <pt x="85" y="308" on="1"/>
        <pt x="150" y="107" on="1"/>
        <pt x="105" y="107" on="1"/>
      </contour>
      <contour>
        <pt x="140" y="308" on="1"/>
        <pt x="218" y="510" on="1"/>
        <pt x="263" y="510" on="1"/>
        <pt x="198" y="308" on="1"/>
        <pt x="263" y="107" on="1"/>
        <pt x="218" y="107" on="1"/>
      </contour>
    </TTGlyph>
    <TTGlyph name="guillemotright" xMin="46" yMin="107" xMax="281" yMax="510">
      <contour>
        <pt x="110" y="308" on="1"/>
        <pt x="46" y="510" on="1"/>
        <pt x="91" y="510" on="1"/>
        <pt x="168" y="308" on="1"/>
        <pt x="91" y="107" on="1"/>
        <pt x="46" y="107" on="1"/>
      </contour>
      <contour>
        <pt x="224" y="308" on="1"/>
        <pt x="159" y="510" on="1"/>
        <pt x="204" y="510" on="1"/>
        <pt x="281" y="308" on="1"/>
        <pt x="204" y="107" on="1"/>
        <pt x="159" y="107" on="1"/>
      </contour>
    </TTGlyph>
    <TTGlyph name="guilsinglleft" xMin="28" yMin="107" xMax="150" yMax="510">
      <contour>
        <pt x="28" y="308" on="1"/>
        <pt x="105" y="510" on="1"/>
        <pt x="150" y="510" on="1"/>
        <pt x="85" y="308" on="1"/>
        <pt x="150" y="107" on="1"/>
        <pt x="105" y="107" on="1"/>
      </contour>
    </TTGlyph>
    <TTGlyph name="guilsinglright" xMin="46" yMin="107" xMax="168" yMax="510">
      <contour>
        <pt x="110" y="308" on="1"/>
        <pt x="46" y="510" on="1"/>
        <pt x="91" y="510" on="1"/>
        <pt x="168" y="308" on="1"/>
        <pt x="91" y="107" on="1"/>
        <pt x="46" y="107" on="1"/>
      </contour>
    </TTGlyph>
    <TTGlyph name="h" xMin="53" yMin="0" xMax="334" yMax="743">
      <contour>
        <pt x="276" y="307" on="1"/>
        <pt x="276" y="380" on="0"/>
        <pt x="264" y="444" on="0"/>
        <pt x="232" y="466" on="0"/>
        <pt x="197" y="466" on="1"/>
        <pt x="156" y="466" on="0"/>
        <pt x="119" y="419" on="0"/>
        <pt x="111" y="341" on="0"/>
        <pt x="111" y="261" on="1"/>
        <pt x="111" y="0" on="1"/>
        <pt x="53" y="0" on="1"/>
        <pt x="53" y="743" on="1"/>
        <pt x="111" y="743" on="1"/>
        <pt x="111" y="450" on="1"/>
        <pt x="116" y="450" on="1"/>
        <pt x="137" y="518" on="0"/>
        <pt x="220" y="518" on="1"/>
        <pt x="269" y="518" on="0"/>
        <pt x="318" y="481" on="0"/>
        <pt x="334" y="402" on="0"/>
        <pt x="334" y="326" on="1"/>
        <pt x="334" y="0" on="1"/>
        <pt x="276" y="0" on="1"/>
      </contour>
    </TTGlyph>
    <TTGlyph name="hbar" xMin="4" yMin="0" xMax="334" yMax="743">
      <contour>
        <pt x="269" y="518" on="0"/>
        <pt x="318" y="481" on="0"/>
        <pt x="334" y="402" on="0"/>
        <pt x="334" y="326" on="1"/>
        <pt x="334" y="0" on="1"/>
        <pt x="276" y="0" on="1"/>
        <pt x="276" y="307" on="1"/>
        <pt x="276" y="380" on="0"/>
        <pt x="264" y="444" on="0"/>
        <pt x="232" y="466" on="0"/>
        <pt x="197" y="466" on="1"/>
        <pt x="156" y="466" on="0"/>
        <pt x="119" y="419" on="0"/>
        <pt x="111" y="341" on="0"/>
        <pt x="111" y="261" on="1"/>
        <pt x="111" y="0" on="1"/>
        <pt x="53" y="0" on="1"/>
        <pt x="53" y="637" on="1"/>
        <pt x="4" y="637" on="1"/>
        <pt x="4" y="688" on="1"/>
        <pt x="53" y="688" on="1"/>
        <pt x="53" y="743" on="1"/>
        <pt x="111" y="743" on="1"/>
        <pt x="111" y="688" on="1"/>
        <pt x="218" y="688" on="1"/>
        <pt x="218" y="637" on="1"/>
        <pt x="111" y="637" on="1"/>
        <pt x="111" y="450" on="1"/>
        <pt x="116" y="450" on="1"/>
        <pt x="137" y="518" on="0"/>
        <pt x="220" y="518" on="1"/>
      </contour>
    </TTGlyph>
    <TTGlyph name="hcircumflex" xMin="-17" yMin="0" xMax="334" yMax="921">
      <component glyphName=".ttfautohint" x="0" y="0" flags="0x0"/>
      <component glyphName="h" x="0" y="0" flags="0x0"/>
      <component glyphName="uni0302" x="181" y="178" flags="0x4"/>
    </TTGlyph>
    <TTGlyph name="hookabovecomb" xMin="-191" yMin="612" xMax="-11" yMax="785">
      <contour>
        <pt x="-143" y="625" on="1"/>
        <pt x="-143" y="644" on="0"/>
        <pt x="-128" y="661" on="0"/>
        <pt x="-109" y="667" on="1"/>
        <pt x="-99" y="669" on="1"/>
        <pt x="-75" y="676" on="0"/>
        <pt x="-57" y="692" on="0"/>
        <pt x="-57" y="711" on="1"/>
        <pt x="-57" y="726" on="0"/>
        <pt x="-63" y="738" on="0"/>
        <pt x="-86" y="744" on="0"/>
        <pt x="-113" y="744" on="1"/>
        <pt x="-153" y="743" on="1"/>
        <pt x="-177" y="741" on="0"/>
        <pt x="-191" y="741" on="1"/>
        <pt x="-191" y="777" on="1"/>
        <pt x="-129" y="785" on="0"/>
        <pt x="-104" y="785" on="1"/>
        <pt x="-51" y="785" on="0"/>
        <pt x="-11" y="757" on="0"/>
        <pt x="-11" y="721" on="1"/>
        <pt x="-11" y="690" on="0"/>
        <pt x="-24" y="661" on="0"/>
        <pt x="-51" y="651" on="1"/>
        <pt x="-60" y="648" on="1"/>
        <pt x="-81" y="641" on="0"/>
        <pt x="-97" y="633" on="0"/>
        <pt x="-101" y="623" on="0"/>
        <pt x="-101" y="612" on="1"/>
        <pt x="-143" y="612" on="1"/>
      </contour>
    </TTGlyph>
    <TTGlyph name="hookabovecomb.case" xMin="-191" yMin="741" xMax="-11" yMax="914">
      <contour>
        <pt x="-143" y="754" on="1"/>
        <pt x="-143" y="773" on="0"/>
        <pt x="-128" y="790" on="0"/>
        <pt x="-109" y="796" on="1"/>
        <pt x="-99" y="798" on="1"/>
        <pt x="-75" y="805" on="0"/>
        <pt x="-57" y="821" on="0"/>
        <pt x="-57" y="840" on="1"/>
        <pt x="-57" y="854" on="0"/>
        <pt x="-63" y="867" on="0"/>
        <pt x="-86" y="872" on="0"/>
        <pt x="-113" y="872" on="1"/>
        <pt x="-191" y="870" on="1"/>
        <pt x="-191" y="906" on="1"/>
        <pt x="-129" y="914" on="0"/>
        <pt x="-104" y="914" on="1"/>
        <pt x="-51" y="914" on="0"/>
        <pt x="-11" y="886" on="0"/>
        <pt x="-11" y="850" on="1"/>
        <pt x="-11" y="819" on="0"/>
        <pt x="-24" y="790" on="0"/>
        <pt x="-51" y="780" on="1"/>
        <pt x="-60" y="777" on="1"/>
        <pt x="-81" y="770" on="0"/>
        <pt x="-97" y="762" on="0"/>
        <pt x="-101" y="752" on="0"/>
        <pt x="-101" y="741" on="1"/>
        <pt x="-143" y="741" on="1"/>
      </contour>
    </TTGlyph>
    <TTGlyph name="house" xMin="23" yMin="0" xMax="399" yMax="698">
      <contour>
        <pt x="23" y="358" on="1"/>
        <pt x="184" y="698" on="1"/>
        <pt x="238" y="698" on="1"/>
        <pt x="399" y="358" on="1"/>
        <pt x="399" y="0" on="1"/>
        <pt x="23" y="0" on="1"/>
      </contour>
      <contour>
        <pt x="339" y="52" on="1"/>
        <pt x="339" y="353" on="1"/>
        <pt x="211" y="628" on="1"/>
        <pt x="84" y="353" on="1"/>
        <pt x="84" y="52" on="1"/>
      </contour>
    </TTGlyph>
    <TTGlyph name="hungarumlaut" xMin="17" yMin="611" xMax="206" yMax="729">
      <contour>
        <pt x="17" y="616" on="1"/>
        <pt x="46" y="729" on="1"/>
        <pt x="101" y="729" on="1"/>
        <pt x="101" y="724" on="1"/>
        <pt x="56" y="611" on="1"/>
        <pt x="17" y="611" on="1"/>
      </contour>
      <contour>
        <pt x="122" y="616" on="1"/>
        <pt x="151" y="729" on="1"/>
        <pt x="206" y="729" on="1"/>
        <pt x="206" y="724" on="1"/>
        <pt x="161" y="611" on="1"/>
        <pt x="122" y="611" on="1"/>
      </contour>
    </TTGlyph>
    <TTGlyph name="hyphen" xMin="56" yMin="258" xMax="222" yMax="314">
      <contour>
        <pt x="56" y="314" on="1"/>
        <pt x="222" y="314" on="1"/>
        <pt x="222" y="258" on="1"/>
        <pt x="56" y="258" on="1"/>
      </contour>
    </TTGlyph>
    <TTGlyph name="i" xMin="51" yMin="0" xMax="112" yMax="743">
      <contour>
        <pt x="51" y="743" on="1"/>
        <pt x="112" y="743" on="1"/>
        <pt x="112" y="667" on="1"/>
        <pt x="51" y="667" on="1"/>
      </contour>
      <contour>
        <pt x="53" y="510" on="1"/>
        <pt x="111" y="510" on="1"/>
        <pt x="111" y="0" on="1"/>
        <pt x="53" y="0" on="1"/>
      </contour>
    </TTGlyph>
    <TTGlyph name="i.loclTRK" xMin="53" yMin="0" xMax="111" yMax="730">
      <component glyphName=".ttfautohint" x="53" y="0" flags="0x0"/>
      <component glyphName="dotlessi" x="0" y="0" flags="0x0"/>
      <component glyphName="uni0307" x="126" y="0" flags="0x0"/>
    </TTGlyph>
    <TTGlyph name="iacute" xMin="53" yMin="0" xMax="145" yMax="743">
      <component glyphName=".ttfautohint" x="53" y="0" flags="0x0"/>
      <component glyphName="dotlessi" x="0" y="0" flags="0x0"/>
      <component glyphName="acute" x="53" y="0" flags="0x0"/>
    </TTGlyph>
</ttFont>
